League Spartan-Regular.ufo
<glyph name="exclam" format="1">
  <advance width="258"/>
  <unicode hex="0021"/>
  <outline>
    <contour>
      <point x="91" y="133"/>
      <point x="60" y="103"/>
      <point x="60" y="64" type="curve" smooth="yes"/>
      <point x="60" y="26"/>
      <point x="91" y="-4"/>
      <point x="129" y="-4" type="curve" smooth="yes"/>
      <point x="167" y="-4"/>
      <point x="198" y="26"/>
      <point x="198" y="64" type="curve" smooth="yes"/>
      <point x="198" y="103"/>
      <point x="167" y="133"/>
      <point x="129" y="133" type="curve" smooth="yes"/>
    </contour>
    <contour>
      <point x="181" y="860" type="line"/>
      <point x="76" y="860" type="line"/>
      <point x="93" y="230" type="line"/>
      <point x="164" y="230" type="line"/>
    </contour>
  </outline>
</glyph>
<glyph name="quotedbl" format="1">
  <advance width="427"/>
  <unicode hex="0022"/>
  <outline>
    <contour>
      <point x="90" y="840"/>
      <point x="60" y="814"/>
      <point x="60" y="774" type="curve" smooth="yes"/>
      <point x="60" y="769" type="line" smooth="yes"/>
      <point x="60" y="715"/>
      <point x="94" y="496"/>
      <point x="95" y="499" type="curve"/>
      <point x="140" y="499" type="line"/>
      <point x="140" y="499"/>
      <point x="190" y="715"/>
      <point x="190" y="769" type="curve" smooth="yes"/>
      <point x="190" y="774" type="line" smooth="yes"/>
      <point x="190" y="814"/>
      <point x="160" y="840"/>
      <point x="125" y="840" type="curve" smooth="yes"/>
    </contour>
    <contour>
      <point x="267" y="840"/>
      <point x="237" y="814"/>
      <point x="237" y="774" type="curve" smooth="yes"/>
      <point x="237" y="769" type="line" smooth="yes"/>
      <point x="237" y="715"/>
      <point x="271" y="496"/>
      <point x="272" y="499" type="curve"/>
      <point x="317" y="499" type="line"/>
      <point x="317" y="499"/>
      <point x="367" y="715"/>
      <point x="367" y="769" type="curve" smooth="yes"/>
      <point x="367" y="774" type="line" smooth="yes"/>
      <point x="367" y="814"/>
      <point x="337" y="840"/>
      <point x="302" y="840" type="curve" smooth="yes"/>
    </contour>
  </outline>
</glyph>
<glyph name="numbersign" format="1">
  <advance width="794"/>
  <unicode hex="0023"/>
  <outline>
    <contour>
      <point x="334" y="-5" type="line"/>
      <point x="436" y="-5" type="line"/>
      <point x="499" y="237" type="line"/>
      <point x="597" y="237" type="line"/>
      <point x="619" y="320" type="line"/>
      <point x="521" y="320" type="line"/>
      <point x="570" y="505" type="line"/>
      <point x="670" y="505" type="line"/>
      <point x="691" y="588" type="line"/>
      <point x="591" y="588" type="line"/>
      <point x="652" y="820" type="line"/>
      <point x="550" y="820" type="line"/>
      <point x="489" y="588" type="line"/>
      <point x="362" y="588" type="line"/>
      <point x="414" y="825" type="line"/>
      <point x="322" y="825" type="line"/>
      <point x="260" y="588" type="line"/>
      <point x="162" y="588" type="line"/>
      <point x="140" y="505" type="line"/>
      <point x="238" y="505" type="line"/>
      <point x="190" y="320" type="line"/>
      <point x="90" y="320" type="line"/>
      <point x="68" y="237" type="line"/>
      <point x="168" y="237" type="line"/>
      <point x="106" y="0" type="line"/>
      <point x="208" y="0" type="line"/>
      <point x="270" y="237" type="line"/>
      <point x="397" y="237" type="line" smooth="yes"/>
    </contour>
    <contour>
      <point x="340" y="505" type="line"/>
      <point x="468" y="505" type="line"/>
      <point x="419" y="320" type="line"/>
      <point x="292" y="320" type="line"/>
    </contour>
  </outline>
</glyph>
<glyph name="dollar" format="1">
  <advance width="610"/>
  <unicode hex="0024"/>
  <outline>
    <contour>
      <point x="383" y="953" type="line"/>
      <point x="310" y="953" type="line"/>
      <point x="310" y="838" type="line"/>
      <point x="189" y="823"/>
      <point x="92" y="736"/>
      <point x="92" y="617" type="curve" smooth="yes"/>
      <point x="92" y="528"/>
      <point x="147" y="460"/>
      <point x="272" y="405" type="curve" smooth="yes"/>
      <point x="373" y="361"/>
      <point x="508" y="328"/>
      <point x="508" y="213" type="curve" smooth="yes"/>
      <point x="508" y="118"/>
      <point x="417" y="72"/>
      <point x="320" y="72" type="curve" smooth="yes"/>
      <point x="178" y="72"/>
      <point x="70" y="171"/>
      <point x="70" y="171" type="curve"/>
      <point x="25" y="99" type="line"/>
      <point x="25" y="99"/>
      <point x="137" y="-11"/>
      <point x="310" y="-15" type="curve"/>
      <point x="310" y="-128" type="line"/>
      <point x="383" y="-128" type="line"/>
      <point x="383" y="-10" type="line"/>
      <point x="509" y="10"/>
      <point x="606" y="92"/>
      <point x="606" y="214" type="curve" smooth="yes"/>
      <point x="606" y="340"/>
      <point x="504" y="406"/>
      <point x="371" y="462" type="curve" smooth="yes"/>
      <point x="291" y="496"/>
      <point x="190" y="527"/>
      <point x="190" y="624" type="curve" smooth="yes"/>
      <point x="190" y="709"/>
      <point x="268" y="758"/>
      <point x="350" y="758" type="curve" smooth="yes"/>
      <point x="447" y="758"/>
      <point x="539" y="690"/>
      <point x="539" y="690" type="curve"/>
      <point x="579" y="762" type="line"/>
      <point x="579" y="762"/>
      <point x="494" y="826"/>
      <point x="383" y="838" type="curve"/>
    </contour>
  </outline>
</glyph>
<glyph name="percent" format="1">
  <advance width="929"/>
  <unicode hex="0025"/>
  <outline>
    <contour>
      <point x="182" y="0" type="line"/>
      <point x="266" y="0" type="line"/>
      <point x="746" y="825" type="line"/>
      <point x="662" y="825" type="line"/>
    </contour>
    <contour>
      <point x="23" y="526"/>
      <point x="110" y="444"/>
      <point x="228" y="444" type="curve" smooth="yes"/>
      <point x="346" y="444"/>
      <point x="433" y="526"/>
      <point x="433" y="642" type="curve" smooth="yes"/>
      <point x="433" y="758"/>
      <point x="341" y="840"/>
      <point x="228" y="840" type="curve" smooth="yes"/>
      <point x="115" y="840"/>
      <point x="23" y="758"/>
      <point x="23" y="642" type="curve"/>
    </contour>
    <contour>
      <point x="98" y="719"/>
      <point x="155" y="774"/>
      <point x="228" y="774" type="curve" smooth="yes"/>
      <point x="301" y="774"/>
      <point x="358" y="719"/>
      <point x="358" y="642" type="curve" smooth="yes"/>
      <point x="358" y="566"/>
      <point x="305" y="510"/>
      <point x="228" y="510" type="curve" smooth="yes"/>
      <point x="151" y="510"/>
      <point x="98" y="566"/>
      <point x="98" y="642" type="curve" smooth="yes"/>
    </contour>
    <contour>
      <point x="496" y="67"/>
      <point x="583" y="-15"/>
      <point x="701" y="-15" type="curve" smooth="yes"/>
      <point x="819" y="-15"/>
      <point x="906" y="67"/>
      <point x="906" y="183" type="curve" smooth="yes"/>
      <point x="906" y="299"/>
      <point x="814" y="381"/>
      <point x="701" y="381" type="curve" smooth="yes"/>
      <point x="588" y="381"/>
      <point x="496" y="299"/>
      <point x="496" y="183" type="curve"/>
    </contour>
    <contour>
      <point x="571" y="260"/>
      <point x="628" y="315"/>
      <point x="701" y="315" type="curve" smooth="yes"/>
      <point x="774" y="315"/>
      <point x="831" y="260"/>
      <point x="831" y="183" type="curve" smooth="yes"/>
      <point x="830" y="107"/>
      <point x="777" y="52"/>
      <point x="701" y="51" type="curve" smooth="yes"/>
      <point x="624" y="51"/>
      <point x="571" y="107"/>
      <point x="571" y="183" type="curve" smooth="yes"/>
    </contour>
  </outline>
</glyph>
<glyph name="ampersand" format="1">
  <advance width="838"/>
  <unicode hex="0026"/>
  <outline>
    <contour>
      <point x="59" y="100"/>
      <point x="147" y="-15"/>
      <point x="298" y="-15" type="curve" smooth="yes"/>
      <point x="440" y="-15"/>
      <point x="506" y="35"/>
      <point x="608" y="113" type="curve"/>
      <point x="724" y="0" type="line"/>
      <point x="850" y="0" type="line"/>
      <point x="663" y="169" type="line"/>
      <point x="706" y="212"/>
      <point x="750" y="260"/>
      <point x="786" y="311" type="curve"/>
      <point x="726" y="374" type="line"/>
      <point x="696" y="334"/>
      <point x="652" y="276"/>
      <point x="600" y="228" type="curve"/>
      <point x="398" y="417" type="line"/>
      <point x="398" y="417"/>
      <point x="566" y="499"/>
      <point x="566" y="635" type="curve" smooth="yes"/>
      <point x="566" y="742"/>
      <point x="494" y="840"/>
      <point x="363" y="840" type="curve" smooth="yes"/>
      <point x="227" y="840"/>
      <point x="147" y="731"/>
      <point x="147" y="638" type="curve" smooth="yes"/>
      <point x="147" y="556"/>
      <point x="177" y="503"/>
      <point x="237" y="447" type="curve"/>
      <point x="121" y="386"/>
      <point x="59" y="311"/>
      <point x="59" y="204" type="curve" smooth="yes"/>
    </contour>
    <contour>
      <point x="542" y="170" type="line"/>
      <point x="474" y="104"/>
      <point x="409" y="72"/>
      <point x="315" y="72" type="curve" smooth="yes"/>
      <point x="228" y="72"/>
      <point x="156" y="127"/>
      <point x="156" y="204" type="curve" smooth="yes"/>
      <point x="156" y="331"/>
      <point x="311" y="383"/>
      <point x="311" y="383" type="curve"/>
    </contour>
    <contour>
      <point x="441" y="753"/>
      <point x="468" y="691"/>
      <point x="468" y="640" type="curve" smooth="yes"/>
      <point x="468" y="586"/>
      <point x="438" y="530"/>
      <point x="333" y="480" type="curve"/>
      <point x="271" y="519"/>
      <point x="243" y="584"/>
      <point x="243" y="627" type="curve" smooth="yes"/>
      <point x="243" y="696"/>
      <point x="286" y="753"/>
      <point x="365" y="753" type="curve" smooth="yes"/>
    </contour>
  </outline>
</glyph>
<glyph name="quotesingle" format="1">
  <advance width="291"/>
  <unicode hex="0027"/>
  <outline>
    <contour>
      <point x="110" y="840"/>
      <point x="80" y="814"/>
      <point x="80" y="774" type="curve" smooth="yes"/>
      <point x="80" y="769" type="line" smooth="yes"/>
      <point x="80" y="715"/>
      <point x="114" y="496"/>
      <point x="115" y="499" type="curve"/>
      <point x="160" y="499" type="line"/>
      <point x="160" y="499"/>
      <point x="210" y="715"/>
      <point x="210" y="769" type="curve" smooth="yes"/>
      <point x="210" y="774" type="line" smooth="yes"/>
      <point x="210" y="814"/>
      <point x="180" y="840"/>
      <point x="145" y="840" type="curve" smooth="yes"/>
    </contour>
  </outline>
</glyph>
<glyph name="parenleft" format="1">
  <advance width="329"/>
  <unicode hex="0028"/>
  <outline>
    <contour>
      <point x="281" y="-225" type="line"/>
      <point x="281" y="-225"/>
      <point x="146" y="-15"/>
      <point x="146" y="297" type="curve" smooth="yes"/>
      <point x="146" y="633"/>
      <point x="293" y="844"/>
      <point x="293" y="844" type="curve"/>
      <point x="235" y="869" type="line"/>
      <point x="235" y="869"/>
      <point x="55" y="633"/>
      <point x="55" y="304" type="curve" smooth="yes"/>
      <point x="55" y="-15"/>
      <point x="223" y="-250"/>
      <point x="223" y="-250" type="curve"/>
    </contour>
  </outline>
</glyph>
<glyph name="parenright" format="1">
  <advance width="337"/>
  <unicode hex="0029"/>
  <outline>
    <contour>
      <point x="102" y="-250" type="line"/>
      <point x="102" y="-250"/>
      <point x="282" y="-14"/>
      <point x="282" y="315" type="curve" smooth="yes"/>
      <point x="282" y="634"/>
      <point x="114" y="869"/>
      <point x="114" y="869" type="curve"/>
      <point x="56" y="844" type="line"/>
      <point x="56" y="844"/>
      <point x="191" y="634"/>
      <point x="191" y="322" type="curve" smooth="yes"/>
      <point x="191" y="-14"/>
      <point x="44" y="-225"/>
      <point x="44" y="-225" type="curve"/>
    </contour>
  </outline>
</glyph>
<glyph name="asterisk" format="1">
  <advance width="509"/>
  <unicode hex="002A"/>
  <outline>
    <contour>
      <point x="288" y="860" type="line"/>
      <point x="220" y="860" type="line"/>
      <point x="219" y="730" type="line"/>
      <point x="94" y="769" type="line"/>
      <point x="73" y="704" type="line"/>
      <point x="198" y="663" type="line"/>
      <point x="122" y="556" type="line"/>
      <point x="177" y="516" type="line"/>
      <point x="254" y="620" type="line"/>
      <point x="331" y="516" type="line"/>
      <point x="386" y="556" type="line"/>
      <point x="310" y="662" type="line"/>
      <point x="436" y="704" type="line"/>
      <point x="415" y="769" type="line"/>
      <point x="289" y="729" type="line"/>
    </contour>
  </outline>
</glyph>
<glyph name="plus" format="1">
  <advance width="573"/>
  <unicode hex="002B"/>
  <outline>
    <contour>
      <point x="513" y="378" type="line"/>
      <point x="513" y="451" type="line"/>
      <point x="323" y="451" type="line"/>
      <point x="323" y="641" type="line"/>
      <point x="250" y="641" type="line"/>
      <point x="250" y="451" type="line"/>
      <point x="60" y="451" type="line"/>
      <point x="60" y="378" type="line"/>
      <point x="250" y="378" type="line"/>
      <point x="250" y="188" type="line"/>
      <point x="323" y="188" type="line"/>
      <point x="323" y="378" type="line"/>
    </contour>
  </outline>
</glyph>
<glyph name="comma" format="1">
  <advance width="286"/>
  <unicode hex="002C"/>
  <outline>
    <contour>
      <point x="99" y="151"/>
      <point x="64" y="113"/>
      <point x="64" y="73" type="curve" smooth="yes"/>
      <point x="64" y="39"/>
      <point x="82" y="10"/>
      <point x="123" y="-3" type="curve"/>
      <point x="117" y="-57"/>
      <point x="82" y="-110"/>
      <point x="60" y="-134" type="curve"/>
      <point x="92" y="-161" type="line"/>
      <point x="186" y="-78"/>
      <point x="226" y="10"/>
      <point x="226" y="62" type="curve" smooth="yes"/>
      <point x="226" y="117"/>
      <point x="189" y="151"/>
      <point x="141" y="151" type="curve" smooth="yes"/>
    </contour>
  </outline>
</glyph>
<glyph name="hyphen" format="1">
  <advance width="430"/>
  <unicode hex="002D"/>
  <outline>
    <contour>
      <point x="370" y="260" type="line"/>
      <point x="370" y="333" type="line"/>
      <point x="60" y="333" type="line"/>
      <point x="60" y="260" type="line"/>
    </contour>
  </outline>
</glyph>
<glyph name="period" format="1">
  <advance width="280"/>
  <unicode hex="002E"/>
  <outline>
    <contour>
      <point x="96" y="151"/>
      <point x="60" y="116"/>
      <point x="60" y="72" type="curve" smooth="yes"/>
      <point x="60" y="27"/>
      <point x="96" y="-8"/>
      <point x="140" y="-8" type="curve" smooth="yes"/>
      <point x="185" y="-8"/>
      <point x="220" y="27"/>
      <point x="220" y="72" type="curve" smooth="yes"/>
      <point x="220" y="116"/>
      <point x="185" y="151"/>
      <point x="140" y="151" type="curve" smooth="yes"/>
    </contour>
  </outline>
</glyph>
<glyph name="slash" format="1">
  <advance width="553"/>
  <unicode hex="002F"/>
  <outline>
    <contour>
      <point x="23" y="-120" type="line"/>
      <point x="118" y="-120" type="line"/>
      <point x="530" y="860" type="line"/>
      <point x="436" y="860" type="line"/>
    </contour>
  </outline>
</glyph>
<glyph name="zero" format="1">
  <advance width="632"/>
  <unicode hex="0030"/>
  <outline>
    <contour>
      <point x="37" y="178"/>
      <point x="136" y="-16"/>
      <point x="316" y="-16" type="curve"/>
      <point x="496" y="-16"/>
      <point x="595" y="178"/>
      <point x="595" y="412" type="curve"/>
      <point x="595" y="656"/>
      <point x="496" y="840"/>
      <point x="316" y="840" type="curve"/>
      <point x="136" y="840"/>
      <point x="37" y="656"/>
      <point x="37" y="412" type="curve"/>
    </contour>
    <contour>
      <point x="135" y="634"/>
      <point x="208" y="758"/>
      <point x="316" y="758" type="curve"/>
      <point x="424" y="758"/>
      <point x="497" y="634"/>
      <point x="497" y="412" type="curve"/>
      <point x="497" y="200"/>
      <point x="424" y="66"/>
      <point x="316" y="66" type="curve"/>
      <point x="208" y="66"/>
      <point x="135" y="200"/>
      <point x="135" y="412" type="curve"/>
    </contour>
  </outline>
</glyph>
<glyph name="one" format="1">
  <advance width="336"/>
  <unicode hex="0031"/>
  <outline>
    <contour>
      <point x="179" y="0" type="line"/>
      <point x="271" y="0" type="line"/>
      <point x="271" y="825" type="line"/>
      <point x="203" y="825" type="line"/>
      <point x="32" y="727" type="line"/>
      <point x="32" y="625" type="line"/>
      <point x="179" y="705" type="line"/>
    </contour>
  </outline>
</glyph>
<glyph name="two" format="1">
  <advance width="668"/>
  <unicode hex="0032"/>
  <outline>
    <contour>
      <point x="449" y="758"/>
      <point x="517" y="698"/>
      <point x="517" y="606" type="curve" smooth="yes"/>
      <point x="517" y="371"/>
      <point x="60" y="35"/>
      <point x="60" y="35" type="curve"/>
      <point x="60" y="0" type="line"/>
      <point x="633" y="0" type="line"/>
      <point x="633" y="82" type="line"/>
      <point x="229" y="82" type="line" smooth="yes"/>
      <point x="229" y="82"/>
      <point x="615" y="356"/>
      <point x="615" y="607" type="curve" smooth="yes"/>
      <point x="615" y="753"/>
      <point x="514" y="840"/>
      <point x="361" y="840" type="curve" smooth="yes"/>
      <point x="131" y="840"/>
      <point x="72" y="611"/>
      <point x="72" y="611" type="curve"/>
      <point x="158" y="570" type="line"/>
      <point x="158" y="570"/>
      <point x="206" y="758"/>
      <point x="360" y="758" type="curve" smooth="yes"/>
    </contour>
  </outline>
</glyph>
<glyph name="three" format="1">
  <advance width="636"/>
  <unicode hex="0033"/>
  <outline>
    <contour>
      <point x="149" y="617" type="line"/>
      <point x="149" y="617"/>
      <point x="187" y="758"/>
      <point x="319" y="758" type="curve" smooth="yes"/>
      <point x="405" y="758"/>
      <point x="467" y="699"/>
      <point x="467" y="624" type="curve" smooth="yes"/>
      <point x="467" y="546"/>
      <point x="419" y="479"/>
      <point x="305" y="470" type="curve"/>
      <point x="282" y="470" type="line"/>
      <point x="282" y="398" type="line"/>
      <point x="282" y="398"/>
      <point x="305" y="401"/>
      <point x="322" y="401" type="curve" smooth="yes"/>
      <point x="417" y="401"/>
      <point x="503" y="329"/>
      <point x="503" y="234" type="curve" smooth="yes"/>
      <point x="503" y="136"/>
      <point x="428" y="67"/>
      <point x="322" y="67" type="curve" smooth="yes"/>
      <point x="205" y="67"/>
      <point x="144" y="148"/>
      <point x="129" y="237" type="curve"/>
      <point x="40" y="193" type="line"/>
      <point x="40" y="193"/>
      <point x="88" y="-15"/>
      <point x="326" y="-15" type="curve" smooth="yes"/>
      <point x="483" y="-15"/>
      <point x="601" y="91"/>
      <point x="601" y="234" type="curve" smooth="yes"/>
      <point x="601" y="347"/>
      <point x="529" y="414"/>
      <point x="456" y="445" type="curve"/>
      <point x="524" y="485"/>
      <point x="565" y="550"/>
      <point x="565" y="623" type="curve" smooth="yes"/>
      <point x="565" y="752"/>
      <point x="451" y="840"/>
      <point x="329" y="840" type="curve" smooth="yes"/>
      <point x="122" y="840"/>
      <point x="65" y="652"/>
      <point x="65" y="652" type="curve"/>
    </contour>
  </outline>
</glyph>
<glyph name="four" format="1">
  <advance width="730"/>
  <unicode hex="34"/>
  <outline>
    <contour>
      <point x="435" y="825" type="line"/>
      <point x="39" y="230" type="line"/>
      <point x="39" y="174" type="line"/>
      <point x="445" y="174" type="line"/>
      <point x="445" y="0" type="line"/>
      <point x="621" y="0" type="line"/>
      <point x="621" y="174" type="line"/>
      <point x="717" y="174" type="line"/>
      <point x="717" y="339" type="line"/>
      <point x="621" y="339" type="line"/>
      <point x="621" y="825" type="line"/>
    </contour>
    <contour>
      <point x="296" y="339" type="line"/>
      <point x="443" y="574" type="line"/>
      <point x="445" y="574" type="line"/>
      <point x="445" y="339" type="line"/>
    </contour>
  </outline>
</glyph>
<glyph name="five" format="1">
  <advance width="621"/>
  <unicode hex="0035"/>
  <outline>
    <contour>
      <point x="40" y="173" type="line"/>
      <point x="40" y="173"/>
      <point x="100" y="-15"/>
      <point x="315" y="-15" type="curve" smooth="yes"/>
      <point x="466" y="-15"/>
      <point x="586" y="110"/>
      <point x="586" y="268" type="curve" smooth="yes"/>
      <point x="586" y="462"/>
      <point x="431" y="545"/>
      <point x="304" y="545" type="curve" smooth="yes"/>
      <point x="264" y="545"/>
      <point x="246" y="542"/>
      <point x="223" y="537" type="curve"/>
      <point x="255" y="742" type="line"/>
      <point x="534" y="742" type="line"/>
      <point x="534" y="825" type="line"/>
      <point x="173" y="825" type="line"/>
      <point x="111" y="427" type="line"/>
      <point x="181" y="457"/>
      <point x="222" y="463"/>
      <point x="270" y="463" type="curve" smooth="yes"/>
      <point x="386" y="463"/>
      <point x="488" y="395"/>
      <point x="488" y="260" type="curve" smooth="yes"/>
      <point x="488" y="149"/>
      <point x="411" y="67"/>
      <point x="308" y="67" type="curve" smooth="yes"/>
      <point x="202" y="67"/>
      <point x="133" y="148"/>
      <point x="124" y="214" type="curve"/>
    </contour>
  </outline>
</glyph>
<glyph name="six" format="1">
  <advance width="630"/>
  <unicode hex="0036"/>
  <outline>
    <contour>
      <point x="366" y="825" type="line"/>
      <point x="172" y="593" type="line" smooth="yes"/>
      <point x="78" y="480"/>
      <point x="25" y="393"/>
      <point x="25" y="271" type="curve"/>
      <point x="25" y="122"/>
      <point x="139" y="-15"/>
      <point x="312" y="-15" type="curve" smooth="yes"/>
      <point x="494" y="-15"/>
      <point x="600" y="122"/>
      <point x="600" y="274" type="curve" smooth="yes"/>
      <point x="600" y="457"/>
      <point x="447" y="547"/>
      <point x="340" y="547" type="curve" smooth="yes"/>
      <point x="295" y="547"/>
      <point x="265" y="540"/>
      <point x="238" y="532" type="curve"/>
      <point x="492" y="825" type="line"/>
    </contour>
    <contour>
      <point x="123" y="363"/>
      <point x="198" y="463"/>
      <point x="317" y="463" type="curve" smooth="yes"/>
      <point x="420" y="463"/>
      <point x="502" y="382"/>
      <point x="502" y="260" type="curve" smooth="yes"/>
      <point x="502" y="145"/>
      <point x="420" y="67"/>
      <point x="315" y="67" type="curve" smooth="yes"/>
      <point x="201" y="67"/>
      <point x="123" y="154"/>
      <point x="123" y="265" type="curve" smooth="yes"/>
    </contour>
  </outline>
</glyph>
<glyph name="seven" format="1">
  <advance width="566"/>
  <unicode hex="0037"/>
  <outline>
    <contour>
      <point x="43" y="742" type="line"/>
      <point x="423" y="742" type="line"/>
      <point x="25" y="0" type="line"/>
      <point x="137" y="0" type="line"/>
      <point x="558" y="794" type="line"/>
      <point x="558" y="825" type="line"/>
      <point x="43" y="825" type="line"/>
    </contour>
  </outline>
</glyph>
<glyph name="eight" format="1">
  <advance width="630"/>
  <unicode hex="0038"/>
  <outline>
    <contour>
      <point x="552" y="764"/>
      <point x="432" y="840"/>
      <point x="315" y="840" type="curve" smooth="yes"/>
      <point x="198" y="840"/>
      <point x="78" y="764"/>
      <point x="78" y="620" type="curve" smooth="yes"/>
      <point x="78" y="538"/>
      <point x="124" y="480"/>
      <point x="198" y="443" type="curve"/>
      <point x="115" y="404"/>
      <point x="45" y="329"/>
      <point x="45" y="212" type="curve" smooth="yes"/>
      <point x="45" y="91"/>
      <point x="152" y="-15"/>
      <point x="315" y="-15" type="curve" smooth="yes"/>
      <point x="478" y="-15"/>
      <point x="585" y="91"/>
      <point x="585" y="212" type="curve" smooth="yes"/>
      <point x="585" y="329"/>
      <point x="515" y="404"/>
      <point x="432" y="443" type="curve"/>
      <point x="506" y="480"/>
      <point x="552" y="538"/>
      <point x="552" y="620" type="curve" smooth="yes"/>
    </contour>
    <contour>
      <point x="143" y="326"/>
      <point x="225" y="392"/>
      <point x="315" y="392" type="curve" smooth="yes"/>
      <point x="405" y="392"/>
      <point x="487" y="326"/>
      <point x="487" y="222" type="curve" smooth="yes"/>
      <point x="487" y="130"/>
      <point x="409" y="67"/>
      <point x="315" y="67" type="curve" smooth="yes"/>
      <point x="221" y="67"/>
      <point x="143" y="130"/>
      <point x="143" y="222" type="curve" smooth="yes"/>
    </contour>
    <contour>
      <point x="454" y="541"/>
      <point x="392" y="486"/>
      <point x="315" y="486" type="curve" smooth="yes"/>
      <point x="238" y="486"/>
      <point x="176" y="541"/>
      <point x="176" y="622" type="curve" smooth="yes"/>
      <point x="176" y="701"/>
      <point x="235" y="758"/>
      <point x="315" y="758" type="curve" smooth="yes"/>
      <point x="395" y="758"/>
      <point x="454" y="701"/>
      <point x="454" y="622" type="curve" smooth="yes"/>
    </contour>
  </outline>
</glyph>
<glyph name="nine" format="1">
  <advance width="685"/>
  <unicode hex="39"/>
  <outline>
    <contour>
      <point x="107" y="-15" type="line"/>
      <point x="350" y="268" type="line"/>
      <point x="350" y="268"/>
      <point x="329" y="256"/>
      <point x="291" y="256" type="curve" smooth="yes"/>
      <point x="178" y="256"/>
      <point x="28" y="353"/>
      <point x="28" y="545" type="curve" smooth="yes"/>
      <point x="28" y="740"/>
      <point x="185" y="825"/>
      <point x="334" y="825" type="curve" smooth="yes"/>
      <point x="519" y="825"/>
      <point x="663" y="703"/>
      <point x="663" y="545" type="curve" smooth="yes"/>
      <point x="663" y="400"/>
      <point x="619" y="333"/>
      <point x="533" y="216" type="curve"/>
      <point x="339" y="-15" type="line"/>
    </contour>
    <contour>
      <point x="468" y="545" type="line"/>
      <point x="468" y="617"/>
      <point x="416" y="670"/>
      <point x="343" y="670" type="curve" smooth="yes"/>
      <point x="270" y="670"/>
      <point x="216" y="617"/>
      <point x="216" y="545" type="curve" smooth="yes"/>
      <point x="216" y="471"/>
      <point x="272" y="417"/>
      <point x="343" y="417" type="curve" smooth="yes"/>
      <point x="412" y="417"/>
      <point x="468" y="471"/>
      <point x="468" y="545" type="curve"/>
    </contour>
  </outline>
</glyph>
<glyph name="colon" format="1">
  <advance width="280"/>
  <unicode hex="003A"/>
  <outline>
    <contour>
      <point x="96" y="155"/>
      <point x="60" y="120"/>
      <point x="60" y="76" type="curve" smooth="yes"/>
      <point x="60" y="31"/>
      <point x="96" y="-4"/>
      <point x="140" y="-4" type="curve" smooth="yes"/>
      <point x="185" y="-4"/>
      <point x="220" y="31"/>
      <point x="220" y="76" type="curve" smooth="yes"/>
      <point x="220" y="120"/>
      <point x="185" y="155"/>
      <point x="140" y="155" type="curve" smooth="yes"/>
    </contour>
    <contour>
      <point x="96" y="495"/>
      <point x="60" y="460"/>
      <point x="60" y="416" type="curve" smooth="yes"/>
      <point x="60" y="371"/>
      <point x="96" y="336"/>
      <point x="140" y="336" type="curve" smooth="yes"/>
      <point x="185" y="336"/>
      <point x="220" y="371"/>
      <point x="220" y="416" type="curve" smooth="yes"/>
      <point x="220" y="460"/>
      <point x="185" y="495"/>
      <point x="140" y="495" type="curve" smooth="yes"/>
    </contour>
  </outline>
</glyph>
<glyph name="semicolon" format="1">
  <advance width="286"/>
  <unicode hex="003B"/>
  <outline>
    <contour>
      <point x="100" y="495"/>
      <point x="64" y="460"/>
      <point x="64" y="416" type="curve" smooth="yes"/>
      <point x="64" y="371"/>
      <point x="100" y="336"/>
      <point x="144" y="336" type="curve" smooth="yes"/>
      <point x="189" y="336"/>
      <point x="224" y="371"/>
      <point x="224" y="416" type="curve" smooth="yes"/>
      <point x="224" y="460"/>
      <point x="189" y="495"/>
      <point x="144" y="495" type="curve" smooth="yes"/>
    </contour>
    <contour>
      <point x="189" y="151"/>
      <point x="226" y="117"/>
      <point x="226" y="62" type="curve" smooth="yes"/>
      <point x="226" y="10"/>
      <point x="186" y="-78"/>
      <point x="92" y="-161" type="curve"/>
      <point x="60" y="-134" type="line"/>
      <point x="82" y="-110"/>
      <point x="117" y="-57"/>
      <point x="123" y="-3" type="curve"/>
      <point x="82" y="10"/>
      <point x="64" y="39"/>
      <point x="64" y="73" type="curve" smooth="yes"/>
      <point x="64" y="113"/>
      <point x="99" y="151"/>
      <point x="141" y="151" type="curve" smooth="yes"/>
    </contour>
  </outline>
</glyph>
<glyph name="less" format="1">
  <advance width="596"/>
  <unicode hex="003C"/>
  <outline>
    <contour>
      <point x="541" y="178" type="line"/>
      <point x="541" y="277" type="line"/>
      <point x="163" y="415" type="line"/>
      <point x="541" y="555" type="line"/>
      <point x="541" y="654" type="line"/>
      <point x="60" y="458" type="line"/>
      <point x="60" y="374" type="line"/>
    </contour>
  </outline>
</glyph>
<glyph name="equal" format="1">
  <advance width="573"/>
  <unicode hex="003D"/>
  <outline>
    <contour>
      <point x="513" y="451" type="line"/>
      <point x="513" y="524" type="line"/>
      <point x="60" y="524" type="line"/>
      <point x="60" y="451" type="line"/>
    </contour>
    <contour>
      <point x="513" y="305" type="line"/>
      <point x="513" y="378" type="line"/>
      <point x="60" y="378" type="line"/>
      <point x="60" y="305" type="line"/>
    </contour>
  </outline>
</glyph>
<glyph name="greater" format="1">
  <advance width="596"/>
  <unicode hex="003E"/>
  <outline>
    <contour>
      <point x="536" y="374" type="line"/>
      <point x="536" y="458" type="line"/>
      <point x="55" y="654" type="line"/>
      <point x="55" y="555" type="line"/>
      <point x="433" y="415" type="line"/>
      <point x="55" y="277" type="line"/>
      <point x="55" y="178" type="line"/>
    </contour>
  </outline>
</glyph>
<glyph name="question" format="1">
  <advance width="579"/>
  <unicode hex="003F"/>
  <outline>
    <contour>
      <point x="118" y="607" type="line"/>
      <point x="129" y="659"/>
      <point x="182" y="758"/>
      <point x="300" y="758" type="curve" smooth="yes"/>
      <point x="385" y="758"/>
      <point x="441" y="710"/>
      <point x="441" y="637" type="curve" smooth="yes"/>
      <point x="441" y="557"/>
      <point x="395" y="513"/>
      <point x="289" y="455" type="curve" smooth="yes"/>
      <point x="249" y="433"/>
      <point x="233" y="404"/>
      <point x="233" y="375" type="curve" smooth="yes"/>
      <point x="233" y="230" type="line"/>
      <point x="325" y="230" type="line"/>
      <point x="325" y="337" type="line" smooth="yes"/>
      <point x="325" y="363"/>
      <point x="336" y="378"/>
      <point x="363" y="394" type="curve" smooth="yes"/>
      <point x="478" y="462"/>
      <point x="539" y="523"/>
      <point x="539" y="636" type="curve" smooth="yes"/>
      <point x="539" y="742"/>
      <point x="453" y="841"/>
      <point x="293" y="840" type="curve" smooth="yes"/>
      <point x="88" y="839"/>
      <point x="35" y="650"/>
      <point x="35" y="645" type="curve"/>
    </contour>
    <contour>
      <point x="235" y="151"/>
      <point x="199" y="116"/>
      <point x="199" y="72" type="curve" smooth="yes"/>
      <point x="199" y="27"/>
      <point x="235" y="-8"/>
      <point x="279" y="-8" type="curve" smooth="yes"/>
      <point x="324" y="-8"/>
      <point x="359" y="27"/>
      <point x="359" y="72" type="curve" smooth="yes"/>
      <point x="359" y="116"/>
      <point x="324" y="151"/>
      <point x="279" y="151" type="curve" smooth="yes"/>
    </contour>
  </outline>
</glyph>
<glyph name="at" format="1">
  <advance width="921"/>
  <unicode hex="0040"/>
  <outline>
    <contour>
      <point x="677" y="302"/>
      <point x="648" y="332"/>
      <point x="648" y="393" type="curve" smooth="yes"/>
      <point x="648" y="598" type="line"/>
      <point x="564" y="598" type="line"/>
      <point x="564" y="555" type="line"/>
      <point x="537" y="587"/>
      <point x="496" y="609"/>
      <point x="440" y="609" type="curve" smooth="yes"/>
      <point x="343" y="609"/>
      <point x="257" y="517"/>
      <point x="257" y="405" type="curve" smooth="yes"/>
      <point x="257" y="287"/>
      <point x="341" y="202"/>
      <point x="440" y="202" type="curve" smooth="yes"/>
      <point x="524" y="202"/>
      <point x="563" y="226"/>
      <point x="602" y="276" type="curve"/>
      <point x="632" y="238"/>
      <point x="681" y="222"/>
      <point x="723" y="222" type="curve" smooth="yes"/>
      <point x="809" y="222"/>
      <point x="899" y="293"/>
      <point x="899" y="446" type="curve" smooth="yes"/>
      <point x="899" y="664"/>
      <point x="705" y="839"/>
      <point x="473" y="839" type="curve" smooth="yes"/>
      <point x="229" y="839"/>
      <point x="23" y="666"/>
      <point x="23" y="412" type="curve" smooth="yes"/>
      <point x="23" y="166"/>
      <point x="233" y="-16"/>
      <point x="457" y="-16" type="curve" smooth="yes"/>
      <point x="702" y="-16"/>
      <point x="781" y="124"/>
      <point x="781" y="124" type="curve"/>
      <point x="708" y="170" type="line"/>
      <point x="708" y="170"/>
      <point x="642" y="67"/>
      <point x="465" y="67" type="curve" smooth="yes"/>
      <point x="268" y="67"/>
      <point x="121" y="225"/>
      <point x="121" y="412" type="curve" smooth="yes"/>
      <point x="121" y="611"/>
      <point x="276" y="756"/>
      <point x="473" y="756" type="curve" smooth="yes"/>
      <point x="655" y="756"/>
      <point x="809" y="624"/>
      <point x="809" y="446" type="curve" smooth="yes"/>
      <point x="809" y="351"/>
      <point x="784" y="302"/>
      <point x="723" y="302" type="curve" smooth="yes"/>
    </contour>
    <contour>
      <point x="344" y="485"/>
      <point x="390" y="529"/>
      <point x="457" y="529" type="curve" smooth="yes"/>
      <point x="520" y="529"/>
      <point x="565" y="468"/>
      <point x="565" y="400" type="curve" smooth="yes"/>
      <point x="565" y="331"/>
      <point x="525" y="282"/>
      <point x="457" y="282" type="curve" smooth="yes"/>
      <point x="390" y="282"/>
      <point x="344" y="331"/>
      <point x="344" y="406" type="curve" smooth="yes"/>
    </contour>
  </outline>
</glyph>
<glyph name="A" format="1">
  <advance width="932"/>
  <unicode hex="41"/>
  <outline>
    <contour>
      <point x="582" y="860" type="line"/>
      <point x="683" y="582"/>
      <point x="785" y="280"/>
      <point x="910" y="27" type="curve"/>
      <point x="860" y="2"/>
      <point x="733" y="27"/>
      <point x="658" y="2" type="curve"/>
      <point x="632" y="52"/>
      <point x="608" y="103"/>
      <point x="608" y="154" type="curve"/>
      <point x="506" y="154"/>
      <point x="381" y="179"/>
      <point x="280" y="154" type="curve"/>
      <point x="254" y="103"/>
      <point x="254" y="52"/>
      <point x="229" y="2" type="curve"/>
      <point x="127" y="2"/>
      <point x="103" y="2"/>
      <point x="2" y="2" type="curve"/>
      <point x="103" y="304"/>
      <point x="229" y="556"/>
      <point x="330" y="860" type="curve"/>
      <point x="406" y="860"/>
      <point x="480" y="860"/>
      <point x="582" y="860" type="curve"/>
    </contour>
    <contour>
      <point x="356" y="330" type="line"/>
      <point x="406" y="330"/>
      <point x="455" y="330"/>
      <point x="531" y="330" type="curve"/>
      <point x="506" y="405"/>
      <point x="480" y="480"/>
      <point x="455" y="556" type="curve"/>
      <point x="431" y="556"/>
      <point x="431" y="582"/>
      <point x="431" y="582" type="curve"/>
      <point x="406" y="480"/>
      <point x="381" y="405"/>
      <point x="356" y="330" type="curve"/>
    </contour>
  </outline>
</glyph>
<glyph name="B" format="1">
  <advance width="666"/>
  <unicode hex="42"/>
  <outline>
    <contour>
      <point x="60" y="0" type="line"/>
      <point x="373" y="0" type="line" smooth="yes"/>
      <point x="544" y="0"/>
      <point x="643" y="94"/>
      <point x="643" y="230" type="curve" smooth="yes"/>
      <point x="643" y="363"/>
      <point x="570" y="420"/>
      <point x="467" y="438" type="curve"/>
      <point x="537" y="474"/>
      <point x="570" y="539"/>
      <point x="570" y="615" type="curve" smooth="yes"/>
      <point x="570" y="772"/>
      <point x="458" y="825"/>
      <point x="316" y="825" type="curve" smooth="yes"/>
      <point x="60" y="825" type="line"/>
    </contour>
    <contour>
      <point x="248" y="340" type="line"/>
      <point x="307" y="340" type="line" smooth="yes"/>
      <point x="396" y="340"/>
      <point x="440" y="312"/>
      <point x="440" y="237" type="curve" smooth="yes"/>
      <point x="440" y="173"/>
      <point x="396" y="145"/>
      <point x="307" y="145" type="curve" smooth="yes"/>
      <point x="248" y="145" type="line"/>
    </contour>
    <contour>
      <point x="248" y="680" type="line"/>
      <point x="263" y="680" type="line" smooth="yes"/>
      <point x="345" y="680"/>
      <point x="384" y="654"/>
      <point x="384" y="596" type="curve" smooth="yes"/>
      <point x="384" y="528"/>
      <point x="344" y="502"/>
      <point x="263" y="502" type="curve" smooth="yes"/>
      <point x="248" y="502" type="line"/>
    </contour>
  </outline>
</glyph>
<glyph name="C" format="1">
  <advance width="729"/>
  <unicode hex="43"/>
  <outline>
    <contour>
      <point x="638" y="609" type="line"/>
      <point x="716" y="774" type="line"/>
    </contour>
    <contour>
      <point x="216" y="411" type="line"/>
      <point x="216" y="521"/>
      <point x="297" y="651"/>
      <point x="487" y="651" type="curve" smooth="yes"/>
      <point x="583" y="651"/>
      <point x="649" y="600"/>
      <point x="649" y="600" type="curve"/>
      <point x="731" y="764" type="line"/>
      <point x="731" y="764"/>
      <point x="639" y="840"/>
      <point x="460" y="840" type="curve" smooth="yes"/>
      <point x="226" y="840"/>
      <point x="13" y="648"/>
      <point x="13" y="411" type="curve"/>
    </contour>
    <contour>
      <point x="13" y="414" type="line"/>
      <point x="13" y="177"/>
      <point x="226" y="-15"/>
      <point x="460" y="-15" type="curve" smooth="yes"/>
      <point x="639" y="-15"/>
      <point x="731" y="61"/>
      <point x="731" y="61" type="curve"/>
      <point x="649" y="225" type="line"/>
      <point x="649" y="225"/>
      <point x="583" y="174"/>
      <point x="487" y="174" type="curve" smooth="yes"/>
      <point x="297" y="174"/>
      <point x="216" y="304"/>
      <point x="216" y="414" type="curve"/>
    </contour>
  </outline>
</glyph>
<glyph name="D" format="1">
  <advance width="719"/>
  <unicode hex="0044"/>
  <outline>
    <contour>
      <point x="65" y="0" type="line"/>
      <point x="238" y="0" type="line" smooth="yes"/>
      <point x="475" y="0"/>
      <point x="674" y="173"/>
      <point x="674" y="410" type="curve" smooth="yes"/>
      <point x="674" y="654"/>
      <point x="464" y="825"/>
      <point x="238" y="825" type="curve" smooth="yes"/>
      <point x="65" y="825" type="line"/>
    </contour>
    <contour>
      <point x="235" y="740" type="line" smooth="yes"/>
      <point x="425" y="740"/>
      <point x="576" y="591"/>
      <point x="576" y="410" type="curve" smooth="yes"/>
      <point x="576" y="235"/>
      <point x="435" y="85"/>
      <point x="235" y="85" type="curve" smooth="yes"/>
      <point x="157" y="85" type="line"/>
      <point x="157" y="740" type="line"/>
    </contour>
  </outline>
</glyph>
<glyph name="E" format="1">
  <advance width="547"/>
  <unicode hex="0045"/>
  <outline>
    <contour>
      <point x="65" y="0" type="line"/>
      <point x="507" y="0" type="line"/>
      <point x="507" y="83" type="line"/>
      <point x="157" y="83" type="line"/>
      <point x="157" y="379" type="line"/>
      <point x="487" y="379" type="line"/>
      <point x="487" y="462" type="line"/>
      <point x="157" y="462" type="line"/>
      <point x="157" y="742" type="line"/>
      <point x="507" y="742" type="line"/>
      <point x="507" y="825" type="line"/>
      <point x="65" y="825" type="line"/>
    </contour>
  </outline>
</glyph>
<glyph name="F" format="1">
  <advance width="549"/>
  <unicode hex="0046"/>
  <outline>
    <contour>
      <point x="65" y="0" type="line"/>
      <point x="157" y="0" type="line"/>
      <point x="157" y="379" type="line"/>
      <point x="489" y="379" type="line"/>
      <point x="489" y="462" type="line"/>
      <point x="157" y="462" type="line"/>
      <point x="157" y="742" type="line"/>
      <point x="517" y="742" type="line"/>
      <point x="517" y="825" type="line"/>
      <point x="65" y="825" type="line"/>
    </contour>
  </outline>
</glyph>
<glyph name="G" format="1">
  <advance width="833"/>
  <unicode hex="47"/>
  <outline>
    <contour>
      <point x="415" y="317" type="line"/>
      <point x="605" y="317" type="line"/>
      <point x="605" y="216"/>
      <point x="516" y="158"/>
      <point x="426" y="158" type="curve" smooth="yes"/>
      <point x="310" y="158"/>
      <point x="216" y="272"/>
      <point x="216" y="412" type="curve" smooth="yes"/>
      <point x="216" y="555"/>
      <point x="310" y="670"/>
      <point x="426" y="670" type="curve" smooth="yes"/>
      <point x="499" y="670"/>
      <point x="562" y="641"/>
      <point x="610" y="564" type="curve"/>
      <point x="733" y="699" type="line"/>
      <point x="661" y="786"/>
      <point x="560" y="840"/>
      <point x="415" y="840" type="curve" smooth="yes"/>
      <point x="183" y="840"/>
      <point x="13" y="649"/>
      <point x="13" y="412" type="curve" smooth="yes"/>
      <point x="13" y="176"/>
      <point x="193" y="-15"/>
      <point x="415" y="-15" type="curve" smooth="yes"/>
      <point x="577" y="-15"/>
      <point x="751" y="74"/>
      <point x="796" y="283" type="curve"/>
      <point x="796" y="412" type="line"/>
      <point x="796" y="462" type="line"/>
      <point x="415" y="462" type="line"/>
    </contour>
  </outline>
</glyph>
<glyph name="H" format="1">
  <advance width="682"/>
  <unicode hex="0048"/>
  <outline>
    <contour>
      <point x="525" y="0" type="line"/>
      <point x="617" y="0" type="line"/>
      <point x="617" y="825" type="line"/>
      <point x="525" y="825" type="line"/>
      <point x="525" y="462" type="line"/>
      <point x="157" y="462" type="line"/>
      <point x="157" y="825" type="line"/>
      <point x="65" y="825" type="line"/>
      <point x="65" y="0" type="line"/>
      <point x="157" y="0" type="line"/>
      <point x="157" y="379" type="line"/>
      <point x="525" y="379" type="line"/>
    </contour>
  </outline>
</glyph>
<glyph name="I" format="1">
  <advance width="222"/>
  <unicode hex="0049"/>
  <outline>
    <contour>
      <point x="65" y="0" type="line"/>
      <point x="157" y="0" type="line"/>
      <point x="157" y="825" type="line"/>
      <point x="65" y="825" type="line"/>
    </contour>
  </outline>
</glyph>
<glyph name="J" format="1">
  <advance width="454"/>
  <unicode hex="004A"/>
  <outline>
    <contour>
      <point x="389" y="825" type="line"/>
      <point x="297" y="825" type="line"/>
      <point x="297" y="235" type="line" smooth="yes"/>
      <point x="297" y="131"/>
      <point x="265" y="72"/>
      <point x="174" y="72" type="curve" smooth="yes"/>
      <point x="71" y="72"/>
      <point x="19" y="149"/>
      <point x="19" y="149" type="curve"/>
      <point x="-12" y="68" type="line"/>
      <point x="-12" y="68"/>
      <point x="43" y="-15"/>
      <point x="179" y="-15" type="curve" smooth="yes"/>
      <point x="301" y="-15"/>
      <point x="389" y="51"/>
      <point x="389" y="234" type="curve" smooth="yes"/>
    </contour>
  </outline>
</glyph>
<glyph name="K" format="1">
  <advance width="605"/>
  <unicode hex="004B"/>
  <outline>
    <contour>
      <point x="589" y="825" type="line"/>
      <point x="471" y="825" type="line"/>
      <point x="157" y="440" type="line"/>
      <point x="157" y="825" type="line"/>
      <point x="65" y="825" type="line"/>
      <point x="65" y="0" type="line"/>
      <point x="157" y="0" type="line"/>
      <point x="157" y="386" type="line"/>
      <point x="496" y="0" type="line"/>
      <point x="617" y="0" type="line"/>
      <point x="246" y="417" type="line"/>
    </contour>
  </outline>
</glyph>
<glyph name="L" format="1">
  <advance width="522"/>
  <unicode hex="004C"/>
  <outline>
    <contour>
      <point x="65" y="0" type="line"/>
      <point x="507" y="0" type="line"/>
      <point x="507" y="83" type="line"/>
      <point x="157" y="83" type="line"/>
      <point x="157" y="825" type="line"/>
      <point x="65" y="825" type="line"/>
    </contour>
  </outline>
</glyph>
<glyph name="M" format="1">
  <advance width="824"/>
  <unicode hex="004D"/>
  <outline>
    <contour>
      <point x="126" y="0" type="line"/>
      <point x="181" y="597" type="line"/>
      <point x="183" y="597" type="line"/>
      <point x="386" y="5" type="line"/>
      <point x="438" y="5" type="line"/>
      <point x="641" y="595" type="line"/>
      <point x="643" y="595" type="line"/>
      <point x="698" y="0" type="line"/>
      <point x="796" y="0" type="line"/>
      <point x="707" y="825" type="line"/>
      <point x="626" y="825" type="line"/>
      <point x="412" y="183" type="line"/>
      <point x="198" y="825" type="line"/>
      <point x="117" y="825" type="line"/>
      <point x="28" y="0" type="line"/>
    </contour>
  </outline>
</glyph>
<glyph name="N" format="1">
  <advance width="737"/>
  <unicode hex="004E"/>
  <outline>
    <contour>
      <point x="587" y="0" type="line"/>
      <point x="680" y="0" type="line"/>
      <point x="680" y="825" type="line"/>
      <point x="588" y="825" type="line"/>
      <point x="588" y="161" type="line"/>
      <point x="586" y="161" type="line"/>
      <point x="162" y="825" type="line"/>
      <point x="57" y="825" type="line"/>
      <point x="57" y="0" type="line"/>
      <point x="149" y="0" type="line"/>
      <point x="149" y="682" type="line"/>
      <point x="151" y="682" type="line"/>
    </contour>
  </outline>
</glyph>
<glyph name="P" format="1">
  <advance width="608"/>
  <unicode hex="0050"/>
  <outline>
    <contour>
      <point x="65" y="0" type="line"/>
      <point x="157" y="0" type="line"/>
      <point x="157" y="343" type="line"/>
      <point x="263" y="343" type="line" smooth="yes"/>
      <point x="457" y="343"/>
      <point x="568" y="422"/>
      <point x="568" y="582" type="curve" smooth="yes"/>
      <point x="568" y="742"/>
      <point x="457" y="825"/>
      <point x="263" y="825" type="curve" smooth="yes"/>
      <point x="65" y="825" type="line"/>
    </contour>
    <contour>
      <point x="157" y="742" type="line"/>
      <point x="242" y="742" type="line" smooth="yes"/>
      <point x="406" y="742"/>
      <point x="470" y="692"/>
      <point x="470" y="582" type="curve" smooth="yes"/>
      <point x="470" y="472"/>
      <point x="406" y="426"/>
      <point x="242" y="426" type="curve" smooth="yes"/>
      <point x="157" y="426" type="line"/>
    </contour>
  </outline>
</glyph>
<glyph name="Q" format="1">
  <advance width="867"/>
  <unicode hex="51"/>
  <outline>
    <contour>
      <point x="226" y="413" type="line" smooth="yes"/>
      <point x="226" y="536"/>
      <point x="289" y="651"/>
      <point x="434" y="651" type="curve" smooth="yes"/>
      <point x="580" y="651"/>
      <point x="641" y="536"/>
      <point x="641" y="413" type="curve" smooth="yes"/>
      <point x="641" y="290"/>
      <point x="584" y="175"/>
      <point x="434" y="175" type="curve" smooth="yes"/>
      <point x="280" y="175"/>
      <point x="226" y="290"/>
      <point x="226" y="413" type="curve" smooth="yes"/>
    </contour>
    <contour>
      <point x="23" y="413" type="line" smooth="yes"/>
      <point x="23" y="172"/>
      <point x="190" y="-15"/>
      <point x="434" y="-15" type="curve" smooth="yes"/>
      <point x="671" y="-15"/>
      <point x="844" y="172"/>
      <point x="844" y="413" type="curve" smooth="yes"/>
      <point x="844" y="654"/>
      <point x="663" y="840"/>
      <point x="434" y="840" type="curve" smooth="yes"/>
      <point x="207" y="840"/>
      <point x="23" y="654"/>
      <point x="23" y="413" type="curve" smooth="yes"/>
    </contour>
    <contour>
      <point x="896" y="142" type="line"/>
      <point x="620" y="233"/>
      <point x="473" y="396"/>
      <point x="473" y="396" type="curve"/>
      <point x="388" y="298" type="line"/>
      <point x="431" y="246"/>
      <point x="560" y="63"/>
      <point x="813" y="-26" type="curve"/>
    </contour>
  </outline>
</glyph>
<glyph name="T" format="1">
  <advance width="552"/>
  <unicode hex="0054"/>
  <outline>
    <contour>
      <point x="230" y="0" type="line"/>
      <point x="322" y="0" type="line"/>
      <point x="322" y="742" type="line"/>
      <point x="537" y="742" type="line"/>
      <point x="537" y="825" type="line"/>
      <point x="15" y="825" type="line"/>
      <point x="15" y="742" type="line"/>
      <point x="230" y="742" type="line"/>
    </contour>
  </outline>
</glyph>
<glyph name="U" format="1">
  <advance width="724"/>
  <unicode hex="0055"/>
  <outline>
    <contour>
      <point x="572" y="298" type="line" smooth="yes"/>
      <point x="572" y="150"/>
      <point x="494" y="67"/>
      <point x="362" y="67" type="curve" smooth="yes"/>
      <point x="230" y="67"/>
      <point x="152" y="150"/>
      <point x="152" y="298" type="curve" smooth="yes"/>
      <point x="152" y="825" type="line"/>
      <point x="60" y="825" type="line"/>
      <point x="60" y="293" type="line" smooth="yes"/>
      <point x="60" y="89"/>
      <point x="172" y="-15"/>
      <point x="362" y="-15" type="curve" smooth="yes"/>
      <point x="552" y="-15"/>
      <point x="664" y="89"/>
      <point x="664" y="293" type="curve" smooth="yes"/>
      <point x="664" y="825" type="line"/>
      <point x="572" y="825" type="line"/>
    </contour>
  </outline>
</glyph>
<glyph name="V" format="1">
  <advance width="702"/>
  <unicode hex="0056"/>
  <outline>
    <contour>
      <point x="714" y="825" type="line"/>
      <point x="612" y="825" type="line"/>
      <point x="351" y="98" type="line"/>
      <point x="90" y="825" type="line"/>
      <point x="-12" y="825" type="line"/>
      <point x="297" y="0" type="line"/>
      <point x="405" y="0" type="line"/>
    </contour>
  </outline>
</glyph>
<glyph name="W" format="1">
  <advance width="1126"/>
  <unicode hex="57"/>
  <outline>
    <contour>
      <point x="1141" y="825" type="line"/>
      <point x="927" y="825" type="line"/>
      <point x="787" y="269" type="line"/>
      <point x="785" y="269" type="line"/>
      <point x="635" y="825" type="line"/>
      <point x="491" y="825" type="line"/>
      <point x="341" y="269" type="line"/>
      <point x="339" y="269" type="line"/>
      <point x="199" y="825" type="line"/>
      <point x="-15" y="825" type="line"/>
      <point x="220" y="0" type="line"/>
      <point x="434" y="0" type="line"/>
      <point x="563" y="453" type="line"/>
      <point x="692" y="0" type="line"/>
      <point x="906" y="0" type="line"/>
    </contour>
  </outline>
</glyph>
<glyph name="X" format="1">
  <advance width="708"/>
  <unicode hex="0058"/>
  <outline>
    <contour>
      <point x="690" y="825" type="line"/>
      <point x="574" y="825" type="line"/>
      <point x="354" y="518" type="line"/>
      <point x="135" y="825" type="line"/>
      <point x="18" y="825" type="line"/>
      <point x="293" y="451" type="line"/>
      <point x="-12" y="0" type="line"/>
      <point x="106" y="0" type="line"/>
      <point x="354" y="382" type="line"/>
      <point x="602" y="0" type="line"/>
      <point x="720" y="0" type="line"/>
      <point x="415" y="451" type="line"/>
    </contour>
  </outline>
</glyph>
<glyph name="Y" format="1">
  <advance width="642"/>
  <unicode hex="0059"/>
  <outline>
    <contour>
      <point x="275" y="0" type="line"/>
      <point x="367" y="0" type="line"/>
      <point x="367" y="388" type="line"/>
      <point x="654" y="825" type="line"/>
      <point x="538" y="825" type="line"/>
      <point x="321" y="475" type="line"/>
      <point x="104" y="825" type="line"/>
      <point x="-12" y="825" type="line"/>
      <point x="277" y="386" type="line"/>
    </contour>
  </outline>
</glyph>
<glyph name="Z" format="1">
  <advance width="690"/>
  <unicode hex="005A"/>
  <outline>
    <contour>
      <point x="94" y="742" type="line"/>
      <point x="494" y="742" type="line"/>
      <point x="30" y="0" type="line"/>
      <point x="650" y="0" type="line"/>
      <point x="650" y="83" type="line"/>
      <point x="188" y="83" type="line"/>
      <point x="653" y="825" type="line"/>
      <point x="94" y="825" type="line"/>
    </contour>
  </outline>
</glyph>
<glyph name="bracketleft" format="1">
  <advance width="342"/>
  <unicode hex="005B"/>
  <outline>
    <contour>
      <point x="282" y="-250" type="line"/>
      <point x="282" y="-184" type="line"/>
      <point x="143" y="-184" type="line"/>
      <point x="143" y="784" type="line"/>
      <point x="282" y="784" type="line"/>
      <point x="282" y="850" type="line"/>
      <point x="60" y="850" type="line"/>
      <point x="60" y="-250" type="line"/>
    </contour>
  </outline>
</glyph>
<glyph name="backslash" format="1">
  <advance width="552"/>
  <unicode hex="005C"/>
  <outline>
    <contour>
      <point x="117" y="860" type="line"/>
      <point x="23" y="860" type="line"/>
      <point x="435" y="0" type="line"/>
      <point x="529" y="0" type="line"/>
    </contour>
  </outline>
</glyph>
<glyph name="asciicircum" format="1">
  <advance width="436"/>
  <unicode hex="005E"/>
  <outline>
    <contour>
      <point x="262" y="820" type="line"/>
      <point x="174" y="820" type="line"/>
      <point x="-5" y="606" type="line"/>
      <point x="96" y="606" type="line"/>
      <point x="218" y="749" type="line"/>
      <point x="340" y="606" type="line"/>
      <point x="441" y="606" type="line"/>
    </contour>
  </outline>
</glyph>
<glyph name="underscore" format="1">
  <advance width="505"/>
  <unicode hex="005F"/>
  <outline>
    <contour>
      <point x="505" y="-80" type="line"/>
      <point x="505" y="-15" type="line"/>
      <point x="1" y="-15" type="line"/>
      <point x="1" y="-80" type="line"/>
    </contour>
  </outline>
</glyph>
<glyph name="grave" format="1">
  <advance width="388"/>
  <unicode hex="60"/>
  <outline>
    <contour>
      <point x="285" y="587" type="line"/>
      <point x="341" y="664" type="line"/>
      <point x="138" y="840" type="line"/>
      <point x="47" y="725" type="line"/>
    </contour>
  </outline>
</glyph>
<glyph name="b" format="1">
  <advance width="658"/>
  <unicode hex="0062"/>
  <outline>
    <contour>
      <point x="598" y="406"/>
      <point x="491" y="528"/>
      <point x="343" y="528" type="curve" smooth="yes"/>
      <point x="279" y="528"/>
      <point x="223" y="506"/>
      <point x="175" y="456" type="curve"/>
      <point x="175" y="860" type="line"/>
      <point x="88" y="860" type="line"/>
      <point x="88" y="0" type="line"/>
      <point x="173" y="0" type="line"/>
      <point x="173" y="63" type="line"/>
      <point x="174" y="63" type="line"/>
      <point x="216" y="13"/>
      <point x="279" y="-15"/>
      <point x="343" y="-15" type="curve" smooth="yes"/>
      <point x="491" y="-15"/>
      <point x="598" y="106"/>
      <point x="598" y="256" type="curve" smooth="yes"/>
    </contour>
    <contour>
      <point x="507" y="137"/>
      <point x="440" y="65"/>
      <point x="332" y="65" type="curve" smooth="yes"/>
      <point x="241" y="65"/>
      <point x="171" y="138"/>
      <point x="171" y="256" type="curve" smooth="yes"/>
      <point x="171" y="374"/>
      <point x="244" y="448"/>
      <point x="332" y="448" type="curve" smooth="yes"/>
      <point x="440" y="448"/>
      <point x="507" y="374"/>
      <point x="507" y="256" type="curve" smooth="yes"/>
    </contour>
  </outline>
</glyph>
<glyph name="c" format="1">
  <advance width="497"/>
  <unicode hex="63"/>
  <outline>
    <contour>
      <point x="332" y="383" type="line" smooth="yes"/>
      <point x="385" y="383"/>
      <point x="418" y="359"/>
      <point x="418" y="359" type="curve"/>
      <point x="478" y="480" type="line"/>
      <point x="478" y="480"/>
      <point x="420" y="528"/>
      <point x="306" y="528" type="curve" smooth="yes"/>
      <point x="157" y="528"/>
      <point x="22" y="406"/>
      <point x="22" y="255" type="curve"/>
      <point x="23" y="105"/>
      <point x="158" y="-15"/>
      <point x="306" y="-15" type="curve" smooth="yes"/>
      <point x="420" y="-15"/>
      <point x="478" y="31"/>
      <point x="478" y="31" type="curve"/>
      <point x="418" y="154" type="line"/>
      <point x="418" y="154"/>
      <point x="385" y="130"/>
      <point x="332" y="130" type="curve" smooth="yes"/>
      <point x="265" y="130"/>
      <point x="210" y="186"/>
      <point x="210" y="257" type="curve" smooth="yes"/>
      <point x="210" y="327"/>
      <point x="265" y="383"/>
      <point x="332" y="383" type="curve" smooth="yes"/>
    </contour>
  </outline>
</glyph>
<glyph name="e" format="1">
  <advance width="603"/>
  <unicode hex="65"/>
  <outline>
    <contour>
      <point x="206" y="232" type="line"/>
      <point x="578" y="232" type="line"/>
      <point x="579" y="238"/>
      <point x="579" y="249"/>
      <point x="579" y="256" type="curve" smooth="yes"/>
      <point x="579" y="436"/>
      <point x="460" y="528"/>
      <point x="304" y="528" type="curve" smooth="yes"/>
      <point x="149" y="528"/>
      <point x="22" y="406"/>
      <point x="22" y="256" type="curve" smooth="yes"/>
      <point x="22" y="107"/>
      <point x="149" y="-15"/>
      <point x="304" y="-15" type="curve" smooth="yes"/>
      <point x="418" y="-15"/>
      <point x="512" y="22"/>
      <point x="570" y="119" type="curve"/>
      <point x="442" y="183" type="line"/>
      <point x="399" y="137"/>
      <point x="374" y="126"/>
      <point x="317" y="126" type="curve" smooth="yes"/>
      <point x="272" y="126"/>
      <point x="206" y="153"/>
      <point x="206" y="232" type="curve"/>
    </contour>
    <contour>
      <point x="211" y="330" type="line"/>
      <point x="214" y="377"/>
      <point x="248" y="413"/>
      <point x="309" y="413" type="curve" smooth="yes"/>
      <point x="361" y="413"/>
      <point x="398" y="384"/>
      <point x="406" y="330" type="curve"/>
    </contour>
  </outline>
</glyph>
<glyph name="g" format="1">
  <advance width="658"/>
  <unicode hex="0067"/>
  <outline>
    <contour>
      <point x="97" y="-160" type="line"/>
      <point x="153" y="-231"/>
      <point x="209" y="-276"/>
      <point x="318" y="-277" type="curve"/>
      <point x="478" y="-275"/>
      <point x="575" y="-193"/>
      <point x="573" y="-20" type="curve"/>
      <point x="575" y="513" type="line"/>
      <point x="486" y="513" type="line"/>
      <point x="486" y="456" type="line"/>
      <point x="485" y="456" type="line"/>
      <point x="437" y="506"/>
      <point x="382" y="528"/>
      <point x="318" y="528" type="curve" smooth="yes"/>
      <point x="170" y="528"/>
      <point x="63" y="406"/>
      <point x="63" y="256" type="curve" smooth="yes"/>
      <point x="63" y="106"/>
      <point x="170" y="-15"/>
      <point x="318" y="-15" type="curve" smooth="yes"/>
      <point x="396" y="-15"/>
      <point x="458" y="18"/>
      <point x="488" y="58" type="curve"/>
      <point x="489" y="-7" type="line"/>
      <point x="488" y="-149"/>
      <point x="426" y="-197"/>
      <point x="318" y="-197" type="curve" smooth="yes"/>
      <point x="243" y="-197"/>
      <point x="203" y="-166"/>
      <point x="166" y="-124" type="curve"/>
    </contour>
    <contour>
      <point x="154" y="374"/>
      <point x="221" y="448"/>
      <point x="329" y="448" type="curve" smooth="yes"/>
      <point x="417" y="448"/>
      <point x="490" y="374"/>
      <point x="490" y="256" type="curve" smooth="yes"/>
      <point x="490" y="136"/>
      <point x="420" y="65"/>
      <point x="329" y="65" type="curve" smooth="yes"/>
      <point x="221" y="65"/>
      <point x="154" y="138"/>
      <point x="154" y="256" type="curve" smooth="yes"/>
    </contour>
  </outline>
</glyph>
<glyph name="h" format="1">
  <advance width="668"/>
  <unicode hex="0068"/>
  <outline>
    <contour>
      <point x="180" y="315" type="line" smooth="yes"/>
      <point x="180" y="363"/>
      <point x="241" y="448"/>
      <point x="358" y="448" type="curve" smooth="yes"/>
      <point x="445" y="448"/>
      <point x="499" y="397"/>
      <point x="499" y="290" type="curve" smooth="yes"/>
      <point x="499" y="0" type="line"/>
      <point x="586" y="0" type="line"/>
      <point x="586" y="338" type="line" smooth="yes"/>
      <point x="586" y="461"/>
      <point x="473" y="528"/>
      <point x="367" y="528" type="curve" smooth="yes"/>
      <point x="303" y="528"/>
      <point x="215" y="500"/>
      <point x="182" y="450" type="curve"/>
      <point x="180" y="450" type="line"/>
      <point x="180" y="860" type="line"/>
      <point x="93" y="860" type="line"/>
      <point x="93" y="0" type="line"/>
      <point x="180" y="0" type="line"/>
    </contour>
  </outline>
</glyph>
<glyph name="i" format="1">
  <advance width="292"/>
  <unicode hex="0069"/>
  <outline>
    <contour>
      <point x="195" y="0" type="line"/>
      <point x="108" y="0" type="line"/>
      <point x="108" y="513" type="line"/>
      <point x="195" y="513" type="line"/>
    </contour>
    <contour>
      <point x="119" y="774"/>
      <point x="93" y="748"/>
      <point x="93" y="715" type="curve" smooth="yes"/>
      <point x="93" y="683"/>
      <point x="119" y="657"/>
      <point x="152" y="657" type="curve" smooth="yes"/>
      <point x="184" y="657"/>
      <point x="210" y="683"/>
      <point x="210" y="715" type="curve" smooth="yes"/>
      <point x="210" y="748"/>
      <point x="184" y="774"/>
      <point x="152" y="774" type="curve" smooth="yes"/>
    </contour>
  </outline>
</glyph>
<glyph name="j" format="1">
  <advance width="309"/>
  <unicode hex="006A"/>
  <outline>
    <contour>
      <point x="206" y="-130" type="line" smooth="yes"/>
      <point x="206" y="-217"/>
      <point x="141" y="-275"/>
      <point x="63" y="-275" type="curve" smooth="yes"/>
      <point x="-2" y="-275"/>
      <point x="-49" y="-242"/>
      <point x="-49" y="-242" type="curve"/>
      <point x="-16" y="-175" type="line"/>
      <point x="-16" y="-175"/>
      <point x="24" y="-196"/>
      <point x="54" y="-196" type="curve" smooth="yes"/>
      <point x="107" y="-196"/>
      <point x="119" y="-167"/>
      <point x="119" y="-102" type="curve" smooth="yes"/>
      <point x="119" y="513" type="line"/>
      <point x="206" y="513" type="line"/>
    </contour>
    <contour>
      <point x="130" y="774"/>
      <point x="104" y="748"/>
      <point x="104" y="715" type="curve" smooth="yes"/>
      <point x="104" y="683"/>
      <point x="130" y="657"/>
      <point x="163" y="657" type="curve" smooth="yes"/>
      <point x="195" y="657"/>
      <point x="221" y="683"/>
      <point x="221" y="715" type="curve" smooth="yes"/>
      <point x="221" y="748"/>
      <point x="195" y="774"/>
      <point x="163" y="774" type="curve" smooth="yes"/>
    </contour>
  </outline>
</glyph>
<glyph name="k" format="1">
  <advance width="540"/>
  <unicode hex="006B"/>
  <outline>
    <contour>
      <point x="180" y="306" type="line"/>
      <point x="180" y="860" type="line"/>
      <point x="93" y="860" type="line"/>
      <point x="93" y="0" type="line"/>
      <point x="180" y="0" type="line"/>
      <point x="180" y="240" type="line"/>
      <point x="420" y="0" type="line"/>
      <point x="545" y="0" type="line"/>
      <point x="271" y="274" type="line"/>
      <point x="509" y="513" type="line"/>
      <point x="388" y="513" type="line"/>
    </contour>
  </outline>
</glyph>
<glyph name="l" format="1">
  <advance width="264"/>
  <unicode hex="006C"/>
  <outline>
    <contour>
      <point x="182" y="860" type="line"/>
      <point x="95" y="860" type="line"/>
      <point x="95" y="0" type="line"/>
      <point x="182" y="0" type="line"/>
    </contour>
  </outline>
</glyph>
<glyph name="m" format="1">
  <advance width="987"/>
  <unicode hex="006D"/>
  <outline>
    <contour>
      <point x="175" y="317" type="line" smooth="yes"/>
      <point x="175" y="397"/>
      <point x="250" y="448"/>
      <point x="312" y="448" type="curve" smooth="yes"/>
      <point x="399" y="448"/>
      <point x="453" y="397"/>
      <point x="453" y="290" type="curve" smooth="yes"/>
      <point x="453" y="0" type="line"/>
      <point x="540" y="0" type="line"/>
      <point x="540" y="317" type="line" smooth="yes"/>
      <point x="540" y="397"/>
      <point x="615" y="448"/>
      <point x="677" y="448" type="curve" smooth="yes"/>
      <point x="764" y="448"/>
      <point x="818" y="397"/>
      <point x="818" y="290" type="curve" smooth="yes"/>
      <point x="818" y="0" type="line"/>
      <point x="905" y="0" type="line"/>
      <point x="905" y="338" type="line" smooth="yes"/>
      <point x="905" y="461"/>
      <point x="792" y="528"/>
      <point x="706" y="528" type="curve" smooth="yes"/>
      <point x="642" y="528"/>
      <point x="575" y="513"/>
      <point x="516" y="433" type="curve"/>
      <point x="467" y="513"/>
      <point x="392" y="528"/>
      <point x="334" y="528" type="curve" smooth="yes"/>
      <point x="272" y="528"/>
      <point x="211" y="499"/>
      <point x="176" y="450" type="curve"/>
      <point x="175" y="450" type="line"/>
      <point x="175" y="513" type="line"/>
      <point x="88" y="513" type="line"/>
      <point x="88" y="0" type="line"/>
      <point x="175" y="0" type="line" smooth="yes"/>
    </contour>
  </outline>
</glyph>
<glyph name="n" format="1">
  <advance width="663"/>
  <unicode hex="006E"/>
  <outline>
    <contour>
      <point x="175" y="315" type="line" smooth="yes"/>
      <point x="175" y="363"/>
      <point x="236" y="448"/>
      <point x="353" y="448" type="curve" smooth="yes"/>
      <point x="440" y="448"/>
      <point x="494" y="397"/>
      <point x="494" y="290" type="curve" smooth="yes"/>
      <point x="494" y="0" type="line"/>
      <point x="581" y="0" type="line"/>
      <point x="581" y="338" type="line" smooth="yes"/>
      <point x="581" y="461"/>
      <point x="468" y="528"/>
      <point x="362" y="528" type="curve" smooth="yes"/>
      <point x="298" y="528"/>
      <point x="210" y="500"/>
      <point x="177" y="450" type="curve"/>
      <point x="175" y="450" type="line"/>
      <point x="175" y="513" type="line"/>
      <point x="88" y="513" type="line"/>
      <point x="88" y="0" type="line"/>
      <point x="175" y="0" type="line"/>
    </contour>
  </outline>
</glyph>
<glyph name="o" format="1">
  <advance width="659"/>
  <unicode hex="6F"/>
  <outline>
    <contour>
      <point x="22" y="256" type="line"/>
      <point x="22" y="416"/>
      <point x="158" y="528"/>
      <point x="331" y="528" type="curve" smooth="yes"/>
      <point x="501" y="528"/>
      <point x="637" y="416"/>
      <point x="637" y="256" type="curve" smooth="yes"/>
      <point x="637" y="98"/>
      <point x="508" y="-15"/>
      <point x="331" y="-15" type="curve" smooth="yes"/>
      <point x="146" y="-15"/>
      <point x="22" y="98"/>
      <point x="22" y="256" type="curve"/>
    </contour>
    <contour>
      <point x="210" y="256" type="line" smooth="yes"/>
      <point x="210" y="186"/>
      <point x="258" y="136"/>
      <point x="330" y="136" type="curve" smooth="yes"/>
      <point x="399" y="136"/>
      <point x="449" y="186"/>
      <point x="449" y="256" type="curve" smooth="yes"/>
      <point x="449" y="327"/>
      <point x="396" y="377"/>
      <point x="330" y="377" type="curve" smooth="yes"/>
      <point x="263" y="377"/>
      <point x="210" y="327"/>
      <point x="210" y="256" type="curve" smooth="yes"/>
    </contour>
  </outline>
</glyph>
<glyph name="p" format="1">
  <advance width="665"/>
  <unicode hex="0070"/>
  <outline>
    <contour>
      <point x="605" y="406"/>
      <point x="498" y="528"/>
      <point x="350" y="528" type="curve" smooth="yes"/>
      <point x="286" y="528"/>
      <point x="231" y="506"/>
      <point x="183" y="456" type="curve"/>
      <point x="182" y="456" type="line"/>
      <point x="182" y="513" type="line"/>
      <point x="93" y="513" type="line"/>
      <point x="93" y="-280" type="line"/>
      <point x="180" y="-280" type="line"/>
      <point x="180" y="63" type="line"/>
      <point x="222" y="13"/>
      <point x="286" y="-15"/>
      <point x="350" y="-15" type="curve" smooth="yes"/>
      <point x="498" y="-15"/>
      <point x="605" y="106"/>
      <point x="605" y="256" type="curve" smooth="yes"/>
    </contour>
    <contour>
      <point x="514" y="138"/>
      <point x="447" y="65"/>
      <point x="339" y="65" type="curve" smooth="yes"/>
      <point x="248" y="65"/>
      <point x="178" y="138"/>
      <point x="178" y="256" type="curve" smooth="yes"/>
      <point x="178" y="374"/>
      <point x="251" y="448"/>
      <point x="339" y="448" type="curve" smooth="yes"/>
      <point x="447" y="448"/>
      <point x="514" y="374"/>
      <point x="514" y="256" type="curve" smooth="yes"/>
    </contour>
  </outline>
</glyph>
<glyph name="q" format="1">
  <advance width="660"/>
  <unicode hex="0071"/>
  <outline>
    <contour>
      <point x="60" y="106"/>
      <point x="167" y="-15"/>
      <point x="315" y="-15" type="curve" smooth="yes"/>
      <point x="379" y="-15"/>
      <point x="443" y="13"/>
      <point x="485" y="70" type="curve"/>
      <point x="485" y="-280" type="line"/>
      <point x="572" y="-280" type="line"/>
      <point x="572" y="513" type="line"/>
      <point x="483" y="513" type="line"/>
      <point x="484" y="444" type="line"/>
      <point x="483" y="444" type="line"/>
      <point x="441" y="506"/>
      <point x="379" y="528"/>
      <point x="315" y="528" type="curve" smooth="yes"/>
      <point x="167" y="528"/>
      <point x="60" y="406"/>
      <point x="60" y="256" type="curve" smooth="yes"/>
    </contour>
    <contour>
      <point x="151" y="374"/>
      <point x="218" y="448"/>
      <point x="326" y="448" type="curve" smooth="yes"/>
      <point x="414" y="448"/>
      <point x="487" y="363"/>
      <point x="487" y="256" type="curve" smooth="yes"/>
      <point x="487" y="138"/>
      <point x="417" y="65"/>
      <point x="326" y="65" type="curve" smooth="yes"/>
      <point x="218" y="65"/>
      <point x="151" y="138"/>
      <point x="151" y="256" type="curve" smooth="yes"/>
    </contour>
  </outline>
</glyph>
<glyph name="s" format="1">
  <advance width="488"/>
  <unicode hex="73"/>
  <outline>
    <contour>
      <point x="276" y="528" type="line" smooth="yes"/>
      <point x="141" y="528"/>
      <point x="52" y="468"/>
      <point x="52" y="363" type="curve" smooth="yes"/>
      <point x="52" y="258"/>
      <point x="145" y="216"/>
      <point x="206" y="197" type="curve" smooth="yes"/>
      <point x="252" y="183"/>
      <point x="269" y="171"/>
      <point x="269" y="152" type="curve" smooth="yes"/>
      <point x="269" y="117"/>
      <point x="239" y="117"/>
      <point x="214" y="117" type="curve" smooth="yes"/>
      <point x="157" y="117"/>
      <point x="88" y="175"/>
      <point x="88" y="175" type="curve"/>
      <point x="16" y="54" type="line"/>
      <point x="16" y="54"/>
      <point x="90" y="-15"/>
      <point x="214" y="-15" type="curve" smooth="yes"/>
      <point x="319" y="-15"/>
      <point x="457" y="4"/>
      <point x="457" y="160" type="curve" smooth="yes"/>
      <point x="457" y="263"/>
      <point x="388" y="307"/>
      <point x="275" y="334" type="curve" smooth="yes"/>
      <point x="237" y="343"/>
      <point x="221" y="355"/>
      <point x="221" y="373" type="curve" smooth="yes"/>
      <point x="221" y="397"/>
      <point x="237" y="404"/>
      <point x="276" y="404" type="curve" smooth="yes"/>
      <point x="330" y="404"/>
      <point x="391" y="374"/>
      <point x="391" y="374" type="curve"/>
      <point x="448" y="488" type="line"/>
      <point x="448" y="488"/>
      <point x="375" y="528"/>
      <point x="276" y="528" type="curve" smooth="yes"/>
    </contour>
  </outline>
</glyph>
<glyph name="t" format="1">
  <advance width="362"/>
  <unicode hex="0074"/>
  <outline>
    <contour>
      <point x="35" y="433" type="line"/>
      <point x="105" y="433" type="line"/>
      <point x="105" y="124" type="line" smooth="yes"/>
      <point x="105" y="26"/>
      <point x="162" y="-15"/>
      <point x="231" y="-15" type="curve" smooth="yes"/>
      <point x="289" y="-15"/>
      <point x="327" y="18"/>
      <point x="327" y="18" type="curve"/>
      <point x="302" y="88" type="line"/>
      <point x="302" y="88"/>
      <point x="273" y="64"/>
      <point x="239" y="64" type="curve" smooth="yes"/>
      <point x="204" y="64"/>
      <point x="192" y="93"/>
      <point x="192" y="130" type="curve" smooth="yes"/>
      <point x="192" y="433" type="line"/>
      <point x="306" y="433" type="line"/>
      <point x="306" y="513" type="line"/>
      <point x="192" y="513" type="line"/>
      <point x="192" y="704" type="line"/>
      <point x="105" y="704" type="line"/>
      <point x="105" y="513" type="line"/>
      <point x="35" y="513" type="line"/>
    </contour>
  </outline>
</glyph>
<glyph name="u" format="1">
  <advance width="660"/>
  <unicode hex="0075"/>
  <outline>
    <contour>
      <point x="169" y="513" type="line"/>
      <point x="82" y="513" type="line"/>
      <point x="82" y="255" type="line" smooth="yes"/>
      <point x="82" y="112"/>
      <point x="144" y="-15"/>
      <point x="330" y="-15" type="curve" smooth="yes"/>
      <point x="516" y="-15"/>
      <point x="578" y="112"/>
      <point x="578" y="255" type="curve" smooth="yes"/>
      <point x="578" y="513" type="line"/>
      <point x="491" y="513" type="line"/>
      <point x="491" y="269" type="line" smooth="yes"/>
      <point x="491" y="150"/>
      <point x="454" y="65"/>
      <point x="330" y="65" type="curve" smooth="yes"/>
      <point x="206" y="65"/>
      <point x="169" y="150"/>
      <point x="169" y="269" type="curve" smooth="yes"/>
    </contour>
  </outline>
</glyph>
<glyph name="v" format="1">
  <advance width="531"/>
  <unicode hex="0076"/>
  <outline>
    <contour>
      <point x="220" y="0" type="line"/>
      <point x="311" y="0" type="line"/>
      <point x="536" y="513" type="line"/>
      <point x="436" y="513" type="line"/>
      <point x="266" y="84" type="line"/>
      <point x="96" y="513" type="line"/>
      <point x="-5" y="513" type="line"/>
    </contour>
  </outline>
</glyph>
<glyph name="w" format="1">
  <advance width="950"/>
  <unicode hex="0077"/>
  <outline>
    <contour>
      <point x="632" y="0" type="line"/>
      <point x="729" y="0" type="line"/>
      <point x="955" y="513" type="line"/>
      <point x="855" y="513" type="line"/>
      <point x="683" y="84" type="line"/>
      <point x="515" y="513" type="line"/>
      <point x="436" y="513" type="line"/>
      <point x="268" y="84" type="line"/>
      <point x="96" y="513" type="line"/>
      <point x="-5" y="513" type="line"/>
      <point x="221" y="0" type="line"/>
      <point x="318" y="0" type="line"/>
      <point x="476" y="384" type="line"/>
    </contour>
  </outline>
</glyph>
<glyph name="x" format="1">
  <advance width="530"/>
  <unicode hex="0078"/>
  <outline>
    <contour>
      <point x="521" y="513" type="line"/>
      <point x="414" y="513" type="line"/>
      <point x="265" y="316" type="line"/>
      <point x="116" y="513" type="line"/>
      <point x="9" y="513" type="line"/>
      <point x="209" y="260" type="line"/>
      <point x="-2" y="0" type="line"/>
      <point x="112" y="0" type="line"/>
      <point x="263" y="203" type="line"/>
      <point x="418" y="0" type="line"/>
      <point x="532" y="0" type="line"/>
      <point x="320" y="260" type="line"/>
    </contour>
  </outline>
</glyph>
<glyph name="y" format="1">
  <advance width="641"/>
  <unicode hex="79"/>
  <outline>
    <contour>
      <point x="188" y="513" type="line"/>
      <point x="-16" y="513" type="line"/>
      <point x="227" y="80" type="line"/>
      <point x="50" y="-260" type="line"/>
      <point x="254" y="-260" type="line"/>
      <point x="388" y="0" type="line"/>
      <point x="389" y="0" type="line"/>
      <point x="657" y="513" type="line"/>
      <point x="453" y="513" type="line"/>
      <point x="331" y="250" type="line"/>
    </contour>
  </outline>
</glyph>
<glyph name="z" format="1">
  <advance width="527"/>
  <unicode hex="007A"/>
  <outline>
    <contour>
      <point x="62" y="433" type="line"/>
      <point x="326" y="433" type="line"/>
      <point x="12" y="0" type="line"/>
      <point x="463" y="0" type="line"/>
      <point x="463" y="80" type="line"/>
      <point x="168" y="80" type="line"/>
      <point x="492" y="513" type="line"/>
      <point x="62" y="513" type="line"/>
    </contour>
  </outline>
</glyph>
<glyph name="braceleft" format="1">
  <advance width="396"/>
  <unicode hex="007B"/>
  <outline>
    <contour>
      <point x="60" y="264" type="line"/>
      <point x="96" y="264"/>
      <point x="132" y="245"/>
      <point x="132" y="199" type="curve" smooth="yes"/>
      <point x="132" y="-81" type="line" smooth="yes"/>
      <point x="132" y="-164"/>
      <point x="181" y="-249"/>
      <point x="303" y="-249" type="curve" smooth="yes"/>
      <point x="336" y="-249" type="line"/>
      <point x="336" y="-183" type="line"/>
      <point x="296" y="-183" type="line" smooth="yes"/>
      <point x="248" y="-183"/>
      <point x="215" y="-149"/>
      <point x="215" y="-93" type="curve" smooth="yes"/>
      <point x="215" y="181" type="line" smooth="yes"/>
      <point x="215" y="232"/>
      <point x="200" y="283"/>
      <point x="150" y="300" type="curve"/>
      <point x="200" y="317"/>
      <point x="215" y="368"/>
      <point x="215" y="419" type="curve" smooth="yes"/>
      <point x="215" y="693" type="line" smooth="yes"/>
      <point x="215" y="749"/>
      <point x="248" y="783"/>
      <point x="296" y="783" type="curve" smooth="yes"/>
      <point x="336" y="783" type="line"/>
      <point x="336" y="849" type="line"/>
      <point x="303" y="849" type="line" smooth="yes"/>
      <point x="181" y="849"/>
      <point x="132" y="764"/>
      <point x="132" y="681" type="curve" smooth="yes"/>
      <point x="132" y="401" type="line" smooth="yes"/>
      <point x="132" y="355"/>
      <point x="96" y="336"/>
      <point x="60" y="336" type="curve"/>
    </contour>
  </outline>
</glyph>
<glyph name="braceright" format="1">
  <advance width="396"/>
  <unicode hex="007D"/>
  <outline>
    <contour>
      <point x="336" y="336" type="line"/>
      <point x="300" y="336"/>
      <point x="264" y="355"/>
      <point x="264" y="401" type="curve" smooth="yes"/>
      <point x="264" y="681" type="line" smooth="yes"/>
      <point x="264" y="764"/>
      <point x="215" y="849"/>
      <point x="93" y="849" type="curve" smooth="yes"/>
      <point x="60" y="849" type="line"/>
      <point x="60" y="783" type="line"/>
      <point x="100" y="783" type="line" smooth="yes"/>
      <point x="148" y="783"/>
      <point x="181" y="749"/>
      <point x="181" y="693" type="curve" smooth="yes"/>
      <point x="181" y="419" type="line" smooth="yes"/>
      <point x="181" y="368"/>
      <point x="196" y="317"/>
      <point x="246" y="300" type="curve"/>
      <point x="196" y="283"/>
      <point x="181" y="232"/>
      <point x="181" y="181" type="curve" smooth="yes"/>
      <point x="181" y="-93" type="line" smooth="yes"/>
      <point x="181" y="-149"/>
      <point x="148" y="-183"/>
      <point x="100" y="-183" type="curve" smooth="yes"/>
      <point x="60" y="-183" type="line"/>
      <point x="60" y="-249" type="line"/>
      <point x="93" y="-249" type="line" smooth="yes"/>
      <point x="215" y="-249"/>
      <point x="264" y="-164"/>
      <point x="264" y="-81" type="curve" smooth="yes"/>
      <point x="264" y="199" type="line" smooth="yes"/>
      <point x="264" y="245"/>
      <point x="300" y="264"/>
      <point x="336" y="264" type="curve"/>
    </contour>
  </outline>
</glyph>
<glyph name="asciitilde" format="1">
  <advance width="620"/>
  <unicode hex="007E"/>
  <outline>
    <contour>
      <point x="508" y="497" type="line"/>
      <point x="508" y="497"/>
      <point x="473" y="402"/>
      <point x="415" y="402" type="curve" smooth="yes"/>
      <point x="385" y="402"/>
      <point x="353" y="432"/>
      <point x="326" y="450" type="curve" smooth="yes"/>
      <point x="295" y="470"/>
      <point x="252" y="506"/>
      <point x="201" y="506" type="curve" smooth="yes"/>
      <point x="128" y="506"/>
      <point x="80" y="428"/>
      <point x="60" y="379" type="curve"/>
      <point x="111" y="342" type="line"/>
      <point x="111" y="342"/>
      <point x="147" y="438"/>
      <point x="205" y="438" type="curve" smooth="yes"/>
      <point x="235" y="438"/>
      <point x="268" y="408"/>
      <point x="294" y="390" type="curve" smooth="yes"/>
      <point x="325" y="369"/>
      <point x="368" y="334"/>
      <point x="419" y="334" type="curve" smooth="yes"/>
      <point x="492" y="334"/>
      <point x="540" y="412"/>
      <point x="560" y="461" type="curve"/>
    </contour>
  </outline>
</glyph>
<glyph name="exclamdown" format="1">
  <advance width="258"/>
  <unicode hex="00A1"/>
  <outline>
    <contour>
      <point x="167" y="467"/>
      <point x="198" y="497"/>
      <point x="198" y="536" type="curve" smooth="yes"/>
      <point x="198" y="574"/>
      <point x="167" y="604"/>
      <point x="129" y="604" type="curve" smooth="yes"/>
      <point x="91" y="604"/>
      <point x="60" y="574"/>
      <point x="60" y="536" type="curve" smooth="yes"/>
      <point x="60" y="497"/>
      <point x="91" y="467"/>
      <point x="129" y="467" type="curve" smooth="yes"/>
    </contour>
    <contour>
      <point x="165" y="370" type="line"/>
      <point x="94" y="370" type="line"/>
      <point x="77" y="-260" type="line"/>
      <point x="182" y="-260" type="line"/>
    </contour>
  </outline>
</glyph>
<glyph name="cent" format="1">
  <advance width="600"/>
  <unicode hex="00A2"/>
  <outline>
    <contour>
      <point x="280" y="-119" type="line"/>
      <point x="353" y="-119" type="line"/>
      <point x="353" y="-14" type="line"/>
      <point x="404" y="-10"/>
      <point x="450" y="6"/>
      <point x="487" y="31" type="curve"/>
      <point x="453" y="97" type="line"/>
      <point x="421" y="77"/>
      <point x="383" y="65"/>
      <point x="333" y="65" type="curve" smooth="yes"/>
      <point x="229" y="65"/>
      <point x="151" y="146"/>
      <point x="151" y="257" type="curve" smooth="yes"/>
      <point x="151" y="369"/>
      <point x="234" y="448"/>
      <point x="333" y="448" type="curve" smooth="yes"/>
      <point x="386" y="448"/>
      <point x="426" y="434"/>
      <point x="453" y="410" type="curve"/>
      <point x="487" y="480" type="line"/>
      <point x="447" y="509"/>
      <point x="396" y="526"/>
      <point x="343" y="528" type="curve"/>
      <point x="343" y="626" type="line"/>
      <point x="270" y="626" type="line"/>
      <point x="270" y="521" type="line"/>
      <point x="152" y="494"/>
      <point x="60" y="393"/>
      <point x="60" y="257" type="curve" smooth="yes"/>
      <point x="60" y="116"/>
      <point x="154" y="11"/>
      <point x="280" y="-11" type="curve"/>
    </contour>
  </outline>
</glyph>
<glyph name="sterling" format="1">
  <advance width="728"/>
  <unicode hex="A3"/>
  <outline>
    <contour>
      <point x="655" y="651" type="line"/>
      <point x="655" y="651"/>
      <point x="615" y="841"/>
      <point x="381" y="841" type="curve" smooth="yes"/>
      <point x="196" y="841"/>
      <point x="100" y="714"/>
      <point x="100" y="558" type="curve" smooth="yes"/>
      <point x="100" y="482"/>
      <point x="126" y="429"/>
      <point x="154" y="384" type="curve"/>
      <point x="55" y="384" type="line"/>
      <point x="55" y="289" type="line"/>
      <point x="210" y="289" type="line"/>
      <point x="217" y="272"/>
      <point x="222" y="255"/>
      <point x="222" y="236" type="curve" smooth="yes"/>
      <point x="222" y="208"/>
      <point x="213" y="185"/>
      <point x="200" y="166" type="curve"/>
      <point x="83" y="161"/>
      <point x="55" y="0"/>
      <point x="55" y="0" type="curve"/>
      <point x="165" y="0" type="line"/>
      <point x="165" y="0"/>
      <point x="171" y="43"/>
      <point x="212" y="43" type="curve" smooth="yes"/>
      <point x="306" y="43"/>
      <point x="394" y="-15"/>
      <point x="518" y="-15" type="curve" smooth="yes"/>
      <point x="675" y="-15"/>
      <point x="690" y="126"/>
      <point x="690" y="126" type="curve"/>
      <point x="575" y="183" type="line"/>
      <point x="575" y="183"/>
      <point x="570" y="113"/>
      <point x="516" y="113" type="curve" smooth="yes"/>
      <point x="459" y="113"/>
      <point x="401" y="136"/>
      <point x="330" y="152" type="curve"/>
      <point x="348" y="178"/>
      <point x="363" y="210"/>
      <point x="363" y="243" type="curve" smooth="yes"/>
      <point x="363" y="260"/>
      <point x="362" y="275"/>
      <point x="360" y="289" type="curve"/>
      <point x="507" y="289" type="line"/>
      <point x="507" y="384" type="line"/>
      <point x="335" y="384" type="line"/>
      <point x="313" y="435"/>
      <point x="286" y="475"/>
      <point x="286" y="558" type="curve" smooth="yes"/>
      <point x="286" y="634"/>
      <point x="319" y="689"/>
      <point x="381" y="689" type="curve" smooth="yes"/>
      <point x="478" y="689"/>
      <point x="497" y="574"/>
      <point x="497" y="574" type="curve"/>
    </contour>
  </outline>
</glyph>
<glyph name="yen" format="1">
  <advance width="642"/>
  <unicode hex="00A5"/>
  <outline>
    <contour>
      <point x="275" y="0" type="line"/>
      <point x="367" y="0" type="line"/>
      <point x="367" y="182" type="line"/>
      <point x="578" y="182" type="line"/>
      <point x="578" y="255" type="line"/>
      <point x="367" y="255" type="line"/>
      <point x="367" y="328" type="line"/>
      <point x="578" y="328" type="line"/>
      <point x="578" y="401" type="line"/>
      <point x="376" y="401" type="line"/>
      <point x="654" y="825" type="line"/>
      <point x="538" y="825" type="line"/>
      <point x="321" y="475" type="line"/>
      <point x="104" y="825" type="line"/>
      <point x="-12" y="825" type="line"/>
      <point x="267" y="401" type="line"/>
      <point x="65" y="401" type="line"/>
      <point x="65" y="328" type="line"/>
      <point x="277" y="328" type="line"/>
      <point x="276" y="255" type="line"/>
      <point x="65" y="255" type="line"/>
      <point x="65" y="182" type="line"/>
      <point x="276" y="182" type="line"/>
    </contour>
  </outline>
</glyph>
<glyph name="brokenbar" format="1">
  <advance width="193"/>
  <unicode hex="00A6"/>
  <outline>
    <contour>
      <point x="133" y="860" type="line"/>
      <point x="60" y="860" type="line"/>
      <point x="60" y="487" type="line"/>
      <point x="133" y="487" type="line"/>
    </contour>
    <contour>
      <point x="133" y="373" type="line"/>
      <point x="60" y="373" type="line"/>
      <point x="60" y="0" type="line"/>
      <point x="133" y="0" type="line"/>
    </contour>
  </outline>
</glyph>
<glyph name="section" format="1">
  <advance width="833"/>
  <unicode hex="A7"/>
  <outline>
    <contour>
      <point x="414" y="840" type="line" smooth="yes"/>
      <point x="234" y="840"/>
      <point x="156" y="739"/>
      <point x="156" y="631" type="curve" smooth="yes"/>
      <point x="156" y="500"/>
      <point x="233" y="450"/>
      <point x="387" y="378" type="curve"/>
      <point x="450" y="348"/>
      <point x="533" y="314"/>
      <point x="536" y="260" type="curve"/>
      <point x="531" y="177"/>
      <point x="408" y="166"/>
      <point x="374" y="166" type="curve"/>
      <point x="414" y="80" type="line"/>
      <point x="591" y="80"/>
      <point x="694" y="176"/>
      <point x="700" y="289" type="curve"/>
      <point x="700" y="403"/>
      <point x="624" y="470"/>
      <point x="504" y="529" type="curve"/>
      <point x="416" y="567"/>
      <point x="351" y="597"/>
      <point x="351" y="637" type="curve" smooth="yes"/>
      <point x="351" y="668"/>
      <point x="372" y="692"/>
      <point x="414" y="692" type="curve" smooth="yes"/>
      <point x="490" y="692"/>
      <point x="495" y="627"/>
      <point x="495" y="627" type="curve"/>
      <point x="655" y="661" type="line"/>
      <point x="655" y="661"/>
      <point x="627" y="840"/>
      <point x="414" y="840" type="curve" smooth="yes"/>
    </contour>
    <contour>
      <point x="376" y="-275" type="line"/>
      <point x="596" y="-275"/>
      <point x="655" y="-152"/>
      <point x="655" y="-66" type="curve" smooth="yes"/>
      <point x="655" y="65"/>
      <point x="578" y="115"/>
      <point x="424" y="187" type="curve" smooth="yes"/>
      <point x="361" y="217"/>
      <point x="278" y="251"/>
      <point x="275" y="305" type="curve"/>
      <point x="280" y="388"/>
      <point x="403" y="399"/>
      <point x="437" y="399" type="curve"/>
      <point x="397" y="485" type="line"/>
      <point x="220" y="485"/>
      <point x="117" y="389"/>
      <point x="111" y="276" type="curve"/>
      <point x="111" y="162"/>
      <point x="187" y="95"/>
      <point x="307" y="36" type="curve"/>
      <point x="395" y="-2"/>
      <point x="458" y="-31"/>
      <point x="458" y="-72" type="curve" smooth="yes"/>
      <point x="458" y="-101"/>
      <point x="437" y="-127"/>
      <point x="376" y="-127" type="curve" smooth="yes"/>
      <point x="294" y="-127"/>
      <point x="271" y="-50"/>
      <point x="271" y="-50" type="curve"/>
      <point x="111" y="-84" type="line"/>
      <point x="111" y="-84"/>
      <point x="143" y="-275"/>
      <point x="376" y="-275" type="curve"/>
    </contour>
  </outline>
</glyph>
<glyph name="dieresis" format="1">
  <advance width="476"/>
  <unicode hex="00A8"/>
  <outline>
    <contour>
      <point x="99" y="790"/>
      <point x="70" y="762"/>
      <point x="70" y="727" type="curve" smooth="yes"/>
      <point x="70" y="691"/>
      <point x="99" y="663"/>
      <point x="134" y="663" type="curve" smooth="yes"/>
      <point x="170" y="663"/>
      <point x="198" y="691"/>
      <point x="198" y="727" type="curve" smooth="yes"/>
      <point x="198" y="762"/>
      <point x="170" y="790"/>
      <point x="134" y="790" type="curve" smooth="yes"/>
    </contour>
    <contour>
      <point x="307" y="790"/>
      <point x="278" y="762"/>
      <point x="278" y="727" type="curve" smooth="yes"/>
      <point x="278" y="691"/>
      <point x="307" y="663"/>
      <point x="342" y="663" type="curve" smooth="yes"/>
      <point x="378" y="663"/>
      <point x="406" y="691"/>
      <point x="406" y="727" type="curve" smooth="yes"/>
      <point x="406" y="762"/>
      <point x="378" y="790"/>
      <point x="342" y="790" type="curve" smooth="yes"/>
    </contour>
  </outline>
</glyph>
<glyph name="copyright" format="1">
  <advance width="901"/>
  <unicode hex="00A9"/>
  <outline>
    <contour>
      <point x="23" y="177"/>
      <point x="215" y="-15"/>
      <point x="450" y="-15" type="curve" smooth="yes"/>
      <point x="686" y="-15"/>
      <point x="878" y="177"/>
      <point x="878" y="412" type="curve" smooth="yes"/>
      <point x="878" y="648"/>
      <point x="686" y="840"/>
      <point x="450" y="840" type="curve" smooth="yes"/>
      <point x="215" y="840"/>
      <point x="23" y="648"/>
      <point x="23" y="412" type="curve" smooth="yes"/>
    </contour>
    <contour>
      <point x="97" y="611"/>
      <point x="252" y="771"/>
      <point x="450" y="771" type="curve" smooth="yes"/>
      <point x="649" y="771"/>
      <point x="804" y="611"/>
      <point x="804" y="412" type="curve" smooth="yes"/>
      <point x="804" y="214"/>
      <point x="649" y="54"/>
      <point x="450" y="54" type="curve" smooth="yes"/>
      <point x="252" y="54"/>
      <point x="97" y="214"/>
      <point x="97" y="412" type="curve" smooth="yes"/>
    </contour>
    <contour>
      <point x="398" y="566"/>
      <point x="332" y="501"/>
      <point x="332" y="416" type="curve" smooth="yes"/>
      <point x="332" y="332"/>
      <point x="394" y="265"/>
      <point x="473" y="265" type="curve" smooth="yes"/>
      <point x="512" y="265"/>
      <point x="543" y="276"/>
      <point x="567" y="292" type="curve"/>
      <point x="576" y="275"/>
      <point x="589" y="249"/>
      <point x="598" y="231" type="curve"/>
      <point x="563" y="208"/>
      <point x="518" y="194"/>
      <point x="465" y="194" type="curve" smooth="yes"/>
      <point x="348" y="194"/>
      <point x="249" y="287"/>
      <point x="249" y="416" type="curve" smooth="yes"/>
      <point x="249" y="545"/>
      <point x="352" y="637"/>
      <point x="472" y="637" type="curve" smooth="yes"/>
      <point x="518" y="637"/>
      <point x="563" y="623"/>
      <point x="598" y="597" type="curve"/>
      <point x="567" y="535" type="line"/>
      <point x="545" y="554"/>
      <point x="508" y="566"/>
      <point x="473" y="566" type="curve" smooth="yes"/>
    </contour>
  </outline>
</glyph>
<glyph name="ordfeminine" format="1">
  <advance width="420"/>
  <unicode hex="00AA"/>
  <outline>
    <contour>
      <point x="50" y="575"/>
      <point x="117" y="500"/>
      <point x="209" y="500" type="curve" smooth="yes"/>
      <point x="249" y="500"/>
      <point x="289" y="517"/>
      <point x="315" y="548" type="curve"/>
      <point x="316" y="548" type="line"/>
      <point x="316" y="509" type="line"/>
      <point x="370" y="509" type="line"/>
      <point x="370" y="830" type="line"/>
      <point x="314" y="830" type="line"/>
      <point x="314" y="794" type="line"/>
      <point x="284" y="825"/>
      <point x="249" y="839"/>
      <point x="209" y="839" type="curve" smooth="yes"/>
      <point x="117" y="839"/>
      <point x="50" y="763"/>
      <point x="50" y="669" type="curve" smooth="yes"/>
    </contour>
    <contour>
      <point x="107" y="743"/>
      <point x="149" y="789"/>
      <point x="216" y="789" type="curve" smooth="yes"/>
      <point x="271" y="789"/>
      <point x="317" y="743"/>
      <point x="317" y="669" type="curve" smooth="yes"/>
      <point x="317" y="595"/>
      <point x="273" y="550"/>
      <point x="216" y="550" type="curve" smooth="yes"/>
      <point x="149" y="550"/>
      <point x="107" y="595"/>
      <point x="107" y="669" type="curve" smooth="yes"/>
    </contour>
  </outline>
</glyph>
<glyph name="guillemetleft" format="1">
  <advance width="561"/>
  <unicode hex="00AB"/>
  <outline>
    <contour>
      <point x="128" y="279" type="line"/>
      <point x="274" y="459" type="line"/>
      <point x="214" y="506" type="line"/>
      <point x="33" y="279" type="line"/>
      <point x="217" y="48" type="line"/>
      <point x="277" y="95" type="line"/>
    </contour>
    <contour>
      <point x="358" y="279" type="line"/>
      <point x="504" y="459" type="line"/>
      <point x="444" y="506" type="line"/>
      <point x="263" y="279" type="line"/>
      <point x="447" y="48" type="line"/>
      <point x="507" y="95" type="line"/>
    </contour>
  </outline>
</glyph>
<glyph name="registered" format="1">
  <advance width="600"/>
  <unicode hex="00AE"/>
  <outline>
    <contour>
      <point x="23" y="492"/>
      <point x="124" y="392"/>
      <point x="246" y="392" type="curve" smooth="yes"/>
      <point x="371" y="392"/>
      <point x="471" y="492"/>
      <point x="471" y="615" type="curve" smooth="yes"/>
      <point x="471" y="739"/>
      <point x="371" y="840"/>
      <point x="246" y="840" type="curve" smooth="yes"/>
      <point x="124" y="840"/>
      <point x="23" y="739"/>
      <point x="23" y="615" type="curve" smooth="yes"/>
    </contour>
    <contour>
      <point x="61" y="718"/>
      <point x="145" y="802"/>
      <point x="246" y="802" type="curve" smooth="yes"/>
      <point x="350" y="802"/>
      <point x="433" y="718"/>
      <point x="433" y="615" type="curve" smooth="yes"/>
      <point x="433" y="513"/>
      <point x="350" y="430"/>
      <point x="246" y="430" type="curve" smooth="yes"/>
      <point x="145" y="430"/>
      <point x="61" y="513"/>
      <point x="61" y="615" type="curve" smooth="yes"/>
    </contour>
    <contour>
      <point x="185" y="508" type="line"/>
      <point x="215" y="508" type="line"/>
      <point x="215" y="602" type="line"/>
      <point x="229" y="602" type="line"/>
      <point x="310" y="508" type="line"/>
      <point x="350" y="508" type="line"/>
      <point x="264" y="603" type="line"/>
      <point x="308" y="608"/>
      <point x="329" y="630"/>
      <point x="329" y="666" type="curve" smooth="yes"/>
      <point x="329" y="709"/>
      <point x="297" y="731"/>
      <point x="248" y="731" type="curve" smooth="yes"/>
      <point x="184" y="731" type="line"/>
    </contour>
    <contour>
      <point x="215" y="705" type="line"/>
      <point x="238" y="705" type="line" smooth="yes"/>
      <point x="281" y="705"/>
      <point x="299" y="691"/>
      <point x="299" y="666" type="curve" smooth="yes"/>
      <point x="299" y="640"/>
      <point x="281" y="627"/>
      <point x="238" y="627" type="curve" smooth="yes"/>
      <point x="215" y="627" type="line"/>
    </contour>
  </outline>
</glyph>
<glyph name="macron" format="1">
  <advance width="518"/>
  <unicode hex="00AF"/>
  <outline>
    <contour>
      <point x="448" y="664" type="line"/>
      <point x="448" y="734" type="line"/>
      <point x="70" y="734" type="line"/>
      <point x="70" y="664" type="line"/>
    </contour>
  </outline>
</glyph>
<glyph name="degree" format="1">
  <advance width="354"/>
  <unicode hex="00B0"/>
  <outline>
    <contour>
      <point x="70" y="712"/>
      <point x="116" y="669"/>
      <point x="177" y="669" type="curve" smooth="yes"/>
      <point x="238" y="669"/>
      <point x="284" y="712"/>
      <point x="284" y="772" type="curve" smooth="yes"/>
      <point x="284" y="832"/>
      <point x="236" y="875"/>
      <point x="177" y="875" type="curve" smooth="yes"/>
      <point x="118" y="875"/>
      <point x="70" y="832"/>
      <point x="70" y="772" type="curve"/>
    </contour>
    <contour>
      <point x="118" y="809"/>
      <point x="142" y="835"/>
      <point x="177" y="835" type="curve" smooth="yes"/>
      <point x="212" y="835"/>
      <point x="236" y="809"/>
      <point x="236" y="772" type="curve" smooth="yes"/>
      <point x="236" y="736"/>
      <point x="213" y="709"/>
      <point x="177" y="709" type="curve" smooth="yes"/>
      <point x="141" y="709"/>
      <point x="118" y="736"/>
      <point x="118" y="772" type="curve" smooth="yes"/>
    </contour>
  </outline>
</glyph>
<glyph name="plusminus" format="1">
  <advance width="576"/>
  <unicode hex="00B1"/>
  <outline>
    <contour>
      <point x="513" y="378" type="line"/>
      <point x="513" y="451" type="line"/>
      <point x="323" y="451" type="line"/>
      <point x="323" y="611" type="line"/>
      <point x="250" y="611" type="line"/>
      <point x="250" y="451" type="line"/>
      <point x="60" y="451" type="line"/>
      <point x="60" y="378" type="line"/>
      <point x="250" y="378" type="line"/>
      <point x="250" y="218" type="line"/>
      <point x="323" y="218" type="line"/>
      <point x="323" y="378" type="line"/>
    </contour>
    <contour>
      <point x="516" y="90" type="line"/>
      <point x="516" y="163" type="line"/>
      <point x="63" y="163" type="line"/>
      <point x="63" y="90" type="line"/>
    </contour>
  </outline>
</glyph>
<glyph name="twosuperior" format="1">
  <advance width="232"/>
  <unicode hex="00B2"/>
  <outline>
    <contour>
      <point x="179" y="809"/>
      <point x="204" y="786"/>
      <point x="204" y="752" type="curve" smooth="yes"/>
      <point x="204" y="663"/>
      <point x="32" y="536"/>
      <point x="32" y="536" type="curve"/>
      <point x="32" y="523" type="line"/>
      <point x="248" y="523" type="line"/>
      <point x="248" y="554" type="line"/>
      <point x="96" y="554" type="line" smooth="yes"/>
      <point x="96" y="554"/>
      <point x="241" y="657"/>
      <point x="241" y="752" type="curve" smooth="yes"/>
      <point x="241" y="807"/>
      <point x="203" y="840"/>
      <point x="146" y="840" type="curve" smooth="yes"/>
      <point x="59" y="840"/>
      <point x="37" y="754"/>
      <point x="37" y="754" type="curve"/>
      <point x="69" y="738" type="line"/>
      <point x="69" y="738"/>
      <point x="87" y="809"/>
      <point x="145" y="809" type="curve" smooth="yes"/>
    </contour>
  </outline>
</glyph>
<glyph name="threesuperior" format="1">
  <advance width="230"/>
  <unicode hex="00B3"/>
  <outline>
    <contour>
      <point x="50" y="756" type="line"/>
      <point x="50" y="756"/>
      <point x="64" y="809"/>
      <point x="114" y="809" type="curve" smooth="yes"/>
      <point x="147" y="809"/>
      <point x="170" y="787"/>
      <point x="170" y="758" type="curve" smooth="yes"/>
      <point x="170" y="729"/>
      <point x="152" y="704"/>
      <point x="109" y="700" type="curve"/>
      <point x="100" y="700" type="line"/>
      <point x="100" y="673" type="line"/>
      <point x="100" y="673"/>
      <point x="109" y="674"/>
      <point x="115" y="674" type="curve" smooth="yes"/>
      <point x="151" y="674"/>
      <point x="184" y="647"/>
      <point x="184" y="611" type="curve" smooth="yes"/>
      <point x="184" y="574"/>
      <point x="155" y="548"/>
      <point x="115" y="548" type="curve" smooth="yes"/>
      <point x="71" y="548"/>
      <point x="48" y="579"/>
      <point x="43" y="612" type="curve"/>
      <point x="9" y="596" type="line"/>
      <point x="9" y="596"/>
      <point x="27" y="517"/>
      <point x="117" y="517" type="curve" smooth="yes"/>
      <point x="176" y="517"/>
      <point x="221" y="557"/>
      <point x="221" y="611" type="curve" smooth="yes"/>
      <point x="221" y="654"/>
      <point x="194" y="679"/>
      <point x="166" y="691" type="curve"/>
      <point x="192" y="706"/>
      <point x="207" y="731"/>
      <point x="207" y="758" type="curve" smooth="yes"/>
      <point x="207" y="807"/>
      <point x="164" y="840"/>
      <point x="118" y="840" type="curve" smooth="yes"/>
      <point x="40" y="840"/>
      <point x="18" y="769"/>
      <point x="18" y="769" type="curve"/>
    </contour>
  </outline>
</glyph>
<glyph name="acute" format="1">
  <advance width="521"/>
  <unicode hex="00B4"/>
  <outline>
    <contour>
      <point x="385" y="764" type="line"/>
      <point x="315" y="840" type="line"/>
      <point x="136" y="656" type="line"/>
      <point x="178" y="610" type="line"/>
    </contour>
  </outline>
</glyph>
<glyph name="paragraph" format="1">
  <advance width="522"/>
  <unicode hex="00B6"/>
  <outline>
    <contour>
      <point x="462" y="825" type="line"/>
      <point x="252" y="825" type="line" smooth="yes"/>
      <point x="102" y="825"/>
      <point x="23" y="736"/>
      <point x="23" y="625" type="curve" smooth="yes"/>
      <point x="23" y="514"/>
      <point x="102" y="416"/>
      <point x="229" y="416" type="curve" smooth="yes"/>
      <point x="255" y="416" type="line"/>
      <point x="255" y="0" type="line"/>
      <point x="328" y="0" type="line"/>
      <point x="328" y="741" type="line"/>
      <point x="389" y="741" type="line"/>
      <point x="389" y="0" type="line"/>
      <point x="462" y="0" type="line"/>
    </contour>
  </outline>
</glyph>
<glyph name="periodcentered" format="1">
  <advance width="280"/>
  <unicode hex="00B7"/>
  <outline>
    <contour>
      <point x="96" y="352"/>
      <point x="60" y="317"/>
      <point x="60" y="273" type="curve" smooth="yes"/>
      <point x="60" y="228"/>
      <point x="96" y="193"/>
      <point x="140" y="193" type="curve" smooth="yes"/>
      <point x="185" y="193"/>
      <point x="220" y="228"/>
      <point x="220" y="273" type="curve" smooth="yes"/>
      <point x="220" y="317"/>
      <point x="185" y="352"/>
      <point x="140" y="352" type="curve" smooth="yes"/>
    </contour>
  </outline>
</glyph>
<glyph name="cedilla" format="1">
  <advance width="426"/>
  <unicode hex="00B8"/>
  <outline>
    <contour>
      <point x="145" y="-107" type="line"/>
      <point x="172" y="-124" type="line"/>
      <point x="182" y="-115"/>
      <point x="197" y="-107"/>
      <point x="219" y="-107" type="curve" smooth="yes"/>
      <point x="257" y="-107"/>
      <point x="291" y="-132"/>
      <point x="291" y="-171" type="curve" smooth="yes"/>
      <point x="291" y="-206"/>
      <point x="268" y="-234"/>
      <point x="227" y="-234" type="curve" smooth="yes"/>
      <point x="164" y="-234"/>
      <point x="136" y="-172"/>
      <point x="136" y="-172" type="curve"/>
      <point x="77" y="-200" type="line"/>
      <point x="77" y="-200"/>
      <point x="124" y="-294"/>
      <point x="230" y="-294" type="curve" smooth="yes"/>
      <point x="309" y="-294"/>
      <point x="365" y="-245"/>
      <point x="365" y="-172" type="curve" smooth="yes"/>
      <point x="365" y="-102"/>
      <point x="294" y="-45"/>
      <point x="213" y="-62" type="curve"/>
      <point x="239" y="9" type="line"/>
      <point x="188" y="26" type="line"/>
    </contour>
  </outline>
</glyph>
<glyph name="onesuperior" format="1">
  <advance width="108"/>
  <unicode hex="00B9"/>
  <outline>
    <contour>
      <point x="64" y="514" type="line"/>
      <point x="99" y="514" type="line"/>
      <point x="99" y="825" type="line"/>
      <point x="74" y="825" type="line"/>
      <point x="9" y="788" type="line"/>
      <point x="9" y="750" type="line"/>
      <point x="64" y="780" type="line"/>
    </contour>
  </outline>
</glyph>
<glyph name="ordmasculine" format="1">
  <advance width="451"/>
  <unicode hex="00BA"/>
  <outline>
    <contour>
      <point x="50" y="570"/>
      <point x="125" y="500"/>
      <point x="226" y="500" type="curve" smooth="yes"/>
      <point x="326" y="500"/>
      <point x="401" y="570"/>
      <point x="401" y="670" type="curve" smooth="yes"/>
      <point x="401" y="769"/>
      <point x="323" y="839"/>
      <point x="226" y="839" type="curve" smooth="yes"/>
      <point x="129" y="839"/>
      <point x="50" y="769"/>
      <point x="50" y="670" type="curve"/>
    </contour>
    <contour>
      <point x="105" y="740"/>
      <point x="159" y="790"/>
      <point x="226" y="790" type="curve" smooth="yes"/>
      <point x="293" y="790"/>
      <point x="346" y="740"/>
      <point x="346" y="670" type="curve" smooth="yes"/>
      <point x="346" y="600"/>
      <point x="296" y="548"/>
      <point x="226" y="548" type="curve" smooth="yes"/>
      <point x="156" y="548"/>
      <point x="105" y="600"/>
      <point x="105" y="670" type="curve" smooth="yes"/>
    </contour>
  </outline>
</glyph>
<glyph name="guillemetright" format="1">
  <advance width="561"/>
  <unicode hex="00BB"/>
  <outline>
    <contour>
      <point x="528" y="279" type="line"/>
      <point x="347" y="506" type="line"/>
      <point x="287" y="459" type="line"/>
      <point x="433" y="279" type="line"/>
      <point x="284" y="95" type="line"/>
      <point x="344" y="48" type="line"/>
    </contour>
    <contour>
      <point x="203" y="279" type="line"/>
      <point x="54" y="95" type="line"/>
      <point x="114" y="48" type="line"/>
      <point x="298" y="279" type="line"/>
      <point x="117" y="506" type="line"/>
      <point x="57" y="459" type="line"/>
    </contour>
  </outline>
</glyph>
<glyph name="onequarter" format="1">
  <advance width="876"/>
  <unicode hex="BC"/>
  <outline>
    <contour>
      <point x="101" y="0" type="line"/>
      <point x="219" y="0" type="line"/>
      <point x="699" y="825" type="line"/>
      <point x="581" y="825" type="line"/>
    </contour>
    <component base="four" xOffset="399" xScale="0.58" yScale="0.58"/>
    <component base="one" xOffset="43" yOffset="345" xScale="0.58" yScale="0.58"/>
  </outline>
</glyph>
<glyph name="onehalf" format="1">
  <advance width="842"/>
  <unicode hex="00BD"/>
  <outline>
    <contour>
      <point x="78" y="0" type="line"/>
      <point x="162" y="0" type="line"/>
      <point x="642" y="825" type="line"/>
      <point x="558" y="825" type="line"/>
    </contour>
    <contour>
      <point x="146" y="345" type="line"/>
      <point x="199" y="345" type="line"/>
      <point x="199" y="825" type="line"/>
      <point x="159" y="825" type="line"/>
      <point x="60" y="768" type="line"/>
      <point x="60" y="709" type="line"/>
      <point x="146" y="755" type="line"/>
    </contour>
    <contour>
      <point x="693" y="440"/>
      <point x="733" y="405"/>
      <point x="733" y="352" type="curve" smooth="yes"/>
      <point x="733" y="215"/>
      <point x="467" y="20"/>
      <point x="467" y="20" type="curve"/>
      <point x="467" y="0" type="line"/>
      <point x="800" y="0" type="line"/>
      <point x="800" y="47" type="line"/>
      <point x="565" y="47" type="line" smooth="yes"/>
      <point x="565" y="47"/>
      <point x="790" y="207"/>
      <point x="790" y="353" type="curve" smooth="yes"/>
      <point x="790" y="437"/>
      <point x="731" y="488"/>
      <point x="642" y="488" type="curve" smooth="yes"/>
      <point x="508" y="488"/>
      <point x="474" y="355"/>
      <point x="474" y="355" type="curve"/>
      <point x="524" y="331" type="line"/>
      <point x="524" y="331"/>
      <point x="552" y="440"/>
      <point x="641" y="440" type="curve" smooth="yes"/>
    </contour>
  </outline>
</glyph>
<glyph name="threequarters" format="1">
  <advance width="849"/>
  <unicode hex="00BE"/>
  <outline>
    <contour>
      <point x="179" y="0" type="line"/>
      <point x="263" y="0" type="line"/>
      <point x="743" y="825" type="line"/>
      <point x="659" y="825" type="line"/>
    </contour>
    <contour>
      <point x="99" y="710" type="line"/>
      <point x="99" y="710"/>
      <point x="121" y="792"/>
      <point x="198" y="792" type="curve" smooth="yes"/>
      <point x="248" y="792"/>
      <point x="284" y="758"/>
      <point x="284" y="714" type="curve" smooth="yes"/>
      <point x="284" y="669"/>
      <point x="256" y="630"/>
      <point x="190" y="625" type="curve"/>
      <point x="177" y="625" type="line"/>
      <point x="177" y="583" type="line"/>
      <point x="177" y="583"/>
      <point x="190" y="585"/>
      <point x="200" y="585" type="curve" smooth="yes"/>
      <point x="255" y="585"/>
      <point x="305" y="543"/>
      <point x="305" y="488" type="curve" smooth="yes"/>
      <point x="305" y="431"/>
      <point x="261" y="391"/>
      <point x="200" y="391" type="curve" smooth="yes"/>
      <point x="132" y="391"/>
      <point x="96" y="438"/>
      <point x="88" y="489" type="curve"/>
      <point x="36" y="464" type="line"/>
      <point x="36" y="464"/>
      <point x="64" y="343"/>
      <point x="202" y="343" type="curve" smooth="yes"/>
      <point x="293" y="343"/>
      <point x="362" y="405"/>
      <point x="362" y="488" type="curve" smooth="yes"/>
      <point x="362" y="553"/>
      <point x="320" y="592"/>
      <point x="278" y="610" type="curve"/>
      <point x="317" y="634"/>
      <point x="341" y="671"/>
      <point x="341" y="714" type="curve" smooth="yes"/>
      <point x="341" y="789"/>
      <point x="275" y="840"/>
      <point x="204" y="840" type="curve" smooth="yes"/>
      <point x="84" y="840"/>
      <point x="50" y="731"/>
      <point x="50" y="731" type="curve"/>
    </contour>
    <contour>
      <point x="693" y="480" type="line"/>
      <point x="462" y="132" type="line"/>
      <point x="462" y="111" type="line"/>
      <point x="693" y="111" type="line"/>
      <point x="693" y="0" type="line"/>
      <point x="746" y="0" type="line"/>
      <point x="746" y="111" type="line"/>
      <point x="815" y="111" type="line"/>
      <point x="815" y="159" type="line"/>
      <point x="746" y="159" type="line"/>
      <point x="746" y="480" type="line"/>
    </contour>
    <contour>
      <point x="544" y="159" type="line"/>
      <point x="692" y="392" type="line"/>
      <point x="693" y="392" type="line"/>
      <point x="693" y="159" type="line"/>
    </contour>
  </outline>
</glyph>
<glyph name="questiondown" format="1">
  <advance width="600"/>
  <unicode hex="00BF"/>
  <outline>
    <contour>
      <point x="565" y="-80" type="line"/>
      <point x="565" y="-85"/>
      <point x="512" y="-274"/>
      <point x="307" y="-275" type="curve" smooth="yes"/>
      <point x="147" y="-276"/>
      <point x="61" y="-177"/>
      <point x="61" y="-71" type="curve" smooth="yes"/>
      <point x="61" y="42"/>
      <point x="122" y="103"/>
      <point x="237" y="171" type="curve" smooth="yes"/>
      <point x="264" y="187"/>
      <point x="275" y="202"/>
      <point x="275" y="228" type="curve" smooth="yes"/>
      <point x="275" y="335" type="line"/>
      <point x="367" y="335" type="line"/>
      <point x="367" y="190" type="line" smooth="yes"/>
      <point x="367" y="161"/>
      <point x="351" y="132"/>
      <point x="311" y="110" type="curve" smooth="yes"/>
      <point x="205" y="52"/>
      <point x="159" y="8"/>
      <point x="159" y="-72" type="curve" smooth="yes"/>
      <point x="159" y="-145"/>
      <point x="215" y="-193"/>
      <point x="300" y="-193" type="curve" smooth="yes"/>
      <point x="418" y="-193"/>
      <point x="471" y="-94"/>
      <point x="482" y="-42" type="curve"/>
    </contour>
    <contour>
      <point x="366" y="414"/>
      <point x="401" y="449"/>
      <point x="401" y="494" type="curve" smooth="yes"/>
      <point x="401" y="538"/>
      <point x="366" y="573"/>
      <point x="321" y="573" type="curve" smooth="yes"/>
      <point x="277" y="573"/>
      <point x="241" y="538"/>
      <point x="241" y="494" type="curve" smooth="yes"/>
      <point x="241" y="449"/>
      <point x="277" y="414"/>
      <point x="321" y="414" type="curve" smooth="yes"/>
    </contour>
  </outline>
</glyph>
<glyph name="Agrave" format="1">
  <advance width="717"/>
  <unicode hex="00C0"/>
  <outline>
    <contour>
      <point x="-12" y="0" type="line"/>
      <point x="90" y="0" type="line"/>
      <point x="163" y="192" type="line"/>
      <point x="553" y="192" type="line"/>
      <point x="627" y="0" type="line"/>
      <point x="729" y="0" type="line"/>
      <point x="412" y="825" type="line"/>
      <point x="304" y="825" type="line"/>
    </contour>
    <contour>
      <point x="357" y="725" type="line"/>
      <point x="359" y="725" type="line"/>
      <point x="520" y="275" type="line"/>
      <point x="195" y="273" type="line"/>
    </contour>
    <contour>
      <point x="359" y="922" type="line"/>
      <point x="401" y="968" type="line"/>
      <point x="222" y="1152" type="line"/>
      <point x="152" y="1076" type="line"/>
    </contour>
  </outline>
</glyph>
<glyph name="Aacute" format="1">
  <advance width="717"/>
  <unicode hex="00C1"/>
  <outline>
    <contour>
      <point x="-12" y="0" type="line"/>
      <point x="90" y="0" type="line"/>
      <point x="163" y="192" type="line"/>
      <point x="553" y="192" type="line"/>
      <point x="627" y="0" type="line"/>
      <point x="729" y="0" type="line"/>
      <point x="412" y="825" type="line"/>
      <point x="304" y="825" type="line"/>
    </contour>
    <contour>
      <point x="357" y="725" type="line"/>
      <point x="359" y="725" type="line"/>
      <point x="520" y="275" type="line"/>
      <point x="195" y="273" type="line"/>
    </contour>
    <contour>
      <point x="565" y="1076" type="line"/>
      <point x="495" y="1152" type="line"/>
      <point x="316" y="968" type="line"/>
      <point x="358" y="922" type="line"/>
    </contour>
  </outline>
</glyph>
<glyph name="Acircumflex" format="1">
  <advance width="717"/>
  <unicode hex="00C2"/>
  <outline>
    <contour>
      <point x="-12" y="0" type="line"/>
      <point x="90" y="0" type="line"/>
      <point x="163" y="192" type="line"/>
      <point x="553" y="192" type="line"/>
      <point x="627" y="0" type="line"/>
      <point x="729" y="0" type="line"/>
      <point x="412" y="825" type="line"/>
      <point x="304" y="825" type="line"/>
    </contour>
    <contour>
      <point x="357" y="725" type="line"/>
      <point x="359" y="725" type="line"/>
      <point x="520" y="275" type="line"/>
      <point x="195" y="273" type="line"/>
    </contour>
    <contour>
      <point x="358" y="1057" type="line"/>
      <point x="516" y="916" type="line"/>
      <point x="565" y="974" type="line"/>
      <point x="358" y="1152" type="line"/>
      <point x="151" y="974" type="line"/>
      <point x="200" y="916" type="line"/>
    </contour>
  </outline>
</glyph>
<glyph name="Atilde" format="1">
  <advance width="717"/>
  <unicode hex="00C3"/>
  <outline>
    <contour>
      <point x="-12" y="0" type="line"/>
      <point x="90" y="0" type="line"/>
      <point x="163" y="192" type="line"/>
      <point x="553" y="192" type="line"/>
      <point x="627" y="0" type="line"/>
      <point x="729" y="0" type="line"/>
      <point x="412" y="825" type="line"/>
      <point x="304" y="825" type="line"/>
    </contour>
    <contour>
      <point x="357" y="725" type="line"/>
      <point x="359" y="725" type="line"/>
      <point x="520" y="275" type="line"/>
      <point x="195" y="273" type="line"/>
    </contour>
    <contour>
      <point x="378" y="968"/>
      <point x="411" y="953"/>
      <point x="459" y="953" type="curve" smooth="yes"/>
      <point x="549" y="953"/>
      <point x="575" y="1073"/>
      <point x="575" y="1073" type="curve"/>
      <point x="511" y="1073" type="line"/>
      <point x="511" y="1073"/>
      <point x="498" y="1016"/>
      <point x="456" y="1016" type="curve" smooth="yes"/>
      <point x="421" y="1016"/>
      <point x="392" y="1029"/>
      <point x="375" y="1036" type="curve" smooth="yes"/>
      <point x="340" y="1051"/>
      <point x="306" y="1067"/>
      <point x="258" y="1067" type="curve" smooth="yes"/>
      <point x="168" y="1067"/>
      <point x="142" y="947"/>
      <point x="142" y="947" type="curve"/>
      <point x="206" y="947" type="line"/>
      <point x="206" y="947"/>
      <point x="219" y="1004"/>
      <point x="261" y="1004" type="curve" smooth="yes"/>
      <point x="296" y="1004"/>
      <point x="325" y="991"/>
      <point x="342" y="984" type="curve" smooth="yes"/>
    </contour>
  </outline>
</glyph>
<glyph name="Adieresis" format="1">
  <advance width="717"/>
  <unicode hex="00C4"/>
  <outline>
    <contour>
      <point x="-12" y="0" type="line"/>
      <point x="90" y="0" type="line"/>
      <point x="163" y="192" type="line"/>
      <point x="553" y="192" type="line"/>
      <point x="627" y="0" type="line"/>
      <point x="729" y="0" type="line"/>
      <point x="412" y="825" type="line"/>
      <point x="304" y="825" type="line"/>
    </contour>
    <contour>
      <point x="357" y="725" type="line"/>
      <point x="359" y="725" type="line"/>
      <point x="520" y="275" type="line"/>
      <point x="195" y="273" type="line"/>
    </contour>
    <contour>
      <point x="219" y="1102"/>
      <point x="190" y="1074"/>
      <point x="190" y="1039" type="curve" smooth="yes"/>
      <point x="190" y="1003"/>
      <point x="219" y="975"/>
      <point x="254" y="975" type="curve" smooth="yes"/>
      <point x="290" y="975"/>
      <point x="318" y="1003"/>
      <point x="318" y="1039" type="curve" smooth="yes"/>
      <point x="318" y="1074"/>
      <point x="290" y="1102"/>
      <point x="254" y="1102" type="curve" smooth="yes"/>
    </contour>
    <contour>
      <point x="427" y="1102"/>
      <point x="398" y="1074"/>
      <point x="398" y="1039" type="curve" smooth="yes"/>
      <point x="398" y="1003"/>
      <point x="427" y="975"/>
      <point x="462" y="975" type="curve" smooth="yes"/>
      <point x="498" y="975"/>
      <point x="526" y="1003"/>
      <point x="526" y="1039" type="curve" smooth="yes"/>
      <point x="526" y="1074"/>
      <point x="498" y="1102"/>
      <point x="462" y="1102" type="curve" smooth="yes"/>
    </contour>
  </outline>
</glyph>
<glyph name="Aring" format="1">
  <advance width="717"/>
  <unicode hex="00C5"/>
  <outline>
    <contour>
      <point x="-12" y="0" type="line"/>
      <point x="90" y="0" type="line"/>
      <point x="163" y="192" type="line"/>
      <point x="553" y="192" type="line"/>
      <point x="627" y="0" type="line"/>
      <point x="729" y="0" type="line"/>
      <point x="412" y="825" type="line"/>
      <point x="304" y="825" type="line"/>
    </contour>
    <contour>
      <point x="357" y="725" type="line"/>
      <point x="359" y="725" type="line"/>
      <point x="520" y="275" type="line"/>
      <point x="195" y="273" type="line"/>
    </contour>
    <contour>
      <point x="205" y="966"/>
      <point x="272" y="903"/>
      <point x="358" y="903" type="curve" smooth="yes"/>
      <point x="444" y="903"/>
      <point x="512" y="966"/>
      <point x="512" y="1045" type="curve" smooth="yes"/>
      <point x="512" y="1123"/>
      <point x="441" y="1186"/>
      <point x="358" y="1186" type="curve" smooth="yes"/>
      <point x="275" y="1186"/>
      <point x="205" y="1123"/>
      <point x="205" y="1045" type="curve"/>
    </contour>
    <contour>
      <point x="285" y="1085"/>
      <point x="308" y="1121"/>
      <point x="358" y="1121" type="curve" smooth="yes"/>
      <point x="408" y="1121"/>
      <point x="432" y="1085"/>
      <point x="432" y="1044" type="curve" smooth="yes"/>
      <point x="432" y="1005"/>
      <point x="411" y="968"/>
      <point x="358" y="968" type="curve" smooth="yes"/>
      <point x="306" y="968"/>
      <point x="285" y="1005"/>
      <point x="285" y="1044" type="curve" smooth="yes"/>
    </contour>
  </outline>
</glyph>
<glyph name="AE" format="1">
  <advance width="909"/>
  <unicode hex="00C6"/>
  <outline>
    <contour>
      <point x="427" y="0" type="line"/>
      <point x="869" y="0" type="line"/>
      <point x="869" y="83" type="line"/>
      <point x="519" y="83" type="line"/>
      <point x="519" y="379" type="line"/>
      <point x="849" y="379" type="line"/>
      <point x="849" y="462" type="line"/>
      <point x="519" y="462" type="line"/>
      <point x="519" y="742" type="line"/>
      <point x="869" y="742" type="line"/>
      <point x="869" y="825" type="line"/>
      <point x="372" y="825" type="line"/>
      <point x="-12" y="0" type="line"/>
      <point x="90" y="0" type="line"/>
      <point x="179" y="192" type="line"/>
      <point x="427" y="192" type="line"/>
    </contour>
    <contour>
      <point x="425" y="725" type="line"/>
      <point x="427" y="725" type="line"/>
      <point x="427" y="275" type="line"/>
      <point x="216" y="273" type="line"/>
    </contour>
  </outline>
</glyph>
<glyph name="Ccedilla" format="1">
  <advance width="767"/>
  <unicode hex="00C7"/>
  <outline>
    <contour>
      <point x="312" y="67"/>
      <point x="143" y="210"/>
      <point x="143" y="412" type="curve" smooth="yes"/>
      <point x="143" y="617"/>
      <point x="318" y="758"/>
      <point x="489" y="758" type="curve" smooth="yes"/>
      <point x="614" y="758"/>
      <point x="684" y="690"/>
      <point x="684" y="690" type="curve"/>
      <point x="732" y="759" type="line"/>
      <point x="732" y="759"/>
      <point x="643" y="840"/>
      <point x="496" y="840" type="curve" smooth="yes"/>
      <point x="231" y="840"/>
      <point x="45" y="648"/>
      <point x="45" y="411" type="curve" smooth="yes"/>
      <point x="45" y="223"/>
      <point x="163" y="58"/>
      <point x="347" y="4" type="curve"/>
      <point x="311" y="-107" type="line"/>
      <point x="338" y="-124" type="line"/>
      <point x="348" y="-115"/>
      <point x="363" y="-107"/>
      <point x="385" y="-107" type="curve" smooth="yes"/>
      <point x="423" y="-107"/>
      <point x="457" y="-132"/>
      <point x="457" y="-171" type="curve" smooth="yes"/>
      <point x="457" y="-206"/>
      <point x="434" y="-234"/>
      <point x="393" y="-234" type="curve" smooth="yes"/>
      <point x="330" y="-234"/>
      <point x="302" y="-172"/>
      <point x="302" y="-172" type="curve"/>
      <point x="243" y="-200" type="line"/>
      <point x="243" y="-200"/>
      <point x="290" y="-294"/>
      <point x="396" y="-294" type="curve" smooth="yes"/>
      <point x="475" y="-294"/>
      <point x="531" y="-245"/>
      <point x="531" y="-172" type="curve" smooth="yes"/>
      <point x="531" y="-102"/>
      <point x="460" y="-45"/>
      <point x="379" y="-62" type="curve"/>
      <point x="399" y="-8" type="line"/>
      <point x="425" y="-13"/>
      <point x="453" y="-15"/>
      <point x="481" y="-15" type="curve" smooth="yes"/>
      <point x="635" y="-15"/>
      <point x="729" y="68"/>
      <point x="729" y="68" type="curve"/>
      <point x="685" y="138" type="line"/>
      <point x="685" y="138"/>
      <point x="604" y="67"/>
      <point x="490" y="67" type="curve" smooth="yes"/>
    </contour>
  </outline>
</glyph>
<glyph name="Egrave" format="1">
  <advance width="547"/>
  <unicode hex="00C8"/>
  <outline>
    <contour>
      <point x="65" y="0" type="line"/>
      <point x="507" y="0" type="line"/>
      <point x="507" y="83" type="line"/>
      <point x="157" y="83" type="line"/>
      <point x="157" y="379" type="line"/>
      <point x="487" y="379" type="line"/>
      <point x="487" y="462" type="line"/>
      <point x="157" y="462" type="line"/>
      <point x="157" y="742" type="line"/>
      <point x="507" y="742" type="line"/>
      <point x="507" y="825" type="line"/>
      <point x="65" y="825" type="line"/>
    </contour>
    <contour>
      <point x="285" y="923" type="line"/>
      <point x="327" y="969" type="line"/>
      <point x="148" y="1153" type="line"/>
      <point x="78" y="1077" type="line"/>
    </contour>
  </outline>
</glyph>
<glyph name="Eacute" format="1">
  <advance width="547"/>
  <unicode hex="00C9"/>
  <outline>
    <contour>
      <point x="65" y="0" type="line"/>
      <point x="507" y="0" type="line"/>
      <point x="507" y="83" type="line"/>
      <point x="157" y="83" type="line"/>
      <point x="157" y="379" type="line"/>
      <point x="487" y="379" type="line"/>
      <point x="487" y="462" type="line"/>
      <point x="157" y="462" type="line"/>
      <point x="157" y="742" type="line"/>
      <point x="507" y="742" type="line"/>
      <point x="507" y="825" type="line"/>
      <point x="65" y="825" type="line"/>
    </contour>
    <contour>
      <point x="451" y="1077" type="line"/>
      <point x="381" y="1153" type="line"/>
      <point x="202" y="969" type="line"/>
      <point x="244" y="923" type="line"/>
    </contour>
  </outline>
</glyph>
<glyph name="Ecircumflex" format="1">
  <advance width="547"/>
  <unicode hex="00CA"/>
  <outline>
    <contour>
      <point x="65" y="0" type="line"/>
      <point x="507" y="0" type="line"/>
      <point x="507" y="83" type="line"/>
      <point x="157" y="83" type="line"/>
      <point x="157" y="379" type="line"/>
      <point x="487" y="379" type="line"/>
      <point x="487" y="462" type="line"/>
      <point x="157" y="462" type="line"/>
      <point x="157" y="742" type="line"/>
      <point x="507" y="742" type="line"/>
      <point x="507" y="825" type="line"/>
      <point x="65" y="825" type="line"/>
    </contour>
    <contour>
      <point x="284" y="1058" type="line"/>
      <point x="442" y="917" type="line"/>
      <point x="491" y="975" type="line"/>
      <point x="284" y="1153" type="line"/>
      <point x="77" y="975" type="line"/>
      <point x="126" y="917" type="line"/>
    </contour>
  </outline>
</glyph>
<glyph name="Edieresis" format="1">
  <advance width="547"/>
  <unicode hex="00CB"/>
  <outline>
    <contour>
      <point x="65" y="0" type="line"/>
      <point x="507" y="0" type="line"/>
      <point x="507" y="83" type="line"/>
      <point x="157" y="83" type="line"/>
      <point x="157" y="379" type="line"/>
      <point x="487" y="379" type="line"/>
      <point x="487" y="462" type="line"/>
      <point x="157" y="462" type="line"/>
      <point x="157" y="742" type="line"/>
      <point x="507" y="742" type="line"/>
      <point x="507" y="825" type="line"/>
      <point x="65" y="825" type="line"/>
    </contour>
    <contour>
      <point x="145" y="1103"/>
      <point x="116" y="1075"/>
      <point x="116" y="1040" type="curve" smooth="yes"/>
      <point x="116" y="1004"/>
      <point x="145" y="976"/>
      <point x="180" y="976" type="curve" smooth="yes"/>
      <point x="216" y="976"/>
      <point x="244" y="1004"/>
      <point x="244" y="1040" type="curve" smooth="yes"/>
      <point x="244" y="1075"/>
      <point x="216" y="1103"/>
      <point x="180" y="1103" type="curve" smooth="yes"/>
    </contour>
    <contour>
      <point x="353" y="1103"/>
      <point x="324" y="1075"/>
      <point x="324" y="1040" type="curve" smooth="yes"/>
      <point x="324" y="1004"/>
      <point x="353" y="976"/>
      <point x="388" y="976" type="curve" smooth="yes"/>
      <point x="424" y="976"/>
      <point x="452" y="1004"/>
      <point x="452" y="1040" type="curve" smooth="yes"/>
      <point x="452" y="1075"/>
      <point x="424" y="1103"/>
      <point x="388" y="1103" type="curve" smooth="yes"/>
    </contour>
  </outline>
</glyph>
<glyph name="Igrave" format="1">
  <advance width="222"/>
  <unicode hex="00CC"/>
  <outline>
    <contour>
      <point x="65" y="0" type="line"/>
      <point x="157" y="0" type="line"/>
      <point x="157" y="825" type="line"/>
      <point x="65" y="825" type="line"/>
    </contour>
    <contour>
      <point x="112" y="922" type="line"/>
      <point x="154" y="968" type="line"/>
      <point x="-25" y="1152" type="line"/>
      <point x="-95" y="1076" type="line"/>
    </contour>
  </outline>
</glyph>
<glyph name="Iacute" format="1">
  <advance width="222"/>
  <unicode hex="00CD"/>
  <outline>
    <contour>
      <point x="65" y="0" type="line"/>
      <point x="157" y="0" type="line"/>
      <point x="157" y="825" type="line"/>
      <point x="65" y="825" type="line"/>
    </contour>
    <contour>
      <point x="318" y="1076" type="line"/>
      <point x="248" y="1152" type="line"/>
      <point x="69" y="968" type="line"/>
      <point x="111" y="922" type="line"/>
    </contour>
  </outline>
</glyph>
<glyph name="Icircumflex" format="1">
  <advance width="222"/>
  <unicode hex="00CE"/>
  <outline>
    <contour>
      <point x="65" y="0" type="line"/>
      <point x="157" y="0" type="line"/>
      <point x="157" y="825" type="line"/>
      <point x="65" y="825" type="line"/>
    </contour>
    <contour>
      <point x="111" y="1057" type="line"/>
      <point x="269" y="916" type="line"/>
      <point x="318" y="974" type="line"/>
      <point x="111" y="1152" type="line"/>
      <point x="-96" y="974" type="line"/>
      <point x="-47" y="916" type="line"/>
    </contour>
  </outline>
</glyph>
<glyph name="Idieresis" format="1">
  <advance width="222"/>
  <unicode hex="00CF"/>
  <outline>
    <contour>
      <point x="65" y="0" type="line"/>
      <point x="157" y="0" type="line"/>
      <point x="157" y="825" type="line"/>
      <point x="65" y="825" type="line"/>
    </contour>
    <contour>
      <point x="-28" y="1102"/>
      <point x="-57" y="1074"/>
      <point x="-57" y="1039" type="curve" smooth="yes"/>
      <point x="-57" y="1003"/>
      <point x="-28" y="975"/>
      <point x="7" y="975" type="curve" smooth="yes"/>
      <point x="43" y="975"/>
      <point x="71" y="1003"/>
      <point x="71" y="1039" type="curve" smooth="yes"/>
      <point x="71" y="1074"/>
      <point x="43" y="1102"/>
      <point x="7" y="1102" type="curve" smooth="yes"/>
    </contour>
    <contour>
      <point x="180" y="1102"/>
      <point x="151" y="1074"/>
      <point x="151" y="1039" type="curve" smooth="yes"/>
      <point x="151" y="1003"/>
      <point x="180" y="975"/>
      <point x="215" y="975" type="curve" smooth="yes"/>
      <point x="251" y="975"/>
      <point x="279" y="1003"/>
      <point x="279" y="1039" type="curve" smooth="yes"/>
      <point x="279" y="1074"/>
      <point x="251" y="1102"/>
      <point x="215" y="1102" type="curve" smooth="yes"/>
    </contour>
  </outline>
</glyph>
<glyph name="Ntilde" format="1">
  <advance width="737"/>
  <unicode hex="00D1"/>
  <outline>
    <contour>
      <point x="587" y="0" type="line"/>
      <point x="680" y="0" type="line"/>
      <point x="680" y="825" type="line"/>
      <point x="588" y="825" type="line"/>
      <point x="588" y="161" type="line"/>
      <point x="586" y="161" type="line"/>
      <point x="162" y="825" type="line"/>
      <point x="57" y="825" type="line"/>
      <point x="57" y="0" type="line"/>
      <point x="149" y="0" type="line"/>
      <point x="149" y="682" type="line"/>
      <point x="151" y="682" type="line"/>
    </contour>
    <contour>
      <point x="400" y="968"/>
      <point x="433" y="953"/>
      <point x="481" y="953" type="curve" smooth="yes"/>
      <point x="571" y="953"/>
      <point x="597" y="1073"/>
      <point x="597" y="1073" type="curve"/>
      <point x="533" y="1073" type="line"/>
      <point x="533" y="1073"/>
      <point x="520" y="1016"/>
      <point x="478" y="1016" type="curve" smooth="yes"/>
      <point x="443" y="1016"/>
      <point x="414" y="1029"/>
      <point x="397" y="1036" type="curve" smooth="yes"/>
      <point x="362" y="1051"/>
      <point x="328" y="1067"/>
      <point x="280" y="1067" type="curve" smooth="yes"/>
      <point x="190" y="1067"/>
      <point x="164" y="947"/>
      <point x="164" y="947" type="curve"/>
      <point x="228" y="947" type="line"/>
      <point x="228" y="947"/>
      <point x="241" y="1004"/>
      <point x="283" y="1004" type="curve" smooth="yes"/>
      <point x="318" y="1004"/>
      <point x="347" y="991"/>
      <point x="364" y="984" type="curve" smooth="yes"/>
    </contour>
  </outline>
</glyph>
<glyph name="Oacute" format="1">
  <advance width="921"/>
  <unicode hex="00D3"/>
  <outline>
    <contour>
      <point x="143" y="603"/>
      <point x="280" y="758"/>
      <point x="461" y="758" type="curve" smooth="yes"/>
      <point x="641" y="758"/>
      <point x="778" y="603"/>
      <point x="778" y="413" type="curve" smooth="yes"/>
      <point x="778" y="222"/>
      <point x="641" y="67"/>
      <point x="461" y="67" type="curve" smooth="yes"/>
      <point x="280" y="67"/>
      <point x="143" y="222"/>
      <point x="143" y="413" type="curve" smooth="yes"/>
    </contour>
    <contour>
      <point x="45" y="172"/>
      <point x="217" y="-15"/>
      <point x="461" y="-15" type="curve" smooth="yes"/>
      <point x="698" y="-15"/>
      <point x="876" y="172"/>
      <point x="876" y="413" type="curve" smooth="yes"/>
      <point x="876" y="654"/>
      <point x="690" y="840"/>
      <point x="461" y="840" type="curve" smooth="yes"/>
      <point x="234" y="840"/>
      <point x="45" y="654"/>
      <point x="45" y="413" type="curve" smooth="yes"/>
    </contour>
    <contour>
      <point x="618" y="1076" type="line"/>
      <point x="548" y="1152" type="line"/>
      <point x="369" y="968" type="line"/>
      <point x="411" y="922" type="line"/>
    </contour>
  </outline>
</glyph>
<glyph name="Ocircumflex" format="1">
  <advance width="921"/>
  <unicode hex="00D4"/>
  <outline>
    <contour>
      <point x="143" y="603"/>
      <point x="280" y="758"/>
      <point x="461" y="758" type="curve" smooth="yes"/>
      <point x="641" y="758"/>
      <point x="778" y="603"/>
      <point x="778" y="413" type="curve" smooth="yes"/>
      <point x="778" y="222"/>
      <point x="641" y="67"/>
      <point x="461" y="67" type="curve" smooth="yes"/>
      <point x="280" y="67"/>
      <point x="143" y="222"/>
      <point x="143" y="413" type="curve" smooth="yes"/>
    </contour>
    <contour>
      <point x="45" y="172"/>
      <point x="217" y="-15"/>
      <point x="461" y="-15" type="curve" smooth="yes"/>
      <point x="698" y="-15"/>
      <point x="876" y="172"/>
      <point x="876" y="413" type="curve" smooth="yes"/>
      <point x="876" y="654"/>
      <point x="690" y="840"/>
      <point x="461" y="840" type="curve" smooth="yes"/>
      <point x="234" y="840"/>
      <point x="45" y="654"/>
      <point x="45" y="413" type="curve" smooth="yes"/>
    </contour>
    <contour>
      <point x="461" y="1057" type="line"/>
      <point x="619" y="916" type="line"/>
      <point x="668" y="974" type="line"/>
      <point x="461" y="1152" type="line"/>
      <point x="254" y="974" type="line"/>
      <point x="303" y="916" type="line"/>
    </contour>
  </outline>
</glyph>
<glyph name="Otilde" format="1">
  <advance width="921"/>
  <unicode hex="00D5"/>
  <outline>
    <contour>
      <point x="143" y="603"/>
      <point x="280" y="758"/>
      <point x="461" y="758" type="curve" smooth="yes"/>
      <point x="641" y="758"/>
      <point x="778" y="603"/>
      <point x="778" y="413" type="curve" smooth="yes"/>
      <point x="778" y="222"/>
      <point x="641" y="67"/>
      <point x="461" y="67" type="curve" smooth="yes"/>
      <point x="280" y="67"/>
      <point x="143" y="222"/>
      <point x="143" y="413" type="curve" smooth="yes"/>
    </contour>
    <contour>
      <point x="45" y="172"/>
      <point x="217" y="-15"/>
      <point x="461" y="-15" type="curve" smooth="yes"/>
      <point x="698" y="-15"/>
      <point x="876" y="172"/>
      <point x="876" y="413" type="curve" smooth="yes"/>
      <point x="876" y="654"/>
      <point x="690" y="840"/>
      <point x="461" y="840" type="curve" smooth="yes"/>
      <point x="234" y="840"/>
      <point x="45" y="654"/>
      <point x="45" y="413" type="curve" smooth="yes"/>
    </contour>
    <contour>
      <point x="479" y="968"/>
      <point x="512" y="953"/>
      <point x="560" y="953" type="curve" smooth="yes"/>
      <point x="650" y="953"/>
      <point x="676" y="1073"/>
      <point x="676" y="1073" type="curve"/>
      <point x="612" y="1073" type="line"/>
      <point x="612" y="1073"/>
      <point x="599" y="1016"/>
      <point x="557" y="1016" type="curve" smooth="yes"/>
      <point x="522" y="1016"/>
      <point x="493" y="1029"/>
      <point x="476" y="1036" type="curve" smooth="yes"/>
      <point x="441" y="1051"/>
      <point x="407" y="1067"/>
      <point x="359" y="1067" type="curve" smooth="yes"/>
      <point x="269" y="1067"/>
      <point x="243" y="947"/>
      <point x="243" y="947" type="curve"/>
      <point x="307" y="947" type="line"/>
      <point x="307" y="947"/>
      <point x="320" y="1004"/>
      <point x="362" y="1004" type="curve" smooth="yes"/>
      <point x="397" y="1004"/>
      <point x="426" y="991"/>
      <point x="443" y="984" type="curve" smooth="yes"/>
    </contour>
  </outline>
</glyph>
<glyph name="Odieresis" format="1">
  <advance width="921"/>
  <unicode hex="00D6"/>
  <outline>
    <contour>
      <point x="143" y="603"/>
      <point x="280" y="758"/>
      <point x="461" y="758" type="curve" smooth="yes"/>
      <point x="641" y="758"/>
      <point x="778" y="603"/>
      <point x="778" y="413" type="curve" smooth="yes"/>
      <point x="778" y="222"/>
      <point x="641" y="67"/>
      <point x="461" y="67" type="curve" smooth="yes"/>
      <point x="280" y="67"/>
      <point x="143" y="222"/>
      <point x="143" y="413" type="curve" smooth="yes"/>
    </contour>
    <contour>
      <point x="45" y="172"/>
      <point x="217" y="-15"/>
      <point x="461" y="-15" type="curve" smooth="yes"/>
      <point x="698" y="-15"/>
      <point x="876" y="172"/>
      <point x="876" y="413" type="curve" smooth="yes"/>
      <point x="876" y="654"/>
      <point x="690" y="840"/>
      <point x="461" y="840" type="curve" smooth="yes"/>
      <point x="234" y="840"/>
      <point x="45" y="654"/>
      <point x="45" y="413" type="curve" smooth="yes"/>
    </contour>
    <contour>
      <point x="322" y="1102"/>
      <point x="293" y="1074"/>
      <point x="293" y="1039" type="curve" smooth="yes"/>
      <point x="293" y="1003"/>
      <point x="322" y="975"/>
      <point x="357" y="975" type="curve" smooth="yes"/>
      <point x="393" y="975"/>
      <point x="421" y="1003"/>
      <point x="421" y="1039" type="curve" smooth="yes"/>
      <point x="421" y="1074"/>
      <point x="393" y="1102"/>
      <point x="357" y="1102" type="curve" smooth="yes"/>
    </contour>
    <contour>
      <point x="530" y="1102"/>
      <point x="501" y="1074"/>
      <point x="501" y="1039" type="curve" smooth="yes"/>
      <point x="501" y="1003"/>
      <point x="530" y="975"/>
      <point x="565" y="975" type="curve" smooth="yes"/>
      <point x="601" y="975"/>
      <point x="629" y="1003"/>
      <point x="629" y="1039" type="curve" smooth="yes"/>
      <point x="629" y="1074"/>
      <point x="601" y="1102"/>
      <point x="565" y="1102" type="curve" smooth="yes"/>
    </contour>
  </outline>
</glyph>
<glyph name="multiply" format="1">
  <advance width="600"/>
  <unicode hex="00D7"/>
  <outline>
    <contour>
      <point x="523" y="569" type="line"/>
      <point x="471" y="621" type="line"/>
      <point x="317" y="467" type="line"/>
      <point x="163" y="621" type="line"/>
      <point x="111" y="569" type="line"/>
      <point x="265" y="415" type="line"/>
      <point x="111" y="260" type="line"/>
      <point x="162" y="209" type="line"/>
      <point x="317" y="364" type="line"/>
      <point x="472" y="209" type="line"/>
      <point x="523" y="260" type="line"/>
      <point x="368" y="415" type="line"/>
    </contour>
  </outline>
</glyph>
<glyph name="Oslash" format="1">
  <advance width="921"/>
  <unicode hex="00D8"/>
  <outline>
    <contour>
      <point x="112" y="57" type="line"/>
      <point x="182" y="1" type="line"/>
      <point x="225" y="55" type="line"/>
      <point x="290" y="11"/>
      <point x="371" y="-15"/>
      <point x="461" y="-15" type="curve" smooth="yes"/>
      <point x="698" y="-15"/>
      <point x="876" y="172"/>
      <point x="876" y="413" type="curve" smooth="yes"/>
      <point x="876" y="535"/>
      <point x="828" y="643"/>
      <point x="751" y="720" type="curve"/>
      <point x="792" y="772" type="line"/>
      <point x="723" y="827" type="line"/>
      <point x="682" y="776" type="line"/>
      <point x="618" y="817"/>
      <point x="542" y="840"/>
      <point x="461" y="840" type="curve" smooth="yes"/>
      <point x="234" y="840"/>
      <point x="45" y="654"/>
      <point x="45" y="413" type="curve" smooth="yes"/>
      <point x="45" y="295"/>
      <point x="86" y="190"/>
      <point x="157" y="114" type="curve"/>
    </contour>
    <contour>
      <point x="778" y="222"/>
      <point x="641" y="67"/>
      <point x="461" y="67" type="curve" smooth="yes"/>
      <point x="393" y="67"/>
      <point x="332" y="89"/>
      <point x="281" y="126" type="curve"/>
      <point x="694" y="648" type="line"/>
      <point x="747" y="587"/>
      <point x="778" y="504"/>
      <point x="778" y="413" type="curve" smooth="yes"/>
    </contour>
    <contour>
      <point x="143" y="603"/>
      <point x="280" y="758"/>
      <point x="461" y="758" type="curve" smooth="yes"/>
      <point x="523" y="758"/>
      <point x="580" y="740"/>
      <point x="628" y="708" type="curve"/>
      <point x="217" y="189" type="line"/>
      <point x="170" y="249"/>
      <point x="143" y="328"/>
      <point x="143" y="413" type="curve" smooth="yes"/>
    </contour>
  </outline>
</glyph>
<glyph name="Udieresis" format="1">
  <advance width="724"/>
  <unicode hex="00DC"/>
  <outline>
    <contour>
      <point x="572" y="298" type="line" smooth="yes"/>
      <point x="572" y="150"/>
      <point x="494" y="67"/>
      <point x="362" y="67" type="curve" smooth="yes"/>
      <point x="230" y="67"/>
      <point x="152" y="150"/>
      <point x="152" y="298" type="curve" smooth="yes"/>
      <point x="152" y="825" type="line"/>
      <point x="60" y="825" type="line"/>
      <point x="60" y="293" type="line" smooth="yes"/>
      <point x="60" y="89"/>
      <point x="172" y="-15"/>
      <point x="362" y="-15" type="curve" smooth="yes"/>
      <point x="552" y="-15"/>
      <point x="664" y="89"/>
      <point x="664" y="293" type="curve" smooth="yes"/>
      <point x="664" y="825" type="line"/>
      <point x="572" y="825" type="line"/>
    </contour>
    <contour>
      <point x="223" y="1101"/>
      <point x="194" y="1073"/>
      <point x="194" y="1038" type="curve" smooth="yes"/>
      <point x="194" y="1002"/>
      <point x="223" y="974"/>
      <point x="258" y="974" type="curve" smooth="yes"/>
      <point x="294" y="974"/>
      <point x="322" y="1002"/>
      <point x="322" y="1038" type="curve" smooth="yes"/>
      <point x="322" y="1073"/>
      <point x="294" y="1101"/>
      <point x="258" y="1101" type="curve" smooth="yes"/>
    </contour>
    <contour>
      <point x="431" y="1101"/>
      <point x="402" y="1073"/>
      <point x="402" y="1038" type="curve" smooth="yes"/>
      <point x="402" y="1002"/>
      <point x="431" y="974"/>
      <point x="466" y="974" type="curve" smooth="yes"/>
      <point x="502" y="974"/>
      <point x="530" y="1002"/>
      <point x="530" y="1038" type="curve" smooth="yes"/>
      <point x="530" y="1073"/>
      <point x="502" y="1101"/>
      <point x="466" y="1101" type="curve" smooth="yes"/>
    </contour>
  </outline>
</glyph>
<glyph name="Yacute" format="1">
  <advance width="642"/>
  <unicode hex="00DD"/>
  <outline>
    <contour>
      <point x="275" y="0" type="line"/>
      <point x="367" y="0" type="line"/>
      <point x="367" y="388" type="line"/>
      <point x="654" y="825" type="line"/>
      <point x="538" y="825" type="line"/>
      <point x="321" y="475" type="line"/>
      <point x="104" y="825" type="line"/>
      <point x="-12" y="825" type="line"/>
      <point x="277" y="386" type="line"/>
    </contour>
    <contour>
      <point x="528" y="1076" type="line"/>
      <point x="458" y="1152" type="line"/>
      <point x="279" y="968" type="line"/>
      <point x="321" y="922" type="line"/>
    </contour>
  </outline>
</glyph>
<glyph name="Thorn" format="1">
  <advance width="608"/>
  <unicode hex="00DE"/>
  <outline>
    <contour>
      <point x="65" y="0" type="line"/>
      <point x="157" y="0" type="line"/>
      <point x="157" y="172" type="line"/>
      <point x="263" y="172" type="line" smooth="yes"/>
      <point x="457" y="172"/>
      <point x="568" y="251"/>
      <point x="568" y="411" type="curve" smooth="yes"/>
      <point x="568" y="571"/>
      <point x="457" y="654"/>
      <point x="263" y="654" type="curve" smooth="yes"/>
      <point x="157" y="654" type="line"/>
      <point x="157" y="825" type="line"/>
      <point x="65" y="825" type="line"/>
    </contour>
    <contour>
      <point x="157" y="571" type="line"/>
      <point x="242" y="571" type="line" smooth="yes"/>
      <point x="406" y="571"/>
      <point x="470" y="521"/>
      <point x="470" y="411" type="curve" smooth="yes"/>
      <point x="470" y="301"/>
      <point x="406" y="255"/>
      <point x="242" y="255" type="curve" smooth="yes"/>
      <point x="157" y="255" type="line"/>
    </contour>
  </outline>
</glyph>
<glyph name="germandbls" format="1">
  <advance width="621"/>
  <unicode hex="00DF"/>
  <outline>
    <contour>
      <point x="237" y="-15" type="line"/>
      <point x="442" y="-15"/>
      <point x="561" y="114"/>
      <point x="561" y="260" type="curve" smooth="yes"/>
      <point x="561" y="378"/>
      <point x="483" y="462"/>
      <point x="393" y="493" type="curve"/>
      <point x="450" y="530"/>
      <point x="502" y="594"/>
      <point x="503" y="681" type="curve" smooth="yes"/>
      <point x="504" y="797"/>
      <point x="421" y="875"/>
      <point x="309" y="875" type="curve" smooth="yes"/>
      <point x="185" y="875"/>
      <point x="105" y="796"/>
      <point x="105" y="664" type="curve" smooth="yes"/>
      <point x="105" y="456" type="line"/>
      <point x="35" y="456" type="line"/>
      <point x="35" y="376" type="line"/>
      <point x="105" y="376" type="line"/>
      <point x="105" y="0" type="line"/>
      <point x="192" y="0" type="line"/>
      <point x="192" y="644" type="line" smooth="yes"/>
      <point x="192" y="718"/>
      <point x="220" y="795"/>
      <point x="309" y="795" type="curve" smooth="yes"/>
      <point x="385" y="795"/>
      <point x="413" y="730"/>
      <point x="413" y="684" type="curve" smooth="yes"/>
      <point x="413" y="608"/>
      <point x="347" y="527"/>
      <point x="237" y="527" type="curve"/>
      <point x="237" y="447" type="line"/>
      <point x="367" y="447"/>
      <point x="470" y="373"/>
      <point x="470" y="260" type="curve"/>
      <point x="470" y="144"/>
      <point x="385" y="65"/>
      <point x="237" y="65" type="curve"/>
    </contour>
  </outline>
</glyph>
<glyph name="agrave" format="1">
  <advance width="660"/>
  <unicode hex="00E0"/>
  <outline>
    <contour>
      <point x="60" y="406"/>
      <point x="167" y="528"/>
      <point x="315" y="528" type="curve" smooth="yes"/>
      <point x="379" y="528"/>
      <point x="435" y="506"/>
      <point x="483" y="456" type="curve"/>
      <point x="483" y="513" type="line"/>
      <point x="572" y="513" type="line"/>
      <point x="572" y="0" type="line"/>
      <point x="485" y="0" type="line"/>
      <point x="485" y="63" type="line"/>
      <point x="484" y="63" type="line"/>
      <point x="442" y="13"/>
      <point x="379" y="-15"/>
      <point x="315" y="-15" type="curve" smooth="yes"/>
      <point x="167" y="-15"/>
      <point x="60" y="106"/>
      <point x="60" y="256" type="curve" smooth="yes"/>
    </contour>
    <contour>
      <point x="151" y="138"/>
      <point x="218" y="65"/>
      <point x="326" y="65" type="curve" smooth="yes"/>
      <point x="417" y="65"/>
      <point x="487" y="138"/>
      <point x="487" y="256" type="curve" smooth="yes"/>
      <point x="487" y="374"/>
      <point x="414" y="448"/>
      <point x="326" y="448" type="curve" smooth="yes"/>
      <point x="218" y="448"/>
      <point x="151" y="374"/>
      <point x="151" y="256" type="curve" smooth="yes"/>
    </contour>
    <contour>
      <point x="334" y="610" type="line"/>
      <point x="376" y="656" type="line"/>
      <point x="197" y="840" type="line"/>
      <point x="127" y="764" type="line"/>
    </contour>
  </outline>
</glyph>
<glyph name="aring" format="1">
  <advance width="660"/>
  <unicode hex="00E5"/>
  <outline>
    <contour>
      <point x="60" y="106"/>
      <point x="167" y="-15"/>
      <point x="315" y="-15" type="curve" smooth="yes"/>
      <point x="379" y="-15"/>
      <point x="442" y="13"/>
      <point x="484" y="63" type="curve"/>
      <point x="485" y="63" type="line"/>
      <point x="485" y="0" type="line"/>
      <point x="572" y="0" type="line"/>
      <point x="572" y="513" type="line"/>
      <point x="483" y="513" type="line"/>
      <point x="483" y="456" type="line"/>
      <point x="435" y="506"/>
      <point x="379" y="528"/>
      <point x="315" y="528" type="curve" smooth="yes"/>
      <point x="167" y="528"/>
      <point x="60" y="406"/>
      <point x="60" y="256" type="curve" smooth="yes"/>
    </contour>
    <contour>
      <point x="151" y="374"/>
      <point x="218" y="448"/>
      <point x="326" y="448" type="curve" smooth="yes"/>
      <point x="414" y="448"/>
      <point x="487" y="374"/>
      <point x="487" y="256" type="curve" smooth="yes"/>
      <point x="487" y="138"/>
      <point x="417" y="65"/>
      <point x="326" y="65" type="curve" smooth="yes"/>
      <point x="218" y="65"/>
      <point x="151" y="138"/>
      <point x="151" y="256" type="curve" smooth="yes"/>
    </contour>
    <contour>
      <point x="180" y="654"/>
      <point x="247" y="591"/>
      <point x="333" y="591" type="curve" smooth="yes"/>
      <point x="419" y="591"/>
      <point x="487" y="654"/>
      <point x="487" y="733" type="curve" smooth="yes"/>
      <point x="487" y="811"/>
      <point x="416" y="874"/>
      <point x="333" y="874" type="curve" smooth="yes"/>
      <point x="250" y="874"/>
      <point x="180" y="811"/>
      <point x="180" y="733" type="curve"/>
    </contour>
    <contour>
      <point x="260" y="773"/>
      <point x="283" y="809"/>
      <point x="333" y="809" type="curve" smooth="yes"/>
      <point x="383" y="809"/>
      <point x="407" y="773"/>
      <point x="407" y="732" type="curve" smooth="yes"/>
      <point x="407" y="693"/>
      <point x="386" y="656"/>
      <point x="333" y="656" type="curve" smooth="yes"/>
      <point x="281" y="656"/>
      <point x="260" y="693"/>
      <point x="260" y="732" type="curve" smooth="yes"/>
    </contour>
  </outline>
</glyph>
<glyph name="ae" format="1">
  <advance width="1011"/>
  <unicode hex="00E6"/>
  <outline>
    <contour>
      <point x="125" y="408" type="line"/>
      <point x="208" y="444"/>
      <point x="246" y="448"/>
      <point x="292" y="448" type="curve" smooth="yes"/>
      <point x="353" y="448"/>
      <point x="432" y="427"/>
      <point x="433" y="306" type="curve"/>
      <point x="434" y="256" type="line"/>
      <point x="403" y="285"/>
      <point x="331" y="316"/>
      <point x="260" y="316" type="curve" smooth="yes"/>
      <point x="158" y="316"/>
      <point x="60" y="251"/>
      <point x="60" y="145" type="curve" smooth="yes"/>
      <point x="60" y="61"/>
      <point x="137" y="-15"/>
      <point x="260" y="-15" type="curve" smooth="yes"/>
      <point x="360" y="-15"/>
      <point x="442" y="34"/>
      <point x="479" y="102" type="curve"/>
      <point x="526" y="30"/>
      <point x="606" y="-15"/>
      <point x="693" y="-15" type="curve" smooth="yes"/>
      <point x="785" y="-15"/>
      <point x="863" y="15"/>
      <point x="924" y="100" type="curve"/>
      <point x="855" y="136" type="line"/>
      <point x="811" y="79"/>
      <point x="764" y="65"/>
      <point x="708" y="65" type="curve" smooth="yes"/>
      <point x="614" y="65"/>
      <point x="534" y="128"/>
      <point x="520" y="241" type="curve"/>
      <point x="955" y="241" type="line"/>
      <point x="956" y="245"/>
      <point x="956" y="251"/>
      <point x="956" y="257" type="curve" smooth="yes"/>
      <point x="956" y="416"/>
      <point x="838" y="528"/>
      <point x="702" y="528" type="curve" smooth="yes"/>
      <point x="616" y="528"/>
      <point x="536" y="487"/>
      <point x="488" y="422" type="curve"/>
      <point x="457" y="477"/>
      <point x="403" y="528"/>
      <point x="285" y="528" type="curve" smooth="yes"/>
      <point x="227" y="528"/>
      <point x="153" y="512"/>
      <point x="91" y="474" type="curve"/>
    </contour>
    <contour>
      <point x="146" y="193"/>
      <point x="184" y="236"/>
      <point x="265" y="236" type="curve" smooth="yes"/>
      <point x="358" y="236"/>
      <point x="425" y="183"/>
      <point x="425" y="154" type="curve" smooth="yes"/>
      <point x="425" y="116"/>
      <point x="355" y="65"/>
      <point x="279" y="65" type="curve" smooth="yes"/>
      <point x="208" y="65"/>
      <point x="146" y="90"/>
      <point x="146" y="150" type="curve" smooth="yes"/>
    </contour>
    <contour>
      <point x="529" y="319" type="line"/>
      <point x="550" y="402"/>
      <point x="628" y="448"/>
      <point x="702" y="448" type="curve" smooth="yes"/>
      <point x="765" y="448"/>
      <point x="840" y="404"/>
      <point x="860" y="319" type="curve"/>
    </contour>
  </outline>
</glyph>
<glyph name="ccedilla" format="1">
  <advance width="540"/>
  <unicode hex="00E7"/>
  <outline>
    <contour>
      <point x="198" y="-107" type="line"/>
      <point x="225" y="-124" type="line"/>
      <point x="235" y="-115"/>
      <point x="250" y="-107"/>
      <point x="272" y="-107" type="curve" smooth="yes"/>
      <point x="310" y="-107"/>
      <point x="344" y="-132"/>
      <point x="344" y="-171" type="curve" smooth="yes"/>
      <point x="344" y="-206"/>
      <point x="321" y="-234"/>
      <point x="280" y="-234" type="curve" smooth="yes"/>
      <point x="217" y="-234"/>
      <point x="189" y="-172"/>
      <point x="189" y="-172" type="curve"/>
      <point x="130" y="-200" type="line"/>
      <point x="130" y="-200"/>
      <point x="177" y="-294"/>
      <point x="283" y="-294" type="curve" smooth="yes"/>
      <point x="362" y="-294"/>
      <point x="418" y="-245"/>
      <point x="418" y="-172" type="curve" smooth="yes"/>
      <point x="418" y="-102"/>
      <point x="347" y="-45"/>
      <point x="266" y="-62" type="curve"/>
      <point x="285" y="-11" type="line"/>
      <point x="299" y="-14"/>
      <point x="314" y="-15"/>
      <point x="330" y="-15" type="curve" smooth="yes"/>
      <point x="390" y="-15"/>
      <point x="445" y="2"/>
      <point x="487" y="31" type="curve"/>
      <point x="453" y="97" type="line"/>
      <point x="421" y="77"/>
      <point x="383" y="65"/>
      <point x="333" y="65" type="curve" smooth="yes"/>
      <point x="229" y="65"/>
      <point x="151" y="146"/>
      <point x="151" y="257" type="curve" smooth="yes"/>
      <point x="151" y="369"/>
      <point x="234" y="448"/>
      <point x="333" y="448" type="curve" smooth="yes"/>
      <point x="386" y="448"/>
      <point x="426" y="434"/>
      <point x="453" y="410" type="curve"/>
      <point x="487" y="480" type="line"/>
      <point x="445" y="511"/>
      <point x="390" y="528"/>
      <point x="333" y="528" type="curve" smooth="yes"/>
      <point x="186" y="528"/>
      <point x="60" y="416"/>
      <point x="60" y="257" type="curve" smooth="yes"/>
      <point x="60" y="134"/>
      <point x="132" y="39"/>
      <point x="233" y="2" type="curve"/>
    </contour>
  </outline>
</glyph>
<glyph name="egrave" format="1">
  <advance width="637"/>
  <unicode hex="00E8"/>
  <outline>
    <contour>
      <point x="581" y="241" type="line"/>
      <point x="582" y="245"/>
      <point x="582" y="251"/>
      <point x="582" y="257" type="curve" smooth="yes"/>
      <point x="582" y="416"/>
      <point x="464" y="528"/>
      <point x="328" y="528" type="curve" smooth="yes"/>
      <point x="186" y="528"/>
      <point x="60" y="416"/>
      <point x="60" y="257" type="curve" smooth="yes"/>
      <point x="60" y="98"/>
      <point x="181" y="-15"/>
      <point x="319" y="-15" type="curve" smooth="yes"/>
      <point x="411" y="-15"/>
      <point x="489" y="15"/>
      <point x="550" y="100" type="curve"/>
      <point x="481" y="136" type="line"/>
      <point x="437" y="79"/>
      <point x="390" y="65"/>
      <point x="334" y="65" type="curve" smooth="yes"/>
      <point x="240" y="65"/>
      <point x="160" y="128"/>
      <point x="146" y="241" type="curve"/>
    </contour>
    <contour>
      <point x="155" y="319" type="line"/>
      <point x="176" y="402"/>
      <point x="255" y="448"/>
      <point x="328" y="448" type="curve" smooth="yes"/>
      <point x="391" y="448"/>
      <point x="466" y="404"/>
      <point x="486" y="319" type="curve"/>
    </contour>
    <contour>
      <point x="311" y="610" type="line"/>
      <point x="353" y="656" type="line"/>
      <point x="174" y="840" type="line"/>
      <point x="104" y="764" type="line"/>
    </contour>
  </outline>
</glyph>
<glyph name="igrave" format="1">
  <advance width="262"/>
  <unicode hex="00EC"/>
  <outline>
    <contour>
      <point x="180" y="0" type="line"/>
      <point x="93" y="0" type="line"/>
      <point x="93" y="513" type="line"/>
      <point x="180" y="513" type="line"/>
    </contour>
    <contour>
      <point x="146" y="610" type="line"/>
      <point x="188" y="656" type="line"/>
      <point x="9" y="840" type="line"/>
      <point x="-61" y="764" type="line"/>
    </contour>
  </outline>
</glyph>
<glyph name="iacute" format="1">
  <advance width="262"/>
  <unicode hex="00ED"/>
  <outline>
    <contour>
      <point x="180" y="0" type="line"/>
      <point x="93" y="0" type="line"/>
      <point x="93" y="513" type="line"/>
      <point x="180" y="513" type="line"/>
    </contour>
    <contour>
      <point x="335" y="764" type="line"/>
      <point x="265" y="840" type="line"/>
      <point x="86" y="656" type="line"/>
      <point x="128" y="610" type="line"/>
    </contour>
  </outline>
</glyph>
<glyph name="icircumflex" format="1">
  <advance width="262"/>
  <unicode hex="00EE"/>
  <outline>
    <contour>
      <point x="180" y="0" type="line"/>
      <point x="93" y="0" type="line"/>
      <point x="93" y="513" type="line"/>
      <point x="180" y="513" type="line"/>
    </contour>
    <contour>
      <point x="136" y="745" type="line"/>
      <point x="294" y="604" type="line"/>
      <point x="343" y="662" type="line"/>
      <point x="136" y="840" type="line"/>
      <point x="-71" y="662" type="line"/>
      <point x="-22" y="604" type="line"/>
    </contour>
  </outline>
</glyph>
<glyph name="idieresis" format="1">
  <advance width="262"/>
  <unicode hex="00EF"/>
  <outline>
    <contour>
      <point x="180" y="0" type="line"/>
      <point x="93" y="0" type="line"/>
      <point x="93" y="513" type="line"/>
      <point x="180" y="513" type="line"/>
    </contour>
    <contour>
      <point x="-2" y="790"/>
      <point x="-31" y="762"/>
      <point x="-31" y="727" type="curve" smooth="yes"/>
      <point x="-31" y="691"/>
      <point x="-2" y="663"/>
      <point x="33" y="663" type="curve" smooth="yes"/>
      <point x="69" y="663"/>
      <point x="97" y="691"/>
      <point x="97" y="727" type="curve" smooth="yes"/>
      <point x="97" y="762"/>
      <point x="69" y="790"/>
      <point x="33" y="790" type="curve" smooth="yes"/>
    </contour>
    <contour>
      <point x="206" y="790"/>
      <point x="177" y="762"/>
      <point x="177" y="727" type="curve" smooth="yes"/>
      <point x="177" y="691"/>
      <point x="206" y="663"/>
      <point x="241" y="663" type="curve" smooth="yes"/>
      <point x="277" y="663"/>
      <point x="305" y="691"/>
      <point x="305" y="727" type="curve" smooth="yes"/>
      <point x="305" y="762"/>
      <point x="277" y="790"/>
      <point x="241" y="790" type="curve" smooth="yes"/>
    </contour>
  </outline>
</glyph>
<glyph name="eth" format="1">
  <advance width="609"/>
  <unicode hex="00F0"/>
  <outline>
    <contour>
      <point x="60" y="98"/>
      <point x="174" y="-15"/>
      <point x="331" y="-15" type="curve" smooth="yes"/>
      <point x="477" y="-15"/>
      <point x="587" y="98"/>
      <point x="587" y="281" type="curve" smooth="yes"/>
      <point x="587" y="497"/>
      <point x="483" y="662"/>
      <point x="325" y="760" type="curve"/>
      <point x="386" y="825" type="line"/>
      <point x="341" y="871" type="line"/>
      <point x="271" y="796" type="line"/>
      <point x="223" y="825"/>
      <point x="173" y="849"/>
      <point x="118" y="871" type="curve"/>
      <point x="91" y="801" type="line"/>
      <point x="139" y="781"/>
      <point x="193" y="756"/>
      <point x="219" y="740" type="curve"/>
      <point x="134" y="649" type="line"/>
      <point x="180" y="604" type="line"/>
      <point x="274" y="706" type="line"/>
      <point x="379" y="642"/>
      <point x="458" y="551"/>
      <point x="475" y="464" type="curve"/>
      <point x="415" y="512"/>
      <point x="364" y="528"/>
      <point x="308" y="528" type="curve" smooth="yes"/>
      <point x="198" y="528"/>
      <point x="60" y="424"/>
      <point x="60" y="256" type="curve" smooth="yes"/>
    </contour>
    <contour>
      <point x="151" y="374"/>
      <point x="222" y="448"/>
      <point x="320" y="448" type="curve" smooth="yes"/>
      <point x="415" y="448"/>
      <point x="492" y="378"/>
      <point x="496" y="266" type="curve"/>
      <point x="496" y="256" type="line"/>
      <point x="496" y="138"/>
      <point x="426" y="65"/>
      <point x="331" y="65" type="curve" smooth="yes"/>
      <point x="227" y="65"/>
      <point x="151" y="138"/>
      <point x="151" y="256" type="curve" smooth="yes"/>
    </contour>
  </outline>
</glyph>
<glyph name="ntilde" format="1">
  <advance width="663"/>
  <unicode hex="00F1"/>
  <outline>
    <contour>
      <point x="175" y="0" type="line"/>
      <point x="88" y="0" type="line"/>
      <point x="88" y="513" type="line"/>
      <point x="175" y="513" type="line"/>
      <point x="175" y="450" type="line"/>
      <point x="177" y="450" type="line"/>
      <point x="210" y="500"/>
      <point x="298" y="528"/>
      <point x="362" y="528" type="curve" smooth="yes"/>
      <point x="468" y="528"/>
      <point x="581" y="461"/>
      <point x="581" y="338" type="curve" smooth="yes"/>
      <point x="581" y="0" type="line"/>
      <point x="494" y="0" type="line"/>
      <point x="494" y="290" type="line" smooth="yes"/>
      <point x="494" y="397"/>
      <point x="440" y="448"/>
      <point x="353" y="448" type="curve" smooth="yes"/>
      <point x="236" y="448"/>
      <point x="175" y="363"/>
      <point x="175" y="315" type="curve" smooth="yes"/>
    </contour>
    <contour>
      <point x="365" y="654"/>
      <point x="398" y="639"/>
      <point x="446" y="639" type="curve" smooth="yes"/>
      <point x="536" y="639"/>
      <point x="562" y="761"/>
      <point x="562" y="761" type="curve"/>
      <point x="488" y="761" type="line"/>
      <point x="488" y="761"/>
      <point x="475" y="706"/>
      <point x="436" y="706" type="curve" smooth="yes"/>
      <point x="408" y="706"/>
      <point x="379" y="719"/>
      <point x="362" y="726" type="curve" smooth="yes"/>
      <point x="327" y="741"/>
      <point x="293" y="757"/>
      <point x="245" y="757" type="curve" smooth="yes"/>
      <point x="155" y="757"/>
      <point x="129" y="635"/>
      <point x="129" y="635" type="curve"/>
      <point x="203" y="635" type="line"/>
      <point x="203" y="635"/>
      <point x="216" y="690"/>
      <point x="256" y="690" type="curve" smooth="yes"/>
      <point x="283" y="690"/>
      <point x="312" y="677"/>
      <point x="329" y="670" type="curve" smooth="yes"/>
    </contour>
  </outline>
</glyph>
<glyph name="oacute" format="1">
  <advance width="682"/>
  <unicode hex="00F3"/>
  <outline>
    <contour>
      <point x="60" y="416"/>
      <point x="186" y="528"/>
      <point x="341" y="528" type="curve" smooth="yes"/>
      <point x="496" y="528"/>
      <point x="622" y="416"/>
      <point x="622" y="257" type="curve" smooth="yes"/>
      <point x="622" y="98"/>
      <point x="502" y="-15"/>
      <point x="341" y="-15" type="curve" smooth="yes"/>
      <point x="180" y="-15"/>
      <point x="60" y="98"/>
      <point x="60" y="257" type="curve"/>
    </contour>
    <contour>
      <point x="148" y="146"/>
      <point x="229" y="63"/>
      <point x="341" y="63" type="curve" smooth="yes"/>
      <point x="453" y="63"/>
      <point x="534" y="146"/>
      <point x="534" y="257" type="curve" smooth="yes"/>
      <point x="534" y="369"/>
      <point x="448" y="450"/>
      <point x="341" y="450" type="curve" smooth="yes"/>
      <point x="234" y="450"/>
      <point x="148" y="369"/>
      <point x="148" y="257" type="curve" smooth="yes"/>
    </contour>
    <contour>
      <point x="528" y="764" type="line"/>
      <point x="458" y="840" type="line"/>
      <point x="279" y="656" type="line"/>
      <point x="321" y="610" type="line"/>
    </contour>
  </outline>
</glyph>
<glyph name="otilde" format="1">
  <advance width="682"/>
  <unicode hex="00F5"/>
  <outline>
    <contour>
      <point x="60" y="416"/>
      <point x="186" y="528"/>
      <point x="341" y="528" type="curve" smooth="yes"/>
      <point x="496" y="528"/>
      <point x="622" y="416"/>
      <point x="622" y="257" type="curve" smooth="yes"/>
      <point x="622" y="98"/>
      <point x="502" y="-15"/>
      <point x="341" y="-15" type="curve" smooth="yes"/>
      <point x="180" y="-15"/>
      <point x="60" y="98"/>
      <point x="60" y="257" type="curve"/>
    </contour>
    <contour>
      <point x="148" y="146"/>
      <point x="229" y="63"/>
      <point x="341" y="63" type="curve" smooth="yes"/>
      <point x="453" y="63"/>
      <point x="534" y="146"/>
      <point x="534" y="257" type="curve" smooth="yes"/>
      <point x="534" y="369"/>
      <point x="448" y="450"/>
      <point x="341" y="450" type="curve" smooth="yes"/>
      <point x="234" y="450"/>
      <point x="148" y="369"/>
      <point x="148" y="257" type="curve" smooth="yes"/>
    </contour>
    <contour>
      <point x="361" y="654"/>
      <point x="394" y="639"/>
      <point x="442" y="639" type="curve" smooth="yes"/>
      <point x="532" y="639"/>
      <point x="558" y="761"/>
      <point x="558" y="761" type="curve"/>
      <point x="484" y="761" type="line"/>
      <point x="484" y="761"/>
      <point x="471" y="706"/>
      <point x="432" y="706" type="curve" smooth="yes"/>
      <point x="404" y="706"/>
      <point x="375" y="719"/>
      <point x="358" y="726" type="curve" smooth="yes"/>
      <point x="323" y="741"/>
      <point x="289" y="757"/>
      <point x="241" y="757" type="curve" smooth="yes"/>
      <point x="151" y="757"/>
      <point x="125" y="635"/>
      <point x="125" y="635" type="curve"/>
      <point x="199" y="635" type="line"/>
      <point x="199" y="635"/>
      <point x="212" y="690"/>
      <point x="252" y="690" type="curve" smooth="yes"/>
      <point x="279" y="690"/>
      <point x="308" y="677"/>
      <point x="325" y="670" type="curve" smooth="yes"/>
    </contour>
  </outline>
</glyph>
<glyph name="odieresis" format="1">
  <advance width="682"/>
  <unicode hex="00F6"/>
  <outline>
    <contour>
      <point x="60" y="416"/>
      <point x="186" y="528"/>
      <point x="341" y="528" type="curve" smooth="yes"/>
      <point x="496" y="528"/>
      <point x="622" y="416"/>
      <point x="622" y="257" type="curve" smooth="yes"/>
      <point x="622" y="98"/>
      <point x="502" y="-15"/>
      <point x="341" y="-15" type="curve" smooth="yes"/>
      <point x="180" y="-15"/>
      <point x="60" y="98"/>
      <point x="60" y="257" type="curve"/>
    </contour>
    <contour>
      <point x="148" y="146"/>
      <point x="229" y="63"/>
      <point x="341" y="63" type="curve" smooth="yes"/>
      <point x="453" y="63"/>
      <point x="534" y="146"/>
      <point x="534" y="257" type="curve" smooth="yes"/>
      <point x="534" y="369"/>
      <point x="448" y="450"/>
      <point x="341" y="450" type="curve" smooth="yes"/>
      <point x="234" y="450"/>
      <point x="148" y="369"/>
      <point x="148" y="257" type="curve" smooth="yes"/>
    </contour>
    <contour>
      <point x="202" y="790"/>
      <point x="173" y="762"/>
      <point x="173" y="727" type="curve" smooth="yes"/>
      <point x="173" y="691"/>
      <point x="202" y="663"/>
      <point x="237" y="663" type="curve" smooth="yes"/>
      <point x="273" y="663"/>
      <point x="301" y="691"/>
      <point x="301" y="727" type="curve" smooth="yes"/>
      <point x="301" y="762"/>
      <point x="273" y="790"/>
      <point x="237" y="790" type="curve" smooth="yes"/>
    </contour>
    <contour>
      <point x="410" y="790"/>
      <point x="381" y="762"/>
      <point x="381" y="727" type="curve" smooth="yes"/>
      <point x="381" y="691"/>
      <point x="410" y="663"/>
      <point x="445" y="663" type="curve" smooth="yes"/>
      <point x="481" y="663"/>
      <point x="509" y="691"/>
      <point x="509" y="727" type="curve" smooth="yes"/>
      <point x="509" y="762"/>
      <point x="481" y="790"/>
      <point x="445" y="790" type="curve" smooth="yes"/>
    </contour>
  </outline>
</glyph>
<glyph name="divide" format="1">
  <advance width="633"/>
  <unicode hex="F7"/>
  <outline>
    <contour>
      <point x="573" y="338" type="line"/>
      <point x="573" y="491" type="line"/>
      <point x="60" y="491" type="line"/>
      <point x="60" y="338" type="line"/>
    </contour>
    <contour>
      <point x="315" y="720" type="line"/>
      <point x="271" y="720"/>
      <point x="235" y="684"/>
      <point x="235" y="638" type="curve" smooth="yes"/>
      <point x="235" y="594"/>
      <point x="271" y="558"/>
      <point x="315" y="558" type="curve" smooth="yes"/>
      <point x="361" y="558"/>
      <point x="397" y="594"/>
      <point x="397" y="638" type="curve" smooth="yes"/>
      <point x="397" y="684"/>
      <point x="361" y="720"/>
      <point x="315" y="720" type="curve"/>
    </contour>
    <contour>
      <point x="315" y="271" type="line"/>
      <point x="271" y="271"/>
      <point x="235" y="235"/>
      <point x="235" y="189" type="curve" smooth="yes"/>
      <point x="235" y="145"/>
      <point x="271" y="109"/>
      <point x="315" y="109" type="curve" smooth="yes"/>
      <point x="361" y="109"/>
      <point x="397" y="145"/>
      <point x="397" y="189" type="curve" smooth="yes"/>
      <point x="397" y="235"/>
      <point x="361" y="271"/>
      <point x="315" y="271" type="curve"/>
    </contour>
  </outline>
</glyph>
<glyph name="oslash" format="1">
  <advance width="710"/>
  <unicode hex="00F8"/>
  <outline>
    <contour>
      <point x="543" y="462" type="line"/>
      <point x="493" y="504"/>
      <point x="427" y="528"/>
      <point x="355" y="528" type="curve" smooth="yes"/>
      <point x="200" y="528"/>
      <point x="74" y="416"/>
      <point x="74" y="257" type="curve" smooth="yes"/>
      <point x="74" y="203"/>
      <point x="88" y="154"/>
      <point x="113" y="113" type="curve"/>
      <point x="33" y="48" type="line"/>
      <point x="78" y="-6" type="line"/>
      <point x="157" y="59" type="line"/>
      <point x="207" y="12"/>
      <point x="276" y="-15"/>
      <point x="355" y="-15" type="curve" smooth="yes"/>
      <point x="516" y="-15"/>
      <point x="636" y="98"/>
      <point x="636" y="257" type="curve" smooth="yes"/>
      <point x="636" y="315"/>
      <point x="619" y="367"/>
      <point x="590" y="410" type="curve"/>
      <point x="660" y="466" type="line"/>
      <point x="615" y="520" type="line"/>
    </contour>
    <contour>
      <point x="162" y="369"/>
      <point x="248" y="450"/>
      <point x="355" y="450" type="curve" smooth="yes"/>
      <point x="401" y="450"/>
      <point x="444" y="435"/>
      <point x="477" y="408" type="curve"/>
      <point x="181" y="169" type="line"/>
      <point x="169" y="195"/>
      <point x="162" y="225"/>
      <point x="162" y="257" type="curve" smooth="yes"/>
    </contour>
    <contour>
      <point x="302" y="63"/>
      <point x="257" y="81"/>
      <point x="223" y="112" type="curve"/>
      <point x="523" y="355" type="line"/>
      <point x="539" y="327"/>
      <point x="548" y="294"/>
      <point x="548" y="257" type="curve" smooth="yes"/>
      <point x="548" y="146"/>
      <point x="467" y="63"/>
      <point x="355" y="63" type="curve" smooth="yes"/>
    </contour>
  </outline>
</glyph>
<glyph name="ugrave" format="1">
  <advance width="660"/>
  <unicode hex="00F9"/>
  <outline>
    <contour>
      <point x="169" y="269" type="line" smooth="yes"/>
      <point x="169" y="150"/>
      <point x="206" y="65"/>
      <point x="330" y="65" type="curve" smooth="yes"/>
      <point x="454" y="65"/>
      <point x="491" y="150"/>
      <point x="491" y="269" type="curve" smooth="yes"/>
      <point x="491" y="513" type="line"/>
      <point x="578" y="513" type="line"/>
      <point x="578" y="255" type="line" smooth="yes"/>
      <point x="578" y="112"/>
      <point x="516" y="-15"/>
      <point x="330" y="-15" type="curve" smooth="yes"/>
      <point x="144" y="-15"/>
      <point x="82" y="112"/>
      <point x="82" y="255" type="curve" smooth="yes"/>
      <point x="82" y="513" type="line"/>
      <point x="169" y="513" type="line"/>
    </contour>
    <contour>
      <point x="331" y="610" type="line"/>
      <point x="373" y="656" type="line"/>
      <point x="194" y="840" type="line"/>
      <point x="124" y="764" type="line"/>
    </contour>
  </outline>
</glyph>
<glyph name="uacute" format="1">
  <advance width="660"/>
  <unicode hex="00FA"/>
  <outline>
    <contour>
      <point x="169" y="269" type="line" smooth="yes"/>
      <point x="169" y="150"/>
      <point x="206" y="65"/>
      <point x="330" y="65" type="curve" smooth="yes"/>
      <point x="454" y="65"/>
      <point x="491" y="150"/>
      <point x="491" y="269" type="curve" smooth="yes"/>
      <point x="491" y="513" type="line"/>
      <point x="578" y="513" type="line"/>
      <point x="578" y="255" type="line" smooth="yes"/>
      <point x="578" y="112"/>
      <point x="516" y="-15"/>
      <point x="330" y="-15" type="curve" smooth="yes"/>
      <point x="144" y="-15"/>
      <point x="82" y="112"/>
      <point x="82" y="255" type="curve" smooth="yes"/>
      <point x="82" y="513" type="line"/>
      <point x="169" y="513" type="line"/>
    </contour>
    <contour>
      <point x="537" y="764" type="line"/>
      <point x="467" y="840" type="line"/>
      <point x="288" y="656" type="line"/>
      <point x="330" y="610" type="line"/>
    </contour>
  </outline>
</glyph>
<glyph name="udieresis" format="1">
  <advance width="660"/>
  <unicode hex="00FC"/>
  <outline>
    <contour>
      <point x="169" y="269" type="line" smooth="yes"/>
      <point x="169" y="150"/>
      <point x="206" y="65"/>
      <point x="330" y="65" type="curve" smooth="yes"/>
      <point x="454" y="65"/>
      <point x="491" y="150"/>
      <point x="491" y="269" type="curve" smooth="yes"/>
      <point x="491" y="513" type="line"/>
      <point x="578" y="513" type="line"/>
      <point x="578" y="255" type="line" smooth="yes"/>
      <point x="578" y="112"/>
      <point x="516" y="-15"/>
      <point x="330" y="-15" type="curve" smooth="yes"/>
      <point x="144" y="-15"/>
      <point x="82" y="112"/>
      <point x="82" y="255" type="curve" smooth="yes"/>
      <point x="82" y="513" type="line"/>
      <point x="169" y="513" type="line"/>
    </contour>
    <contour>
      <point x="191" y="790"/>
      <point x="162" y="762"/>
      <point x="162" y="727" type="curve" smooth="yes"/>
      <point x="162" y="691"/>
      <point x="191" y="663"/>
      <point x="226" y="663" type="curve" smooth="yes"/>
      <point x="262" y="663"/>
      <point x="290" y="691"/>
      <point x="290" y="727" type="curve" smooth="yes"/>
      <point x="290" y="762"/>
      <point x="262" y="790"/>
      <point x="226" y="790" type="curve" smooth="yes"/>
    </contour>
    <contour>
      <point x="399" y="790"/>
      <point x="370" y="762"/>
      <point x="370" y="727" type="curve" smooth="yes"/>
      <point x="370" y="691"/>
      <point x="399" y="663"/>
      <point x="434" y="663" type="curve" smooth="yes"/>
      <point x="470" y="663"/>
      <point x="498" y="691"/>
      <point x="498" y="727" type="curve" smooth="yes"/>
      <point x="498" y="762"/>
      <point x="470" y="790"/>
      <point x="434" y="790" type="curve" smooth="yes"/>
    </contour>
  </outline>
</glyph>
<glyph name="yacute" format="1">
  <advance width="558"/>
  <unicode hex="00FD"/>
  <outline>
    <contour>
      <point x="101" y="513" type="line"/>
      <point x="-3" y="513" type="line"/>
      <point x="239" y="80" type="line"/>
      <point x="62" y="-260" type="line"/>
      <point x="160" y="-260" type="line"/>
      <point x="563" y="513" type="line"/>
      <point x="458" y="513" type="line"/>
      <point x="288" y="165" type="line"/>
    </contour>
    <contour>
      <point x="481" y="764" type="line"/>
      <point x="411" y="840" type="line"/>
      <point x="232" y="656" type="line"/>
      <point x="274" y="610" type="line"/>
    </contour>
  </outline>
</glyph>
<glyph name="ydieresis" format="1">
  <advance width="558"/>
  <unicode hex="00FF"/>
  <outline>
    <contour>
      <point x="101" y="513" type="line"/>
      <point x="-3" y="513" type="line"/>
      <point x="239" y="80" type="line"/>
      <point x="62" y="-260" type="line"/>
      <point x="160" y="-260" type="line"/>
      <point x="563" y="513" type="line"/>
      <point x="458" y="513" type="line"/>
      <point x="288" y="165" type="line"/>
    </contour>
    <contour>
      <point x="135" y="790"/>
      <point x="106" y="762"/>
      <point x="106" y="727" type="curve" smooth="yes"/>
      <point x="106" y="691"/>
      <point x="135" y="663"/>
      <point x="170" y="663" type="curve" smooth="yes"/>
      <point x="206" y="663"/>
      <point x="234" y="691"/>
      <point x="234" y="727" type="curve" smooth="yes"/>
      <point x="234" y="762"/>
      <point x="206" y="790"/>
      <point x="170" y="790" type="curve" smooth="yes"/>
    </contour>
    <contour>
      <point x="343" y="790"/>
      <point x="314" y="762"/>
      <point x="314" y="727" type="curve" smooth="yes"/>
      <point x="314" y="691"/>
      <point x="343" y="663"/>
      <point x="378" y="663" type="curve" smooth="yes"/>
      <point x="414" y="663"/>
      <point x="442" y="691"/>
      <point x="442" y="727" type="curve" smooth="yes"/>
      <point x="442" y="762"/>
      <point x="414" y="790"/>
      <point x="378" y="790" type="curve" smooth="yes"/>
    </contour>
  </outline>
</glyph>
<glyph name="Amacron" format="1">
  <advance width="717"/>
  <unicode hex="0100"/>
  <outline>
    <contour>
      <point x="-12" y="0" type="line"/>
      <point x="90" y="0" type="line"/>
      <point x="163" y="192" type="line"/>
      <point x="553" y="192" type="line"/>
      <point x="627" y="0" type="line"/>
      <point x="729" y="0" type="line"/>
      <point x="412" y="825" type="line"/>
      <point x="304" y="825" type="line"/>
    </contour>
    <contour>
      <point x="357" y="725" type="line"/>
      <point x="359" y="725" type="line"/>
      <point x="520" y="275" type="line"/>
      <point x="195" y="273" type="line"/>
    </contour>
    <contour>
      <point x="547" y="976" type="line"/>
      <point x="547" y="1046" type="line"/>
      <point x="169" y="1046" type="line"/>
      <point x="169" y="976" type="line"/>
    </contour>
  </outline>
</glyph>
<glyph name="Abreve" format="1">
  <advance width="717"/>
  <unicode hex="0102"/>
  <outline>
    <contour>
      <point x="-12" y="0" type="line"/>
      <point x="90" y="0" type="line"/>
      <point x="163" y="192" type="line"/>
      <point x="553" y="192" type="line"/>
      <point x="627" y="0" type="line"/>
      <point x="729" y="0" type="line"/>
      <point x="412" y="825" type="line"/>
      <point x="304" y="825" type="line"/>
    </contour>
    <contour>
      <point x="357" y="725" type="line"/>
      <point x="359" y="725" type="line"/>
      <point x="520" y="275" type="line"/>
      <point x="195" y="273" type="line"/>
    </contour>
    <contour>
      <point x="483" y="1147" type="line"/>
      <point x="483" y="1147"/>
      <point x="472" y="1019"/>
      <point x="358" y="1019" type="curve" smooth="yes"/>
      <point x="244" y="1019"/>
      <point x="233" y="1147"/>
      <point x="233" y="1147" type="curve"/>
      <point x="147" y="1126" type="line"/>
      <point x="159" y="1039"/>
      <point x="229" y="940"/>
      <point x="358" y="940" type="curve" smooth="yes"/>
      <point x="487" y="940"/>
      <point x="557" y="1039"/>
      <point x="569" y="1126" type="curve"/>
    </contour>
  </outline>
</glyph>
<glyph name="abreve" format="1">
  <advance width="660"/>
  <unicode hex="0103"/>
  <outline>
    <contour>
      <point x="60" y="106"/>
      <point x="167" y="-15"/>
      <point x="315" y="-15" type="curve" smooth="yes"/>
      <point x="379" y="-15"/>
      <point x="442" y="13"/>
      <point x="484" y="63" type="curve"/>
      <point x="485" y="63" type="line"/>
      <point x="485" y="0" type="line"/>
      <point x="572" y="0" type="line"/>
      <point x="572" y="513" type="line"/>
      <point x="483" y="513" type="line"/>
      <point x="483" y="456" type="line"/>
      <point x="435" y="506"/>
      <point x="379" y="528"/>
      <point x="315" y="528" type="curve" smooth="yes"/>
      <point x="167" y="528"/>
      <point x="60" y="406"/>
      <point x="60" y="256" type="curve" smooth="yes"/>
    </contour>
    <contour>
      <point x="151" y="374"/>
      <point x="218" y="448"/>
      <point x="326" y="448" type="curve" smooth="yes"/>
      <point x="414" y="448"/>
      <point x="487" y="374"/>
      <point x="487" y="256" type="curve" smooth="yes"/>
      <point x="487" y="138"/>
      <point x="417" y="65"/>
      <point x="326" y="65" type="curve" smooth="yes"/>
      <point x="218" y="65"/>
      <point x="151" y="138"/>
      <point x="151" y="256" type="curve" smooth="yes"/>
    </contour>
    <contour>
      <point x="458" y="835" type="line"/>
      <point x="458" y="835"/>
      <point x="447" y="707"/>
      <point x="333" y="707" type="curve" smooth="yes"/>
      <point x="219" y="707"/>
      <point x="208" y="835"/>
      <point x="208" y="835" type="curve"/>
      <point x="122" y="814" type="line"/>
      <point x="134" y="727"/>
      <point x="204" y="628"/>
      <point x="333" y="628" type="curve" smooth="yes"/>
      <point x="462" y="628"/>
      <point x="532" y="727"/>
      <point x="544" y="814" type="curve"/>
    </contour>
  </outline>
</glyph>
<glyph name="Aogonek" format="1">
  <advance width="717"/>
  <unicode hex="0104"/>
  <outline>
    <contour>
      <point x="551" y="-229"/>
      <point x="613" y="-259"/>
      <point x="672" y="-259" type="curve" smooth="yes"/>
      <point x="753" y="-259"/>
      <point x="797" y="-182"/>
      <point x="797" y="-182" type="curve"/>
      <point x="745" y="-143" type="line"/>
      <point x="745" y="-143"/>
      <point x="722" y="-195"/>
      <point x="672" y="-195" type="curve" smooth="yes"/>
      <point x="640" y="-195"/>
      <point x="619" y="-172"/>
      <point x="619" y="-136" type="curve" smooth="yes"/>
      <point x="619" y="-73"/>
      <point x="695" y="-17"/>
      <point x="719" y="0" type="curve"/>
      <point x="729" y="0" type="line"/>
      <point x="412" y="825" type="line"/>
      <point x="304" y="825" type="line"/>
      <point x="-12" y="0" type="line"/>
      <point x="90" y="0" type="line"/>
      <point x="163" y="192" type="line"/>
      <point x="553" y="192" type="line"/>
      <point x="627" y="0" type="line"/>
      <point x="638" y="0" type="line"/>
      <point x="599" y="-30"/>
      <point x="551" y="-80"/>
      <point x="551" y="-142" type="curve" smooth="yes"/>
    </contour>
    <contour>
      <point x="357" y="725" type="line"/>
      <point x="359" y="725" type="line"/>
      <point x="520" y="275" type="line"/>
      <point x="195" y="273" type="line"/>
    </contour>
  </outline>
</glyph>
<glyph name="aogonek" format="1">
  <advance width="660"/>
  <unicode hex="0105"/>
  <outline>
    <contour>
      <point x="395" y="-229"/>
      <point x="457" y="-259"/>
      <point x="516" y="-259" type="curve" smooth="yes"/>
      <point x="597" y="-259"/>
      <point x="641" y="-182"/>
      <point x="641" y="-182" type="curve"/>
      <point x="589" y="-143" type="line"/>
      <point x="589" y="-143"/>
      <point x="566" y="-195"/>
      <point x="516" y="-195" type="curve" smooth="yes"/>
      <point x="484" y="-195"/>
      <point x="463" y="-172"/>
      <point x="463" y="-136" type="curve" smooth="yes"/>
      <point x="463" y="-73"/>
      <point x="539" y="-17"/>
      <point x="563" y="0" type="curve"/>
      <point x="572" y="0" type="line"/>
      <point x="572" y="513" type="line"/>
      <point x="483" y="513" type="line"/>
      <point x="483" y="456" type="line"/>
      <point x="435" y="506"/>
      <point x="379" y="528"/>
      <point x="315" y="528" type="curve" smooth="yes"/>
      <point x="167" y="528"/>
      <point x="60" y="406"/>
      <point x="60" y="256" type="curve" smooth="yes"/>
      <point x="60" y="106"/>
      <point x="167" y="-15"/>
      <point x="315" y="-15" type="curve" smooth="yes"/>
      <point x="379" y="-15"/>
      <point x="442" y="13"/>
      <point x="484" y="63" type="curve"/>
      <point x="485" y="63" type="line"/>
      <point x="485" y="2" type="line"/>
      <point x="446" y="-28"/>
      <point x="395" y="-78"/>
      <point x="395" y="-142" type="curve" smooth="yes"/>
    </contour>
    <contour>
      <point x="151" y="374"/>
      <point x="218" y="448"/>
      <point x="326" y="448" type="curve" smooth="yes"/>
      <point x="414" y="448"/>
      <point x="487" y="374"/>
      <point x="487" y="256" type="curve" smooth="yes"/>
      <point x="487" y="138"/>
      <point x="417" y="65"/>
      <point x="326" y="65" type="curve" smooth="yes"/>
      <point x="218" y="65"/>
      <point x="151" y="138"/>
      <point x="151" y="256" type="curve" smooth="yes"/>
    </contour>
  </outline>
</glyph>
<glyph name="Cacute" format="1">
  <advance width="767"/>
  <unicode hex="0106"/>
  <outline>
    <contour>
      <point x="604" y="67"/>
      <point x="685" y="138"/>
      <point x="685" y="138" type="curve"/>
      <point x="729" y="68" type="line"/>
      <point x="729" y="68"/>
      <point x="635" y="-15"/>
      <point x="481" y="-15" type="curve" smooth="yes"/>
      <point x="222" y="-15"/>
      <point x="45" y="180"/>
      <point x="45" y="411" type="curve" smooth="yes"/>
      <point x="45" y="648"/>
      <point x="231" y="840"/>
      <point x="496" y="840" type="curve" smooth="yes"/>
      <point x="643" y="840"/>
      <point x="732" y="759"/>
      <point x="732" y="759" type="curve"/>
      <point x="684" y="690" type="line"/>
      <point x="684" y="690"/>
      <point x="614" y="758"/>
      <point x="489" y="758" type="curve" smooth="yes"/>
      <point x="318" y="758"/>
      <point x="143" y="617"/>
      <point x="143" y="412" type="curve" smooth="yes"/>
      <point x="143" y="210"/>
      <point x="312" y="67"/>
      <point x="490" y="67" type="curve" smooth="yes"/>
    </contour>
    <contour>
      <point x="610" y="1076" type="line"/>
      <point x="540" y="1152" type="line"/>
      <point x="361" y="968" type="line"/>
      <point x="403" y="922" type="line"/>
    </contour>
  </outline>
</glyph>
<glyph name="cacute" format="1">
  <advance width="540"/>
  <unicode hex="0107"/>
  <outline>
    <contour>
      <point x="386" y="448"/>
      <point x="426" y="434"/>
      <point x="453" y="410" type="curve"/>
      <point x="487" y="480" type="line"/>
      <point x="445" y="511"/>
      <point x="390" y="528"/>
      <point x="333" y="528" type="curve" smooth="yes"/>
      <point x="186" y="528"/>
      <point x="60" y="416"/>
      <point x="60" y="257" type="curve" smooth="yes"/>
      <point x="60" y="98"/>
      <point x="180" y="-15"/>
      <point x="330" y="-15" type="curve" smooth="yes"/>
      <point x="390" y="-15"/>
      <point x="445" y="2"/>
      <point x="487" y="31" type="curve"/>
      <point x="453" y="97" type="line"/>
      <point x="421" y="77"/>
      <point x="383" y="65"/>
      <point x="333" y="65" type="curve" smooth="yes"/>
      <point x="229" y="65"/>
      <point x="151" y="146"/>
      <point x="151" y="257" type="curve" smooth="yes"/>
      <point x="151" y="369"/>
      <point x="234" y="448"/>
      <point x="333" y="448" type="curve" smooth="yes"/>
    </contour>
    <contour>
      <point x="480" y="764" type="line"/>
      <point x="410" y="840" type="line"/>
      <point x="231" y="656" type="line"/>
      <point x="273" y="610" type="line"/>
    </contour>
  </outline>
</glyph>
<glyph name="Ccaron" format="1">
  <advance width="767"/>
  <unicode hex="010C"/>
  <outline>
    <contour>
      <point x="604" y="67"/>
      <point x="685" y="138"/>
      <point x="685" y="138" type="curve"/>
      <point x="729" y="68" type="line"/>
      <point x="729" y="68"/>
      <point x="635" y="-15"/>
      <point x="481" y="-15" type="curve" smooth="yes"/>
      <point x="222" y="-15"/>
      <point x="45" y="180"/>
      <point x="45" y="411" type="curve" smooth="yes"/>
      <point x="45" y="648"/>
      <point x="231" y="840"/>
      <point x="496" y="840" type="curve" smooth="yes"/>
      <point x="643" y="840"/>
      <point x="732" y="759"/>
      <point x="732" y="759" type="curve"/>
      <point x="684" y="690" type="line"/>
      <point x="684" y="690"/>
      <point x="614" y="758"/>
      <point x="489" y="758" type="curve" smooth="yes"/>
      <point x="318" y="758"/>
      <point x="143" y="617"/>
      <point x="143" y="412" type="curve" smooth="yes"/>
      <point x="143" y="210"/>
      <point x="312" y="67"/>
      <point x="490" y="67" type="curve" smooth="yes"/>
    </contour>
    <contour>
      <point x="447" y="916" type="line"/>
      <point x="654" y="1094" type="line"/>
      <point x="605" y="1152" type="line"/>
      <point x="447" y="1011" type="line"/>
      <point x="289" y="1152" type="line"/>
      <point x="240" y="1094" type="line"/>
    </contour>
  </outline>
</glyph>
<glyph name="ccaron" format="1">
  <advance width="540"/>
  <unicode hex="010D"/>
  <outline>
    <contour>
      <point x="386" y="448"/>
      <point x="426" y="434"/>
      <point x="453" y="410" type="curve"/>
      <point x="487" y="480" type="line"/>
      <point x="445" y="511"/>
      <point x="390" y="528"/>
      <point x="333" y="528" type="curve" smooth="yes"/>
      <point x="186" y="528"/>
      <point x="60" y="416"/>
      <point x="60" y="257" type="curve" smooth="yes"/>
      <point x="60" y="98"/>
      <point x="180" y="-15"/>
      <point x="330" y="-15" type="curve" smooth="yes"/>
      <point x="390" y="-15"/>
      <point x="445" y="2"/>
      <point x="487" y="31" type="curve"/>
      <point x="453" y="97" type="line"/>
      <point x="421" y="77"/>
      <point x="383" y="65"/>
      <point x="333" y="65" type="curve" smooth="yes"/>
      <point x="229" y="65"/>
      <point x="151" y="146"/>
      <point x="151" y="257" type="curve" smooth="yes"/>
      <point x="151" y="369"/>
      <point x="234" y="448"/>
      <point x="333" y="448" type="curve" smooth="yes"/>
    </contour>
    <contour>
      <point x="292" y="604" type="line"/>
      <point x="499" y="782" type="line"/>
      <point x="450" y="840" type="line"/>
      <point x="292" y="699" type="line"/>
      <point x="134" y="840" type="line"/>
      <point x="85" y="782" type="line"/>
    </contour>
  </outline>
</glyph>
<glyph name="Dcaron" format="1">
  <advance width="719"/>
  <unicode hex="010E"/>
  <outline>
    <contour>
      <point x="65" y="0" type="line"/>
      <point x="238" y="0" type="line" smooth="yes"/>
      <point x="475" y="0"/>
      <point x="674" y="173"/>
      <point x="674" y="410" type="curve" smooth="yes"/>
      <point x="674" y="654"/>
      <point x="464" y="825"/>
      <point x="238" y="825" type="curve" smooth="yes"/>
      <point x="65" y="825" type="line"/>
    </contour>
    <contour>
      <point x="235" y="740" type="line" smooth="yes"/>
      <point x="425" y="740"/>
      <point x="576" y="591"/>
      <point x="576" y="410" type="curve" smooth="yes"/>
      <point x="576" y="235"/>
      <point x="435" y="85"/>
      <point x="235" y="85" type="curve" smooth="yes"/>
      <point x="157" y="85" type="line"/>
      <point x="157" y="740" type="line"/>
    </contour>
    <contour>
      <point x="317" y="916" type="line"/>
      <point x="524" y="1094" type="line"/>
      <point x="475" y="1152" type="line"/>
      <point x="317" y="1011" type="line"/>
      <point x="159" y="1152" type="line"/>
      <point x="110" y="1094" type="line"/>
    </contour>
  </outline>
</glyph>
